<?xml version="1.0" encoding="UTF-8"?>
<svg fill="none" viewBox="0 0 250 251" xmlns="http://www.w3.org/2000/svg">
    <g clip-path="url(#a)">
        <rect y="225.4" width="250" height="25" fill="#000"/>
        <path d="m20 3.4008c0-1.6569 1.3431-3 3-3h204c1.657 0 3 1.3431 3 3v119.7c-4.414-9.106-10.556-17.217-18-23.91v-78.788c0-0.5523-0.448-1-1-1h-172c-0.5523 0-1 0.4477-1 1v113c0 0.552 0.4477 1 1 1h46.877c-1.8315 6.054-2.9432 12.42-3.2353 19h-59.642c-1.6569 0-3-1.343-3-3v-147z" clip-rule="evenodd" fill="#000" fill-rule="evenodd"/>
        <path d="m234.41 179.42c-6.018 19.873-19.795 36.375-37.806 45.982h53.393l-15.587-45.982zm-110.72 45.982h-123.69l20-59h63.14c3.1266 25.608 18.731 47.363 40.548 59z" clip-rule="evenodd" fill="#000" fill-rule="evenodd"/>
        <path d="m160.15 236.9c44.183 0 80-35.817 80-80s-35.817-80-80-80-80 35.817-80 80 35.817 80 80 80zm0-13.79c36.567 0 66.21-29.643 66.21-66.21s-29.643-66.211-66.21-66.211-66.211 29.644-66.211 66.211 29.644 66.21 66.211 66.21z" clip-rule="evenodd" fill="#000" fill-rule="evenodd"/>
        <path d="m148.13 152.76-5.784 3.339 2.574 4.458c-0.821 0.633-1.594 1.31-2.317 2.026l-4.08-3.131-4.066 5.299 4.079 3.13c-0.511 0.893-0.966 1.816-1.361 2.762l-4.967-1.331-1.729 6.451 4.961 1.329c-0.132 1.017-0.202 2.045-0.208 3.076l-5.085 0.669 0.872 6.622 5.075-0.669c0.267 0.986 0.597 1.963 0.992 2.925l-4.433 2.559 3.339 5.784 4.425-2.555c0.635 0.827 1.315 1.604 2.034 2.331l-3.105 4.048 5.298 4.065 3.102-4.042c0.898 0.515 1.827 0.972 2.778 1.37l-1.319 4.921 6.451 1.729 1.317-4.915c1.023 0.133 2.057 0.203 3.094 0.208l0.664 5.039 6.621-0.871-0.663-5.034c0.99-0.269 1.972-0.602 2.939-1l2.54 4.399 5.783-3.339-2.54-4.399c0.828-0.639 1.607-1.322 2.336-2.045l4.028 3.091 4.065-5.299-4.032-3.094c0.514-0.901 0.97-1.831 1.367-2.784l4.915 1.317 1.728-6.451-4.921-1.318c0.131-1.023 0.199-2.055 0.202-3.091l5.052-0.665-0.872-6.621-5.058 0.665c-0.27-0.986-0.603-1.964-1.001-2.927l4.424-2.554-3.339-5.784-4.432 2.559c-0.636-0.823-1.317-1.597-2.037-2.321l3.116-4.061-5.298-4.066-3.123 4.069c-0.896-0.51-1.82-0.963-2.768-1.358l1.329-4.96-6.45-1.729-1.331 4.967c-1.017-0.13-2.043-0.198-3.073-0.202l-0.671-5.097-6.621 0.871 0.671 5.099c-0.982 0.268-1.955 0.599-2.914 0.994l-2.573-4.458zm19.643 40.701c7.276-4.202 9.77-13.507 5.568-20.783-4.201-7.277-13.506-9.771-20.783-5.569-7.276 4.201-9.77 13.506-5.568 20.783 4.201 7.277 13.506 9.77 20.783 5.569z" clip-rule="evenodd" fill="#47B947" fill-rule="evenodd"/>
        <path d="m119.54 113.9-4.049 3.52 2.713 3.121c-0.551 0.625-1.056 1.278-1.517 1.953l-3.697-1.843-2.394 4.801 3.697 1.843c-0.267 0.784-0.484 1.581-0.651 2.387l-4.121-0.288-0.374 5.352 4.116 0.288c0.052 0.823 0.154 1.644 0.307 2.458l-3.907 1.307 1.702 5.088 3.9-1.305c0.361 0.736 0.772 1.456 1.23 2.155l-3.103 2.697 3.52 4.049 3.098-2.693c0.627 0.555 1.283 1.064 1.961 1.527l-1.828 3.667 4.801 2.394 1.827-3.663c0.787 0.269 1.589 0.487 2.401 0.655l-0.286 4.083 5.352 0.374 0.285-4.077c0.828-0.052 1.654-0.156 2.472-0.311l1.296 3.873 5.088-1.703-1.294-3.868c0.739-0.364 1.462-0.777 2.164-1.239l2.677 3.08 4.049-3.52-2.677-3.08c0.555-0.63 1.065-1.289 1.528-1.97l3.65 1.82 2.394-4.802-3.654-1.822c0.267-0.789 0.485-1.592 0.651-2.405l4.078 0.285 0.374-5.352-4.082-0.285c-0.054-0.827-0.159-1.651-0.315-2.469l3.882-1.299-1.703-5.087-3.886 1.3c-0.364-0.737-0.777-1.456-1.239-2.155l3.098-2.693-3.52-4.049-3.103 2.698c-0.628-0.552-1.284-1.058-1.962-1.519l1.835-3.68-4.802-2.394-1.838 3.688c-0.785-0.265-1.584-0.481-2.391-0.647l0.287-4.116-5.352-0.374-0.288 4.121c-0.822 0.053-1.641 0.157-2.454 0.312l-1.311-3.917-5.088 1.702 1.312 3.918c-0.734 0.362-1.45 0.772-2.146 1.23l-2.713-3.121zm21.73 29.086c5.094-4.429 5.634-12.149 1.205-17.243-4.428-5.095-12.148-5.635-17.243-1.206-5.094 4.429-5.634 12.149-1.206 17.243 4.429 5.095 12.149 5.635 17.244 1.206z" clip-rule="evenodd" fill="#47B947" fill-rule="evenodd"/>
        <path d="m198.82 126.56h-4.468v3.444c-0.688 0.092-1.362 0.226-2.02 0.399l-1.317-3.179-4.128 1.71 1.316 3.178c-0.595 0.347-1.167 0.729-1.712 1.145l-2.433-2.433-3.159 3.159 2.429 2.43c-0.417 0.545-0.801 1.117-1.149 1.713l-3.171-1.313-1.709 4.127 3.163 1.311c-0.174 0.66-0.31 1.337-0.403 2.026h-3.424v4.468h3.418c0.091 0.692 0.225 1.37 0.399 2.031l-3.153 1.307 1.709 4.127 3.15-1.304c0.348 0.599 0.733 1.175 1.151 1.723l-2.41 2.41 3.159 3.16 2.407-2.407c0.549 0.419 1.124 0.805 1.723 1.155l-1.301 3.142 4.128 1.71 1.3-3.138c0.664 0.175 1.344 0.31 2.037 0.403v3.399h4.468v-3.399c0.693-0.093 1.373-0.228 2.037-0.403l1.3 3.138 4.128-1.71-1.302-3.142c0.6-0.35 1.175-0.736 1.724-1.155l2.407 2.407 3.159-3.16-2.41-2.41c0.418-0.548 0.803-1.124 1.151-1.723l3.15 1.304 1.709-4.127-3.153-1.307c0.174-0.661 0.308-1.339 0.399-2.031h3.418v-4.468h-3.424c-0.093-0.689-0.229-1.366-0.404-2.026l3.164-1.311-1.709-4.127-3.171 1.313c-0.348-0.596-0.732-1.168-1.149-1.713l2.429-2.43-3.159-3.159-2.433 2.433c-0.545-0.416-1.117-0.798-1.713-1.145l1.317-3.178-4.128-1.71-1.317 3.179c-0.658-0.173-1.332-0.307-2.02-0.399v-3.444zm-2.234 30.153c5.621 0 10.179-4.558 10.179-10.179 0-5.622-4.558-10.179-10.179-10.179-5.622 0-10.179 4.557-10.179 10.179 0 5.621 4.557 10.179 10.179 10.179z" clip-rule="evenodd" fill="#47B947" fill-rule="evenodd"/>
    </g>
    <defs>
        <clipPath id="a">
            <rect transform="translate(0 .40076)" width="250" height="250" fill="#fff"/>
        </clipPath>
    </defs>
</svg>
