<?xml version="1.0" encoding="UTF-8"?>
<svg fill="none" viewBox="0 0 250 251" xmlns="http://www.w3.org/2000/svg">
    <g clip-path="url(#a)">
        <path d="m125.45 35.401c9.665 0 17.5-7.8351 17.5-17.5 0-9.665-7.835-17.5-17.5-17.5s-17.5 7.835-17.5 17.5c0 9.6649 7.835 17.5 17.5 17.5zm0-7c5.799 0 10.5-4.7011 10.5-10.5 0-5.799-4.701-10.5-10.5-10.5s-10.5 4.701-10.5 10.5c0 5.7989 4.701 10.5 10.5 10.5z" clip-rule="evenodd" fill="#47B947" fill-rule="evenodd"/>
        <rect transform="matrix(1 0 0 -1 120.45 118.4)" width="10" height="76.901" fill="#000"/>
        <path d="m17.5 52.401c9.665 0 17.5-7.8351 17.5-17.5 0-9.665-7.835-17.5-17.5-17.5-9.665 0-17.5 7.835-17.5 17.5 0 9.6649 7.835 17.5 17.5 17.5zm0-7c5.799 0 10.5-4.7011 10.5-10.5 0-5.799-4.701-10.5-10.5-10.5s-10.5 4.701-10.5 10.5c0 5.7989 4.701 10.5 10.5 10.5z" clip-rule="evenodd" fill="#47B947" fill-rule="evenodd"/>
        <path d="m28.594 124.73c9.6649 0 17.5-7.835 17.5-17.5s-7.8351-17.5-17.5-17.5c-9.665 0-17.5 7.8351-17.5 17.5s7.835 17.5 17.5 17.5zm0-7c5.7989 0 10.5-4.701 10.5-10.5s-4.7011-10.5-10.5-10.5c-5.799 0-10.5 4.7011-10.5 10.5s4.701 10.5 10.5 10.5z" clip-rule="evenodd" fill="#47B947" fill-rule="evenodd"/>
        <path d="m41.452 34.901h42.424l8.9787 8.9241 8.9785 8.9241v80.094" stroke="#000" stroke-width="10"/>
        <path d="m46.608 89.923 20.459-20.459v49.369l23.017 23.017" stroke="#000" stroke-linejoin="bevel" stroke-width="10"/>
        <path d="m232.5 52.401c-9.665 0-17.5-7.8351-17.5-17.5 0-9.665 7.835-17.5 17.5-17.5s17.5 7.835 17.5 17.5c0 9.6649-7.835 17.5-17.5 17.5zm0-7c-5.799 0-10.5-4.7011-10.5-10.5 0-5.799 4.701-10.5 10.5-10.5s10.5 4.701 10.5 10.5c0 5.7989-4.701 10.5-10.5 10.5z" clip-rule="evenodd" fill="#47B947" fill-rule="evenodd"/>
        <path d="m221.41 124.73c-9.665 0-17.5-7.835-17.5-17.5s7.835-17.5 17.5-17.5 17.5 7.8351 17.5 17.5-7.835 17.5-17.5 17.5zm0-7c-5.799 0-10.5-4.701-10.5-10.5s4.701-10.5 10.5-10.5 10.5 4.7011 10.5 10.5-4.701 10.5-10.5 10.5z" clip-rule="evenodd" fill="#47B947" fill-rule="evenodd"/>
        <path d="m208.55 34.901h-42.425l-8.978 8.9241-8.979 8.9241v80.094" stroke="#000" stroke-width="10"/>
        <path d="m203.91 89.923-20.459-20.459v49.369l-23.017 23.017" stroke="#000" stroke-linejoin="bevel" stroke-width="10"/>
        <path d="m117.12 111.33h15.75v12.138c4.248 0.569 8.352 1.591 12.263 3.017l5.642-10.738 13.942 7.326-5.648 10.748c3.433 2.445 6.591 5.249 9.42 8.358l9.998-6.894 8.942 12.965-9.989 6.888c1.889 3.717 3.395 7.661 4.464 11.781l12.044-1.457 1.892 15.636-12.058 1.459c-0.058 4.295-0.577 8.479-1.51 12.504l11.343 4.307-5.591 14.724-11.344-4.307c-2.019 3.712-4.426 7.183-7.167 10.357l8.051 9.093-11.793 10.441-8.047-9.09c-3.472 2.332-7.208 4.303-11.151 5.86l2.899 11.778-15.293 3.765-2.902-11.789c-2.064 0.219-4.16 0.332-6.282 0.332-2.133 0-4.239-0.114-6.313-0.335l-2.908 11.787-15.291-3.773 2.905-11.777c-3.9426-1.558-7.6767-3.531-11.148-5.865l-8.0519 9.085-11.787-10.446 8.0552-9.089c-2.7391-3.176-5.1444-6.648-7.1612-10.361l-11.346 4.301-5.5826-14.727 11.345-4.301c-0.9305-4.026-1.4475-8.21-1.5039-12.505l-12.057-1.465 1.9003-15.635 12.042 1.464c1.0719-4.12 2.5794-8.064 4.4703-11.779l-9.9847-6.893 8.948-12.962 9.9947 6.9c2.831-3.107 5.9907-5.91 9.4241-8.353l-5.6417-10.751 13.946-7.318 5.6364 10.74c3.902-1.42 7.996-2.439 12.234-3.006v-12.138zm7.875 106.29c19.816 0 35.881-16.064 35.881-35.881 0-19.816-16.065-35.88-35.881-35.88-19.817 0-35.881 16.064-35.881 35.88 0 19.817 16.064 35.881 35.881 35.881z" clip-rule="evenodd" fill="#47B947" fill-rule="evenodd"/>
    </g>
    <defs>
        <clipPath id="a">
            <rect transform="translate(0 .40076)" width="250" height="250" fill="#fff"/>
        </clipPath>
    </defs>
</svg>
