<svg width="113" height="147" viewBox="0 0 113 147" fill="none" xmlns="http://www.w3.org/2000/svg">
<path fill-rule="evenodd" clip-rule="evenodd" d="M27.9947 96.8914L16.0682 90.0289L28.8625 82.6278L40.7889 89.4904L27.9947 96.8914V96.8914Z" fill="#D6D8E5" fill-opacity="0.4"/>
<path fill-rule="evenodd" clip-rule="evenodd" d="M29.331 81.4817L16.5402 74.0771L29.331 66.6726L42.1253 74.0771L29.331 81.4817Z" fill="#EFDA86"/>
<path fill-rule="evenodd" clip-rule="evenodd" d="M41.2608 89.2108L29.3309 96.1147V82.3067L41.2608 75.4062V89.2108V89.2108Z" fill="#D1B66B"/>
<path fill-rule="evenodd" clip-rule="evenodd" d="M29.3311 96.1147L17.4047 89.2108V75.4062L29.3311 82.3067V96.1147V96.1147Z" fill="#E2C979"/>
<path fill-rule="evenodd" clip-rule="evenodd" d="M17.4047 75.4062V79.017L29.3311 85.8416V82.324L17.4047 75.4062V75.4062Z" fill="black" fill-opacity="0.0941"/>
<path fill-rule="evenodd" clip-rule="evenodd" d="M41.2608 75.4062V79.2759L29.3309 85.8416V82.324L41.2608 75.4062V75.4062Z" fill="black" fill-opacity="0.0941"/>
<path fill-rule="evenodd" clip-rule="evenodd" d="M16.5402 74.0771V77.9054L29.331 85.2098V81.4817L16.5402 74.0771V74.0771Z" fill="#E2C979"/>
<path fill-rule="evenodd" clip-rule="evenodd" d="M29.3309 85.2098L42.1252 78.2057V74.0771L29.3309 81.4817V85.2098V85.2098Z" fill="#D1B66B"/>
<path fill-rule="evenodd" clip-rule="evenodd" d="M76.0207 128.205L37.8892 106.195C37.2163 105.803 36.9869 104.939 37.3771 104.265C37.5117 104.032 37.7095 103.843 37.9478 103.719L42.7452 101.241C43.1706 101.023 43.6768 101.035 44.0918 101.272L83.5078 124.021C84.1808 124.408 84.4136 125.269 84.0272 125.943C83.8922 126.18 83.6914 126.372 83.4493 126.496L79.9674 128.294C78.7224 128.941 77.235 128.907 76.0207 128.205V128.205Z" fill="#D6D8E5" fill-opacity="0.4"/>
<path fill-rule="evenodd" clip-rule="evenodd" d="M78.3625 124.062L45.8654 105.256C43.1102 103.664 40.882 99.3872 40.882 95.7108V4.85763C40.8923 1.17089 43.1136 -0.513676 45.8654 1.08117L78.3625 19.8842C81.1177 21.479 83.3459 25.7526 83.3459 29.429V120.286C83.3459 123.965 81.1143 125.653 78.3625 124.062V124.062Z" fill="#B1B4C4"/>
<path fill-rule="evenodd" clip-rule="evenodd" d="M78.9203 125.698L81.4929 124.393L79.0236 120.151L78.9203 125.698V125.698Z" fill="#B1B4C4"/>
<path fill-rule="evenodd" clip-rule="evenodd" d="M40.3793 1.98558L42.7487 0.73941L42.27 4.24321L40.3793 1.98558V1.98558Z" fill="#B1B4C4"/>
<path fill-rule="evenodd" clip-rule="evenodd" d="M76.2892 125.098L43.7955 106.291C41.0404 104.7 38.8121 100.423 38.8121 96.7464V5.89671C38.8259 2.20651 41.0438 0.525404 43.7955 2.11677L76.2892 20.9233C79.0444 22.5181 81.2761 26.7917 81.2761 30.468V121.325C81.2761 125.001 79.0444 126.693 76.2892 125.098V125.098Z" fill="#616E84"/>
<path fill-rule="evenodd" clip-rule="evenodd" d="M80.9282 30.6993V121.553C80.9282 125.236 78.7 126.924 75.9448 125.332L63.2021 117.959L59.2382 115.663L43.4476 106.526C40.6924 104.931 38.4677 100.658 38.4677 96.9812V6.12802C38.4814 2.44471 40.6959 0.756695 43.4476 2.34806L75.9448 21.1546C78.7 22.7494 80.9282 27.0195 80.9282 30.6993V30.6993Z" fill="#20232D"/>
<path fill-rule="evenodd" clip-rule="evenodd" d="M78.583 29.7776V118.266C78.583 120.496 77.0229 121.401 75.1012 120.282L73.3792 119.281L67.4763 115.867L64.9381 114.397L64.0427 113.875L63.743 113.699L61.5561 112.439L55.202 108.766L52.5846 107.251L51.5239 106.636L45.187 102.97L44.3226 102.47C42.394 101.355 40.8373 98.6451 40.8373 96.4116V7.91614C40.8373 5.68613 42.394 4.78173 44.3226 5.89673L56.9825 13.2529V13.2874C57.0855 15.203 58.0936 16.9546 59.6964 18.0029C61.1979 18.8659 62.4136 18.1651 62.4136 16.4322C62.4136 16.4322 62.4136 16.4046 62.4136 16.3942L75.1046 23.7367C77.0229 24.8378 78.583 27.5477 78.583 29.7776V29.7776Z" fill="white"/>
<path fill-rule="evenodd" clip-rule="evenodd" d="M60.7826 15.4542C61.1852 16.1562 61.1841 16.9131 60.7801 17.1447C60.3761 17.3764 59.7222 16.9952 59.3196 16.2932C58.9171 15.5912 58.9182 14.8343 59.3222 14.6026C59.7262 14.3709 60.38 14.7522 60.7826 15.4542V15.4542Z" fill="#2B303F"/>
<path fill-rule="evenodd" clip-rule="evenodd" d="M59.6962 16.3079C59.4418 16.1412 59.282 15.863 59.2657 15.5588C59.2657 15.2827 59.4586 15.1722 59.6962 15.3103C59.9528 15.4755 60.1144 15.7542 60.1302 16.0594C60.1302 16.3356 59.9373 16.446 59.6962 16.3079V16.3079Z" fill="white" fill-opacity="0.0941"/>
<path fill-rule="evenodd" clip-rule="evenodd" d="M82.2472 42.6536C81.982 42.8089 81.7684 42.6536 81.7684 42.3084V38.418C81.7729 38.0531 81.9506 37.712 82.2472 37.4998C82.5123 37.3444 82.7259 37.4998 82.7259 37.8622V41.7354C82.7214 42.1002 82.5437 42.4413 82.2472 42.6536V42.6536Z" fill="#757B89"/>
<path fill-rule="evenodd" clip-rule="evenodd" d="M82.2472 49.0018C81.982 49.1537 81.7684 49.0018 81.7684 48.6394V44.7628C81.7747 44.3982 81.952 44.0579 82.2472 43.8445C82.5123 43.6927 82.7259 43.8445 82.7259 44.2104V48.0836C82.7207 48.4485 82.543 48.7892 82.2472 49.0018V49.0018Z" fill="#757B89"/>
<path fill-rule="evenodd" clip-rule="evenodd" d="M71.4883 60.031L47.0363 45.8778C46.0031 45.2771 45.1559 43.665 45.1559 42.2739V14.6579C45.1559 13.2771 45.9962 12.6315 47.0363 13.2322L71.4883 27.3854C72.5215 27.986 73.3687 29.5981 73.3687 30.9858V58.6018C73.3687 59.993 72.5284 60.6316 71.4883 60.031V60.031Z" fill="#E9EAF2"/>
<path fill-rule="evenodd" clip-rule="evenodd" d="M71.4883 96.9847L47.0363 82.8315C46.0031 82.2308 45.1559 80.6187 45.1559 79.231V51.615C45.1559 50.2342 45.9962 49.5887 47.0363 50.1893L71.4883 64.3425C72.5215 64.9432 73.3687 66.5553 73.3687 67.9464V95.5624C73.3687 96.9467 72.5284 97.5853 71.4883 96.9847Z" fill="#E9EAF2"/>
<path fill-rule="evenodd" clip-rule="evenodd" d="M73.3724 104.89V119.281L64.9381 114.397L64.0427 113.875L63.743 113.699L61.5562 112.439L55.2021 108.766L52.5674 107.244L51.5067 106.63L45.1698 102.964V88.5687C45.1698 87.1879 46.0136 86.5458 47.0502 87.1464L71.5023 101.3C72.5286 101.89 73.3724 103.502 73.3724 104.89V104.89Z" fill="#E9EAF2"/>
<path fill-rule="evenodd" clip-rule="evenodd" d="M66.622 37.234L63.278 31.4243C63.1509 31.1932 62.9673 30.9983 62.7441 30.8581C62.7145 30.8404 62.6835 30.8254 62.6511 30.8133C62.6205 30.7901 62.5884 30.7693 62.5547 30.7511L61.6249 30.2126C61.37 30.0642 61.1324 30.0745 60.9946 30.2437C60.6984 30.5889 60.0303 30.5578 59.2933 30.1298C58.5511 29.6998 57.9577 29.0531 57.592 28.276C57.4666 27.9609 57.2448 27.6938 56.9583 27.5132L56.0456 26.9781C56.016 26.9593 55.985 26.9431 55.9526 26.9297C55.7839 26.772 55.5391 26.7275 55.3259 26.8158L51.9818 28.7524C51.6856 28.925 51.6856 29.4739 51.9818 29.9848L53.8105 33.1606C53.9321 33.389 54.1084 33.5835 54.3237 33.7268C54.4797 33.8381 54.6832 33.8579 54.8575 33.7785L55.2776 33.5334V41.3004C55.3152 41.8293 55.6 42.3095 56.0456 42.5949L62.5547 46.3921C62.9714 46.6338 63.3055 46.437 63.3055 45.9572V38.1902L63.7291 38.922C63.8548 39.1522 64.0374 39.3459 64.2595 39.4847C64.4155 39.5962 64.619 39.6159 64.7933 39.5364L66.622 38.4767C66.9148 38.2937 66.9148 37.7621 66.622 37.234V37.234Z" fill="#D9DAE2"/>
<path fill-rule="evenodd" clip-rule="evenodd" d="M65.2066 72.7171L53.3766 65.8717C53.0639 66.8887 52.8979 67.9454 52.8842 69.0096V76.4245L58.3049 79.5624L59.2933 73.8597L60.2783 80.705L65.6887 83.8429V76.4245C65.6626 75.1749 65.5007 73.9318 65.2066 72.7171V72.7171Z" fill="#1D1F28"/>
<path fill-rule="evenodd" clip-rule="evenodd" d="M65.2066 70.4353L53.3766 63.59V65.3022L65.2066 72.1475V70.4353Z" fill="#1D1F28"/>
<path fill-rule="evenodd" clip-rule="evenodd" d="M67.4694 115.867L64.938 114.397L64.0426 113.875L63.743 113.699L61.5561 112.439L55.202 108.766L52.5846 107.251V103.606C52.5846 103.243 52.836 103.095 53.1528 103.26C53.397 103.426 53.5778 103.669 53.666 103.951L53.7728 104.296C54.132 105.424 54.8693 106.392 55.8598 107.037C57.1237 107.769 58.1569 107.171 58.1569 105.704V105.263C58.1569 104.814 58.4738 104.624 58.8457 104.852C59.0292 104.965 59.1839 105.12 59.2969 105.304L60.3059 106.854L59.1694 107.493L59.7997 108.576L60.9913 107.886L61.5078 108.683L60.423 109.312L61.0464 110.399L62.1932 109.736L62.7098 110.534L61.6766 111.134L62.3 112.222L63.3986 111.587C64.0388 112.531 64.8708 113.33 65.8404 113.931L66.0401 114.041C66.7031 114.476 67.2052 115.118 67.4694 115.867V115.867Z" fill="#D9DAE2"/>
<path fill-rule="evenodd" clip-rule="evenodd" d="M75.4729 34.607L44.9423 17.0501V6.20738L75.4729 23.7608V34.607Z" fill="black" fill-opacity="0.0941"/>
<path fill-rule="evenodd" clip-rule="evenodd" d="M38.6537 16.125L34.8929 13.9467L45.0491 6.33165L48.8099 8.50639L38.6537 16.125Z" fill="#FF7B7B"/>
<path fill-rule="evenodd" clip-rule="evenodd" d="M42.4179 18.2997L38.6537 16.125L48.8099 8.50642L52.5707 10.6846L42.4179 18.2997V18.2997Z" fill="#F4F5F9"/>
<path fill-rule="evenodd" clip-rule="evenodd" d="M46.1786 20.4779L42.4178 18.2997L52.5706 10.6846L56.3314 12.8594L46.1786 20.4779V20.4779Z" fill="#FF7B7B"/>
<path fill-rule="evenodd" clip-rule="evenodd" d="M49.9396 22.6527L46.1788 20.478L56.3316 12.8594L60.0924 15.0376L49.9396 22.6527Z" fill="#F4F5F9"/>
<path fill-rule="evenodd" clip-rule="evenodd" d="M53.7004 24.8309L49.9396 22.6527L60.0923 15.0376L63.8531 17.2124L53.7004 24.8309V24.8309Z" fill="#FF7B7B"/>
<path fill-rule="evenodd" clip-rule="evenodd" d="M57.4611 27.0057L53.7003 24.8309L63.8531 17.2124L67.6139 19.3906L57.4611 27.0057Z" fill="#F4F5F9"/>
<path fill-rule="evenodd" clip-rule="evenodd" d="M61.2221 29.1839L57.4613 27.0057L67.6141 19.3906L71.3749 21.5654L61.2221 29.1839V29.1839Z" fill="#FF7B7B"/>
<path fill-rule="evenodd" clip-rule="evenodd" d="M64.9829 31.3587L61.222 29.1839L71.3749 21.5654L75.1391 23.7436L64.9829 31.3587V31.3587Z" fill="#F4F5F9"/>
<path fill-rule="evenodd" clip-rule="evenodd" d="M36.8009 17.1847C37.8341 17.7854 38.6813 17.2987 38.6813 16.0974L34.9205 13.9192C34.9932 15.2456 35.6913 16.4583 36.8009 17.1847V17.1847Z" fill="#E26161"/>
<path fill-rule="evenodd" clip-rule="evenodd" d="M40.5651 19.3595C41.5983 19.9636 42.4455 19.4734 42.4455 18.2721L38.6813 16.0974C38.7539 17.4238 39.4537 18.6357 40.5651 19.3595V19.3595Z" fill="#F4F5F9"/>
<path fill-rule="evenodd" clip-rule="evenodd" d="M44.3363 21.5377C45.3695 22.1384 46.2167 21.6517 46.2167 20.4503L42.4559 18.2721C42.5269 19.5991 43.2253 20.8124 44.3363 21.5377V21.5377Z" fill="#E26161"/>
<path fill-rule="evenodd" clip-rule="evenodd" d="M48.0869 23.7159C49.1201 24.3166 49.9672 23.8264 49.9672 22.6251L46.2064 20.4503C46.2784 21.777 46.9769 22.9898 48.0869 23.7159V23.7159Z" fill="#F4F5F9"/>
<path fill-rule="evenodd" clip-rule="evenodd" d="M51.8476 25.8907C52.8808 26.4913 53.728 26.0046 53.728 24.8033L49.9672 22.6251C50.0381 23.952 50.7369 25.1654 51.8476 25.8907V25.8907Z" fill="#E26161"/>
<path fill-rule="evenodd" clip-rule="evenodd" d="M55.6083 28.0689C56.6415 28.6696 57.4887 28.1828 57.4887 26.9781L53.7279 24.8033C53.7999 26.13 54.4984 27.3428 55.6083 28.0689Z" fill="#F4F5F9"/>
<path fill-rule="evenodd" clip-rule="evenodd" d="M59.369 30.2437C60.4022 30.8443 61.2495 30.3576 61.2495 29.1563L57.4886 26.9781C57.5562 28.306 58.2556 29.5207 59.369 30.2437V30.2437Z" fill="#E26161"/>
<path fill-rule="evenodd" clip-rule="evenodd" d="M63.1298 32.4219C64.163 33.0225 65.0102 32.5358 65.0102 31.3311L61.2494 29.1563C61.3214 30.4829 62.0198 31.6958 63.1298 32.4219Z" fill="#F4F5F9"/>
<path fill-rule="evenodd" clip-rule="evenodd" d="M36.8009 17.1847C37.8341 17.7854 38.6813 17.2987 38.6813 16.0974L34.9205 13.9192C34.9932 15.2456 35.6913 16.4583 36.8009 17.1847V17.1847Z" fill="#E26161"/>
<path fill-rule="evenodd" clip-rule="evenodd" d="M40.5651 19.3595C41.5983 19.9636 42.4455 19.4734 42.4455 18.2721L38.6813 16.0974C38.7539 17.4238 39.4537 18.6357 40.5651 19.3595V19.3595Z" fill="#B1B4C4"/>
<path fill-rule="evenodd" clip-rule="evenodd" d="M44.3363 21.5377C45.3695 22.1384 46.2167 21.6516 46.2167 20.4503L42.4559 18.2721C42.5269 19.5991 43.2253 20.8124 44.3363 21.5377V21.5377Z" fill="#E26161"/>
<path fill-rule="evenodd" clip-rule="evenodd" d="M48.0869 23.7159C49.1201 24.3166 49.9672 23.8264 49.9672 22.6251L46.2064 20.4503C46.2784 21.777 46.9769 22.9898 48.0869 23.7159V23.7159Z" fill="#B1B4C4"/>
<path fill-rule="evenodd" clip-rule="evenodd" d="M51.8476 25.8907C52.8808 26.4913 53.728 26.0046 53.728 24.8033L49.9672 22.6251C50.0381 23.952 50.7369 25.1654 51.8476 25.8907V25.8907Z" fill="#E26161"/>
<path fill-rule="evenodd" clip-rule="evenodd" d="M55.6083 28.0689C56.6415 28.6696 57.4887 28.1828 57.4887 26.9781L53.7279 24.8033C53.7999 26.13 54.4984 27.3428 55.6083 28.0689V28.0689Z" fill="#B1B4C4"/>
<path fill-rule="evenodd" clip-rule="evenodd" d="M59.369 30.2437C60.4022 30.8443 61.2495 30.3576 61.2495 29.1563L57.4886 26.9781C57.5562 28.3061 58.2556 29.5207 59.369 30.2437V30.2437Z" fill="#E26161"/>
<path fill-rule="evenodd" clip-rule="evenodd" d="M63.1298 32.4219C64.163 33.0225 65.0102 32.5358 65.0102 31.3311L61.2494 29.1563C61.3214 30.4829 62.0198 31.6958 63.1298 32.4219Z" fill="#B1B4C4"/>
<path fill-rule="evenodd" clip-rule="evenodd" d="M101.43 136.665L87.83 128.795L89.5347 127.804L103.138 135.671L101.43 136.665V136.665Z" fill="#D6D8E5" fill-opacity="0.4"/>
<path fill-rule="evenodd" clip-rule="evenodd" d="M106.686 133.697L93.0304 125.792L94.7386 110.182L104.981 116.109L106.686 133.697V133.697Z" fill="#C65555"/>
<path fill-rule="evenodd" clip-rule="evenodd" d="M103.138 135.671L89.4796 127.77L91.1878 112.16L101.43 118.087L103.138 135.671V135.671Z" fill="#FF6C6C"/>
<path fill-rule="evenodd" clip-rule="evenodd" d="M103.138 135.671L106.686 133.697L104.981 116.109L101.43 118.087L103.138 135.671V135.671Z" fill="#DD6262"/>
<path fill-rule="evenodd" clip-rule="evenodd" d="M91.1879 112.16L94.7386 110.182L94.3219 113.972L91.1879 112.16V112.16Z" fill="#C65555"/>
<path fill-rule="evenodd" clip-rule="evenodd" d="M98.8679 116.568L98.2376 116.202C98.2376 114.728 97.3732 113.03 96.309 112.405C95.2448 111.78 94.3839 112.488 94.3839 113.962L93.7501 113.596C93.7501 111.721 94.9004 110.858 96.309 111.673C97.7176 112.488 98.8679 114.693 98.8679 116.568V116.568Z" fill="#20232D"/>
<path fill-rule="evenodd" clip-rule="evenodd" d="M102.195 114.528L101.564 114.162C101.564 112.688 100.7 110.989 99.6359 110.365C98.5717 109.74 97.7107 110.447 97.7107 111.921L97.077 111.556C97.077 109.681 98.2272 108.818 99.6359 109.633C101.044 110.447 102.195 112.671 102.195 114.528V114.528Z" fill="#20232D"/>
<path fill-rule="evenodd" clip-rule="evenodd" d="M89.1971 146.649L69.601 135.316L72.0599 133.883L91.6561 145.219L89.1971 146.649V146.649Z" fill="#D6D8E5" fill-opacity="0.4"/>
<path fill-rule="evenodd" clip-rule="evenodd" d="M96.767 142.372L77.0951 130.987L79.5541 108.501L94.308 117.041L96.767 142.372V142.372Z" fill="#00B050"/>
<path fill-rule="evenodd" clip-rule="evenodd" d="M91.6561 145.219L71.9808 133.835L74.4398 111.348L89.1971 119.885L91.6561 145.219V145.219Z" fill="#1D1F28"/>
<path fill-rule="evenodd" clip-rule="evenodd" d="M91.6561 145.219L96.7669 142.372L94.3079 117.041L89.1971 119.885L91.6561 145.219V145.219Z" fill="#1D1F28"/>
<path fill-rule="evenodd" clip-rule="evenodd" d="M74.4398 111.348L79.5541 108.501L78.9548 113.962L74.4398 111.348V111.348Z" fill="#00B050"/>
<path fill-rule="evenodd" clip-rule="evenodd" d="M85.5052 117.7L84.5959 117.158C84.5959 115.035 83.3492 112.588 81.8202 111.704C80.291 110.82 79.0409 111.821 79.0409 113.944L78.1317 113.42C78.1317 110.717 79.7848 109.474 81.8202 110.658C83.8555 111.842 85.5052 114.997 85.5052 117.7V117.7Z" fill="#20232D"/>
<path fill-rule="evenodd" clip-rule="evenodd" d="M90.3026 114.762L89.3933 114.234C89.3933 112.111 88.1466 109.664 86.6176 108.777C85.0884 107.889 83.8383 108.897 83.8383 111.02L82.9291 110.496C82.9291 107.789 84.5856 106.55 86.6176 107.734C88.6495 108.918 90.3026 112.056 90.3026 114.762V114.762Z" fill="#20232D"/>
<path fill-rule="evenodd" clip-rule="evenodd" d="M7.99225 97.3436L0.629028 93.108L8.89795 88.3236L16.2577 92.5626L7.99225 97.3436V97.3436Z" fill="#D6D8E5" fill-opacity="0.4"/>
<path fill-rule="evenodd" clip-rule="evenodd" d="M9.18726 87.6194L1.29028 83.0489L9.18726 78.4785L17.0842 83.0489L9.18726 87.6194Z" fill="#EFDA86"/>
<path fill-rule="evenodd" clip-rule="evenodd" d="M16.5504 92.39L9.18726 96.6498V88.1268L16.5504 83.867V92.39V92.39Z" fill="#D1B66B"/>
<path fill-rule="evenodd" clip-rule="evenodd" d="M9.18726 96.6498L1.8241 92.39V83.867L9.18726 88.1268V96.6498V96.6498Z" fill="#E2C979"/>
<path fill-rule="evenodd" clip-rule="evenodd" d="M1.8241 83.867V86.097L9.18726 90.3085V88.1371L1.8241 83.867Z" fill="black" fill-opacity="0.0941"/>
<path fill-rule="evenodd" clip-rule="evenodd" d="M16.5504 83.867V86.2558L9.18726 90.3085V88.1371L16.5504 83.867Z" fill="black" fill-opacity="0.0941"/>
<path fill-rule="evenodd" clip-rule="evenodd" d="M1.29028 83.0489V85.4101L9.18726 89.9184V87.6194L1.29028 83.0489V83.0489Z" fill="#E2C979"/>
<path fill-rule="evenodd" clip-rule="evenodd" d="M9.18726 89.9184L17.0842 85.5965V83.0489L9.18726 87.6194V89.9184Z" fill="#D1B66B"/>
<path fill-rule="evenodd" clip-rule="evenodd" d="M104.347 146.265L97.7003 142.444L105.181 138.115L111.827 141.94L104.347 146.265V146.265Z" fill="#D6D8E5" fill-opacity="0.4"/>
<path fill-rule="evenodd" clip-rule="evenodd" d="M105.442 137.477L98.3134 133.351L105.442 129.226L112.571 133.351L105.442 137.477Z" fill="#EFDA86"/>
<path fill-rule="evenodd" clip-rule="evenodd" d="M112.089 141.785L105.442 145.63V137.936L112.089 134.09V141.785Z" fill="#D1B66B"/>
<path fill-rule="evenodd" clip-rule="evenodd" d="M105.442 145.63L98.7955 141.785V134.09L105.442 137.936V145.63Z" fill="#E2C979"/>
<path fill-rule="evenodd" clip-rule="evenodd" d="M98.7955 134.09V136.103L105.442 139.907V137.946L98.7955 134.09V134.09Z" fill="black" fill-opacity="0.0941"/>
<path fill-rule="evenodd" clip-rule="evenodd" d="M112.089 134.09V136.248L105.442 139.907V137.946L112.089 134.09Z" fill="black" fill-opacity="0.0941"/>
<path fill-rule="evenodd" clip-rule="evenodd" d="M98.3134 133.351V135.485L105.442 139.555V137.477L98.3134 133.351V133.351Z" fill="#E2C979"/>
<path fill-rule="evenodd" clip-rule="evenodd" d="M105.442 139.555L112.571 135.651V133.351L105.442 137.477V139.555Z" fill="#D1B66B"/>
<path fill-rule="evenodd" clip-rule="evenodd" d="M25.8664 108.708L11.7152 100.523L13.4922 99.4908L27.6434 107.675L25.8664 108.708V108.708Z" fill="#D6D8E5" fill-opacity="0.4"/>
<path fill-rule="evenodd" clip-rule="evenodd" d="M31.3354 105.618L17.1256 97.3954L18.9027 81.1572L29.5583 87.3259L31.3354 105.618V105.618Z" fill="#C65555"/>
<path fill-rule="evenodd" clip-rule="evenodd" d="M27.6434 107.675L13.4337 99.4528L15.2108 83.2146L25.8664 89.3799L27.6434 107.675V107.675Z" fill="#FF6C6C"/>
<path fill-rule="evenodd" clip-rule="evenodd" d="M27.6434 107.675L31.3353 105.618L29.5582 87.3259L25.8663 89.3799L27.6434 107.675V107.675Z" fill="#DD6262"/>
<path fill-rule="evenodd" clip-rule="evenodd" d="M15.2107 83.2146L18.9026 81.1572L18.4722 85.0994L15.2107 83.2146V83.2146Z" fill="#C65555"/>
<path fill-rule="evenodd" clip-rule="evenodd" d="M23.2007 87.8161L22.5464 87.4364C22.5464 85.9003 21.644 84.1328 20.5386 83.4942C19.433 82.8556 18.5341 83.5805 18.5341 85.1132L17.8763 84.7335C17.8763 82.7831 19.0714 81.8856 20.5386 82.7348C22.0057 83.584 23.2007 85.8485 23.2007 87.8161V87.8161Z" fill="#20232D"/>
<path fill-rule="evenodd" clip-rule="evenodd" d="M26.6653 85.6793L26.011 85.2996C26.011 83.7669 25.1086 81.996 24.0032 81.3574C22.8976 80.7188 21.9987 81.4437 21.9987 82.9764L21.3409 82.5967C21.3409 80.6463 22.536 79.7488 24.0032 80.598C25.4703 81.4472 26.6653 83.7255 26.6653 85.6793V85.6793Z" fill="#20232D"/>
<path fill-rule="evenodd" clip-rule="evenodd" d="M13.1409 105.722V105.494L12.9205 105.635L13.1409 105.722Z" fill="#B1B4C4"/>
<path fill-rule="evenodd" clip-rule="evenodd" d="M12.3625 106.288L12.0457 106.471C12.0251 106.471 12.0078 106.471 12.0078 106.443C12.0096 106.415 12.0237 106.39 12.0457 106.374L12.3625 106.191C12.3832 106.191 12.397 106.191 12.397 106.219C12.3981 106.246 12.3853 106.272 12.3625 106.288Z" fill="#757B89"/>
<path fill-rule="evenodd" clip-rule="evenodd" d="M11.877 106.571L11.5601 106.754C11.5394 106.754 11.5222 106.754 11.5222 106.726C11.5226 106.698 11.5367 106.672 11.5601 106.657L11.877 106.471C11.8976 106.471 11.9114 106.471 11.9114 106.498C11.9114 106.527 11.8987 106.553 11.877 106.571V106.571Z" fill="#757B89"/>
<path fill-rule="evenodd" clip-rule="evenodd" d="M11.5463 104.669C11.5463 104.705 11.4939 104.734 11.4292 104.734C11.3646 104.734 11.3121 104.705 11.3121 104.669C11.3121 104.633 11.3646 104.603 11.4292 104.603C11.4939 104.603 11.5463 104.633 11.5463 104.669Z" fill="#2B303F"/>
<path fill-rule="evenodd" clip-rule="evenodd" d="M11.3948 104.689C11.3741 104.689 11.3741 104.662 11.3948 104.652C11.4158 104.638 11.4426 104.638 11.4636 104.652C11.474 104.656 11.4788 104.668 11.4744 104.679C11.4723 104.684 11.4685 104.687 11.4636 104.689C11.442 104.7 11.4165 104.7 11.3948 104.689V104.689Z" fill="white" fill-opacity="0.0941"/>
</svg>
