<svg width="95" height="151" viewBox="0 0 95 151" fill="none" xmlns="http://www.w3.org/2000/svg">
<path fill-rule="evenodd" clip-rule="evenodd" d="M5.80602 131.925C5.80602 132.465 5.05041 132.902 4.11835 132.902C3.18627 132.902 2.43066 132.465 2.43066 131.925C2.43066 131.386 3.18627 130.949 4.11835 130.949C5.05042 130.949 5.80602 131.386 5.80602 131.925Z" fill="#D6D8E5" fill-opacity="0.4"/>
<path fill-rule="evenodd" clip-rule="evenodd" d="M37.4141 149.991C37.4141 150.53 36.6584 150.967 35.7264 150.967C34.7943 150.967 34.0387 150.53 34.0387 149.991C34.0387 149.451 34.7943 149.014 35.7264 149.014C36.6584 149.014 37.4141 149.451 37.4141 149.991Z" fill="#D6D8E5" fill-opacity="0.4"/>
<path fill-rule="evenodd" clip-rule="evenodd" d="M92.2015 116.502C92.2015 117.042 91.4459 117.479 90.5139 117.479C89.5818 117.479 88.8262 117.042 88.8262 116.502C88.8262 115.963 89.5818 115.526 90.5139 115.526C91.4459 115.526 92.2015 115.963 92.2015 116.502Z" fill="#D6D8E5" fill-opacity="0.4"/>
<path fill-rule="evenodd" clip-rule="evenodd" d="M3.01941 98.8439V131.729C3.03479 131.936 3.15941 132.118 3.34649 132.207C3.86749 132.473 4.48372 132.473 5.00472 132.207C5.19115 132.118 5.31577 131.935 5.3318 131.729V98.8439H3.01941Z" fill="#C1C4D3"/>
<path fill-rule="evenodd" clip-rule="evenodd" d="M34.7026 111.641V149.807C34.7141 150.008 34.8259 150.189 35.0003 150.289C35.448 150.554 36.0047 150.554 36.4525 150.289C36.6274 150.189 36.7406 150.008 36.7534 149.807V111.641H34.7026Z" fill="#C1C4D3"/>
<path fill-rule="evenodd" clip-rule="evenodd" d="M89.4868 85.132V116.253C89.4986 116.454 89.6124 116.635 89.7878 116.732C90.2342 116.997 90.7902 116.997 91.2366 116.732C91.4119 116.635 91.5258 116.454 91.5376 116.253V85.132H89.4868Z" fill="#C1C4D3"/>
<path fill-rule="evenodd" clip-rule="evenodd" d="M35.7264 121.436L0.971924 101.325V98.975L35.7264 119.089V121.436V121.436Z" fill="#B1B4C4"/>
<path fill-rule="evenodd" clip-rule="evenodd" d="M94.3243 85.2501L35.7199 119.161L0.962158 99.0504L59.5666 65.1395L94.3243 85.2501V85.2501Z" fill="#D6D8E5"/>
<path fill-rule="evenodd" clip-rule="evenodd" d="M94.3308 87.525L35.7264 121.436V119.089L94.3308 85.1779V87.525V87.525Z" fill="#9EA1AF"/>
<path fill-rule="evenodd" clip-rule="evenodd" d="M77.6044 78.4843L68.2601 86.3285L59.7235 82.9226L69.0679 75.0784L77.6044 78.4843Z" fill="#F4F4F4"/>
<path fill-rule="evenodd" clip-rule="evenodd" d="M75.436 78.8481L63.7956 85.5844L56.4659 81.3427L68.1064 74.6064L75.436 78.8481V78.8481Z" fill="#F4F4F4"/>
<path fill-rule="evenodd" clip-rule="evenodd" d="M64.5739 83.7651L63.8609 84.1781L59.0269 81.382L59.7399 80.969L64.5739 83.7651V83.7651Z" fill="#D6D8E5"/>
<path fill-rule="evenodd" clip-rule="evenodd" d="M66.1766 82.8374L65.4636 83.2505L60.6328 80.4543L61.3458 80.0413L66.1766 82.8374Z" fill="#D6D8E5"/>
<path fill-rule="evenodd" clip-rule="evenodd" d="M67.7204 81.9458L67.0073 82.3555L62.1765 79.5627L62.8895 79.1497L67.7204 81.9458V81.9458Z" fill="#D6D8E5"/>
<path fill-rule="evenodd" clip-rule="evenodd" d="M71.3443 79.8479L70.6313 80.2609L67.8185 78.635L68.5315 78.222L71.3443 79.8479Z" fill="#D6D8E5"/>
<path fill-rule="evenodd" clip-rule="evenodd" d="M72.8881 78.9563L72.1751 79.366L69.3623 77.7401L70.0753 77.3271L72.8881 78.9563V78.9563Z" fill="#D6D8E5"/>
<path fill-rule="evenodd" clip-rule="evenodd" d="M65.1136 85.073C65.3066 84.9911 75.4359 78.8448 75.4359 78.8448L64.8552 84.9747L65.1136 85.073Z" fill="#D6D6D6"/>
<path fill-rule="evenodd" clip-rule="evenodd" d="M69.3067 93.0943C69.3067 93.9053 68.1704 94.5628 66.7686 94.5628C65.3669 94.5628 64.2306 93.9053 64.2306 93.0943C64.2306 92.2832 65.3669 91.6257 66.7686 91.6257C68.1704 91.6257 69.3067 92.2832 69.3067 93.0943Z" fill="black" fill-opacity="0.2"/>
<path fill-rule="evenodd" clip-rule="evenodd" d="M69.5553 92.8845V88.9673L64.489 89.0951V92.7009C64.3941 93.1336 64.6329 93.5893 65.2118 93.9236C66.3422 94.5005 67.6792 94.5005 68.8096 93.9236C69.2279 93.7387 69.5134 93.3408 69.5553 92.8845V92.8845Z" fill="#A6CE28"/>
<path fill-rule="evenodd" clip-rule="evenodd" d="M69.5553 88.9673C69.5553 89.7783 68.4189 90.4358 67.0172 90.4358C65.6154 90.4358 64.4791 89.7783 64.4791 88.9673C64.4791 88.1562 65.6154 87.4987 67.0172 87.4987C68.4189 87.4987 69.5553 88.1562 69.5553 88.9673Z" fill="#BCD64D"/>
<path fill-rule="evenodd" clip-rule="evenodd" d="M69.153 88.9673C69.153 89.2066 68.9567 89.459 68.61 89.6557C68.1695 89.8914 67.6799 90.0192 67.1808 90.0294H67.0139C66.4596 90.0412 65.9117 89.9114 65.4211 89.6524C65.0777 89.4557 64.8782 89.2033 64.8782 88.964C64.8782 88.7247 65.0777 88.4756 65.4211 88.2756C65.9117 88.0166 66.4596 87.8868 67.0139 87.8987H67.1775C67.6766 87.9088 68.1662 88.0367 68.6068 88.2724C68.9567 88.4789 69.153 88.728 69.153 88.9673V88.9673Z" fill="#28221C"/>
<path fill-rule="evenodd" clip-rule="evenodd" d="M69.1529 88.9673C69.1529 89.2066 68.9567 89.459 68.61 89.6557C67.7204 90.1516 66.6378 90.1516 65.7481 89.6557C65.4047 89.459 65.2052 89.2066 65.2052 88.9673C65.2052 88.728 65.4047 88.4789 65.7481 88.2789C66.6378 87.7829 67.7204 87.7829 68.61 88.2789C68.9567 88.4789 69.1529 88.728 69.1529 88.9673Z" fill="white" fill-opacity="0.0667"/>
<path fill-rule="evenodd" clip-rule="evenodd" d="M69.1856 90.7801L68.6459 90.4686L68.3843 90.6227L68.6459 90.7735V90.8718L69.1496 91.1636V91.2586C69.271 91.4324 69.3802 91.6143 69.4767 91.8028L69.4963 91.7864V93.0484C69.4963 93.3762 69.3034 93.268 69.2183 93.2189L68.6525 92.8911L68.3908 93.0451L68.6525 93.1959V93.2942L69.2183 93.622C69.2772 93.6565 69.3396 93.684 69.4047 93.704L69.3687 93.8646L69.6631 93.6974C69.79 93.5893 69.8541 93.4241 69.8332 93.2582V91.947C69.808 91.4789 69.5689 91.0485 69.1856 90.7801V90.7801Z" fill="#8DA01F"/>
<path fill-rule="evenodd" clip-rule="evenodd" d="M68.9501 93.7761L68.3843 93.4483V93.0451L68.9501 93.3729C69.0319 93.4188 69.2281 93.5303 69.2281 93.1992V91.888C69.2085 91.6621 69.0885 91.4576 68.901 91.3307L68.3875 91.0324V90.6292L68.9272 90.9407C69.3089 91.2042 69.5496 91.6277 69.5814 92.0912V93.4024C69.5748 93.7565 69.4113 94.0416 68.9501 93.7761V93.7761Z" fill="#99B524"/>
<path fill-rule="evenodd" clip-rule="evenodd" d="M19.2356 98.3784C19.2356 99.1895 18.0992 99.847 16.6975 99.847C15.2958 99.847 14.1594 99.1895 14.1594 98.3784C14.1594 97.5674 15.2958 96.9099 16.6975 96.9099C18.0992 96.9099 19.2356 97.5674 19.2356 98.3784V98.3784Z" fill="black" fill-opacity="0.2"/>
<path fill-rule="evenodd" clip-rule="evenodd" d="M19.4841 98.1686V94.2514L14.4177 94.3793V97.9851C14.3229 98.421 14.5649 98.8767 15.1406 99.2078C16.2709 99.7847 17.608 99.7847 18.7383 99.2078C19.1573 99.0232 19.4428 98.6253 19.4841 98.1686V98.1686Z" fill="#F7B03E"/>
<path fill-rule="evenodd" clip-rule="evenodd" d="M19.4841 94.2514C19.4841 95.0625 18.3478 95.72 16.946 95.72C15.5443 95.72 14.408 95.0625 14.408 94.2514C14.408 93.4404 15.5443 92.7829 16.946 92.7829C18.3478 92.7829 19.4841 93.4404 19.4841 94.2514Z" fill="#FCC068"/>
<path fill-rule="evenodd" clip-rule="evenodd" d="M19.0818 94.2514C19.0818 94.4907 18.8823 94.7398 18.5389 94.9398C18.0977 95.1735 17.6084 95.3017 17.1096 95.3135H16.9461C16.3917 95.3253 15.8438 95.1955 15.3532 94.9365C15.0065 94.7366 14.8103 94.4874 14.8103 94.2481C14.8103 94.0088 15.0065 93.7564 15.3532 93.5565C15.8442 93.2988 16.392 93.17 16.9461 93.1828H17.1096C17.6084 93.1923 18.098 93.3191 18.5389 93.5532C18.8823 93.7597 19.0818 94.0121 19.0818 94.2514V94.2514Z" fill="#28221C"/>
<path fill-rule="evenodd" clip-rule="evenodd" d="M19.0818 94.2514C19.0818 94.4907 18.8822 94.7399 18.5388 94.9398C17.6492 95.4358 16.5666 95.4358 15.677 94.9398C15.3499 94.7399 15.134 94.4907 15.134 94.2514C15.134 94.0121 15.3335 93.7597 15.677 93.5597C16.5666 93.0638 17.6492 93.0638 18.5388 93.5597C18.8822 93.7597 19.0818 94.0121 19.0818 94.2514Z" fill="white" fill-opacity="0.0667"/>
<path fill-rule="evenodd" clip-rule="evenodd" d="M19.1112 96.0642L18.5748 95.7528L18.3099 95.9035L18.5748 96.0576V96.156L19.0785 96.4477L19.0621 96.5427C19.1841 96.7158 19.2937 96.8978 19.3892 97.0869L19.4056 97.0705V98.3326C19.4056 98.6604 19.2126 98.5522 19.1308 98.503L18.565 98.1752L18.3 98.326L18.565 98.4801V98.5784L19.1308 98.9062C19.1884 98.9406 19.2499 98.9682 19.314 98.9882L19.2812 99.1488L19.5756 98.9816C19.7055 98.8737 19.7709 98.7066 19.749 98.5391V97.2279C19.7251 96.7627 19.4899 96.334 19.1112 96.0642V96.0642Z" fill="#C9883A"/>
<path fill-rule="evenodd" clip-rule="evenodd" d="M18.8791 99.0701L18.3099 98.7423V98.3358L18.8791 98.6636C18.9608 98.7128 19.1538 98.8242 19.1538 98.4931V97.1819C19.1316 96.9561 19.0122 96.7515 18.8267 96.6214L18.3099 96.3264V95.9199L18.8496 96.2477C19.2316 96.5109 19.4723 96.9348 19.5037 97.3983V98.7095C19.5037 99.0406 19.3402 99.3258 18.8791 99.0701V99.0701Z" fill="#E09C3B"/>
<path fill-rule="evenodd" clip-rule="evenodd" d="M53.7413 66.9227C53.7413 70.1054 51.1671 72.6854 47.9915 72.6854C44.8159 72.6854 42.2416 70.1054 42.2416 66.9227C42.2416 63.7401 44.8159 61.16 47.9915 61.16C51.1671 61.16 53.7413 63.7401 53.7413 66.9227Z" fill="#3D348B"/>
<path fill-rule="evenodd" clip-rule="evenodd" d="M47.9915 68.6568C45.81 68.6568 43.6971 68.1585 42.1958 67.2899C40.9431 66.5654 40.2334 65.6509 40.2334 64.7855C40.2334 63.9201 40.9529 63.0055 42.1958 62.2778C43.6971 61.4091 45.7936 60.9109 47.9915 60.9109C50.1894 60.9109 52.2827 61.4091 53.7872 62.2778C55.0399 63.0055 55.7496 63.9168 55.7496 64.7855C55.7496 65.6542 55.0333 66.5654 53.7872 67.2899C52.2957 68.1585 50.1698 68.6568 47.9915 68.6568Z" fill="#3D348B"/>
<path fill-rule="evenodd" clip-rule="evenodd" d="M47.9915 67.7619C45.1656 67.7619 42.4313 67.1063 40.4689 65.9885C38.8335 65.0477 37.9144 63.8644 37.9144 62.74C37.9144 61.6157 38.8433 60.4454 40.4689 59.4948C42.4149 58.3671 45.1525 57.7214 47.9915 57.7214C50.8304 57.7214 53.5517 58.377 55.5141 59.4948C57.1494 60.4323 58.0717 61.6157 58.0717 62.74C58.0717 63.8644 57.1396 65.0346 55.5141 65.9885C53.5549 67.1162 50.8173 67.7619 47.9915 67.7619Z" fill="#B7C0EE"/>
<path fill-rule="evenodd" clip-rule="evenodd" d="M47.9915 66.4769C45.1656 66.4769 42.4313 65.8213 40.4689 64.7035C38.8335 63.766 37.9144 62.5794 37.9144 61.4583C37.9144 60.3372 38.8433 59.1637 40.4689 58.2098C42.4149 57.0822 45.1525 56.4364 47.9915 56.4364C50.8304 56.4364 53.5517 57.092 55.5141 58.2098C57.1494 59.1506 58.0717 60.3339 58.0717 61.4583C58.0717 62.5827 57.1396 63.7529 55.5141 64.7035C53.5549 65.8312 50.8173 66.4769 47.9915 66.4769Z" fill="#3D348B"/>
<path fill-rule="evenodd" clip-rule="evenodd" d="M47.9915 65.2804C44.5442 65.2804 41.2081 64.4938 38.8335 63.1203C36.8548 61.9729 35.7198 60.5306 35.7198 59.1604C35.7198 57.7902 36.8548 56.3479 38.8335 55.2039C41.2081 53.8304 44.5442 53.0404 47.9915 53.0404C51.4388 53.0404 54.7717 53.8304 57.1495 55.2039C59.1282 56.3479 60.2632 57.7902 60.2632 59.1604C60.2632 60.5306 59.1282 61.9729 57.1495 63.1203C54.7749 64.4938 51.4356 65.2804 47.9915 65.2804Z" fill="#B7C0EE"/>
<path fill-rule="evenodd" clip-rule="evenodd" d="M47.9915 63.7136C44.5442 63.7136 41.2081 62.9269 38.8335 61.5534C36.8548 60.4094 35.7198 58.9638 35.7198 57.5936C35.7198 56.2234 36.8548 54.781 38.8335 53.637C41.2081 52.2635 44.5442 51.4768 47.9915 51.4768C51.4388 51.4768 54.7717 52.2635 57.1495 53.637C59.1282 54.781 60.2632 56.2266 60.2632 57.5968C60.2632 58.967 59.1282 60.4094 57.1495 61.5534C54.7749 62.9269 51.4356 63.7136 47.9915 63.7136Z" fill="#3D348B"/>
<path fill-rule="evenodd" clip-rule="evenodd" d="M47.9915 62.0975C44.034 62.0975 40.204 61.1961 37.4762 59.6161C35.2031 58.3048 33.9014 56.6462 33.9014 55.0728C33.9014 53.4993 35.2096 51.8439 37.4762 50.5262C40.2007 48.9495 44.034 48.048 47.9883 48.048C51.9426 48.048 55.7791 48.9495 58.5036 50.5294C60.7767 51.8406 62.0784 53.4993 62.0784 55.0728C62.0784 56.6462 60.7702 58.3016 58.5036 59.6161C55.7791 61.1961 51.9458 62.0975 47.9915 62.0975Z" fill="#B7C0EE"/>
<path fill-rule="evenodd" clip-rule="evenodd" d="M47.9915 60.3012C44.034 60.3012 40.204 59.3965 37.4762 57.8197C35.2031 56.5085 33.9014 54.8499 33.9014 53.2764C33.9014 51.703 35.2096 50.0443 37.4762 48.7298C40.2007 47.1531 44.034 46.2484 47.9883 46.2484C51.9426 46.2484 55.7791 47.1531 58.5036 48.7298C60.7767 50.041 62.0784 51.703 62.0784 53.2764C62.0784 54.8499 60.7702 56.5052 58.5036 57.8197C55.7791 59.4063 51.9458 60.3012 47.9915 60.3012Z" fill="#3D348B"/>
<path fill-rule="evenodd" clip-rule="evenodd" d="M63.8347 49.7952C63.8347 54.8588 56.7415 58.9637 47.9915 58.9637C39.2415 58.9637 32.1482 54.8588 32.1482 49.7952C32.1482 44.7315 39.2415 40.6266 47.9915 40.6266C56.7415 40.6266 63.8347 44.7315 63.8347 49.7952Z" fill="#FFDF57"/>
<path fill-rule="evenodd" clip-rule="evenodd" d="M42.5458 27.2032H43.9489V49.0642H42.5458V27.2032Z" fill="#D8AA44"/>
<path fill-rule="evenodd" clip-rule="evenodd" d="M52.1519 27.2032H53.555V49.0642H52.1519V27.2032Z" fill="#D8AA44"/>
<path fill-rule="evenodd" clip-rule="evenodd" d="M47.9523 28.6259L45.895 26.7377L43.37 28.4325L42.5458 27.2065L46.0323 24.9119L48.0308 26.7443L50.4249 24.8824L53.5549 27.2065L52.577 28.3308L50.4216 26.7082L47.9523 28.6259V28.6259Z" fill="#D8AA44"/>
<path fill-rule="evenodd" clip-rule="evenodd" d="M63.8119 50.2738C63.838 48.2152 64.1913 42.1378 69.0155 33.7625C74.7229 23.8531 68.7735 0.40229 47.949 0.40229C27.1244 0.40229 21.175 23.8531 26.8824 33.7625C31.0526 41.0036 31.9618 47.4285 32.1515 50.3656" fill="#FFDF57" fill-opacity="0.6863"/>
<path fill-rule="evenodd" clip-rule="evenodd" d="M36.966 109.933L36.0568 109.081C35.9413 108.914 35.8026 108.763 35.6447 108.635C35.5756 108.577 35.5024 108.525 35.4255 108.478L34.2481 107.691L32.9627 107.121C32.8838 107.084 32.8031 107.053 32.7206 107.026C32.5313 106.963 32.3344 106.925 32.1352 106.914L30.9119 106.514C30.8433 106.514 30.8825 106.639 30.9119 106.691L31.0297 106.741C31.1769 106.796 31.0526 106.777 31.2063 106.885L31.9095 107.065C32.3573 107.048 32.8005 107.162 33.1851 107.393L34.1172 107.862L35.0134 108.403C35.4072 108.62 35.7212 108.957 35.9096 109.366L36.3838 109.75C36.531 109.887 36.446 109.828 36.6651 109.861L36.7861 109.966C36.8744 109.989 37.0053 109.992 36.966 109.933V109.933Z" fill="black" fill-opacity="0.2"/>
<path fill-rule="evenodd" clip-rule="evenodd" d="M34.4083 108.13C34.4809 108.018 34.5784 107.924 34.6928 107.855C34.8593 107.753 35.0546 107.708 35.2488 107.727C35.4781 107.751 35.7005 107.82 35.903 107.93H35.9259L36.253 108.108C36.338 108.153 36.4165 108.206 36.495 108.258L36.6454 108.37C36.8711 108.55 36.8057 108.904 36.6062 109.186C36.4956 109.343 36.3684 109.489 36.2268 109.619C35.9737 109.839 35.6257 109.914 35.3045 109.819C35.1579 109.772 35.0163 109.711 34.8825 109.635C34.7589 109.563 34.6415 109.479 34.5326 109.386C34.2578 109.129 34.1718 108.727 34.3167 108.38C34.338 108.293 34.3687 108.21 34.4083 108.13V108.13ZM31.7099 106.491C31.8866 106.219 32.1875 106.013 32.4426 106.098L32.6061 106.16C32.6889 106.193 32.7697 106.23 32.8481 106.272L33.1458 106.426H33.1654C33.3525 106.525 33.5144 106.665 33.6397 106.836C33.7433 106.976 33.7868 107.152 33.7607 107.324C33.7411 107.451 33.692 107.571 33.6168 107.675C33.5556 107.749 33.4866 107.816 33.4107 107.875C33.1317 108.147 32.7298 108.251 32.3543 108.147C32.2228 108.105 32.0956 108.05 31.9749 107.983C31.8581 107.911 31.7486 107.827 31.6478 107.734C31.4336 107.534 31.3649 107.222 31.4745 106.95C31.5356 106.79 31.6148 106.637 31.7099 106.495V106.491Z" fill="black" fill-opacity="0.0941"/>
<path fill-rule="evenodd" clip-rule="evenodd" d="M31.3632 106.891L32.0631 106.826C32.5063 106.782 32.9528 106.871 33.3453 107.082L37.2079 109.025L37.4336 108.698L33.1098 106.786C32.8498 106.665 32.5688 106.594 32.2823 106.58L30.9086 106.501C30.8677 106.494 30.8288 106.521 30.8213 106.562C30.8177 106.584 30.8232 106.606 30.8366 106.623L30.8726 106.672C30.9878 106.825 31.1729 106.907 31.3632 106.891V106.891Z" fill="#2B303F"/>
<path fill-rule="evenodd" clip-rule="evenodd" d="M36.3609 109.697L36.0698 109.042C35.8821 108.633 35.5694 108.294 35.1769 108.075L31.6478 105.957L31.8473 105.652L35.5792 108.14C35.8271 108.298 36.0407 108.504 36.2072 108.747L37.0085 109.92C37.0478 109.979 36.9889 110.055 36.9104 110.042H36.8417C36.6333 110.017 36.4522 109.887 36.3609 109.697V109.697Z" fill="#2B303F"/>
<path fill-rule="evenodd" clip-rule="evenodd" d="M35.3143 107.593C35.5436 107.615 35.7657 107.683 35.9685 107.793H35.9881L36.3152 107.967C36.4002 108.016 36.4787 108.065 36.5572 108.117C36.6357 108.17 36.6586 108.193 36.7077 108.232C36.9301 108.409 36.8647 108.766 36.6684 109.045C36.5585 109.204 36.4303 109.35 36.2857 109.478C36.0355 109.701 35.6875 109.778 35.3667 109.681C35.2205 109.632 35.0792 109.569 34.9448 109.494C34.8195 109.424 34.7021 109.34 34.5948 109.245C34.3187 108.99 34.2324 108.588 34.3789 108.242C34.4034 108.15 34.4394 108.062 34.4868 107.98C34.5605 107.868 34.6576 107.774 34.7714 107.704C34.9356 107.61 35.1259 107.571 35.3143 107.593V107.593Z" fill="black" fill-opacity="0.2941"/>
<path fill-rule="evenodd" clip-rule="evenodd" d="M31.7427 105.583L31.5726 105.852C31.5432 105.885 31.5432 105.935 31.5726 105.967C31.6325 106.021 31.6488 106.108 31.6118 106.18L31.3306 106.77C31.1618 107.113 31.239 107.527 31.5203 107.786C31.7581 107.999 32.0393 108.156 32.3445 108.248C32.8076 108.39 33.3106 108.264 33.6528 107.921L33.9144 107.655C33.9723 107.599 34.0073 107.523 34.0125 107.442C34.0305 107.317 34.1463 107.229 34.2716 107.247C34.2952 107.251 34.318 107.258 34.3396 107.268L34.405 107.301L34.4704 107.34C34.5568 107.403 34.5764 107.524 34.5139 107.611C34.4966 107.635 34.4737 107.654 34.4475 107.668C34.374 107.707 34.3154 107.77 34.2807 107.845L34.1336 108.173C33.9429 108.601 34.056 109.104 34.4116 109.409C34.6615 109.63 34.9545 109.796 35.2718 109.897C35.6868 110.031 36.1414 109.918 36.4459 109.606L36.9365 109.088C37.0033 109.021 37.1011 108.996 37.1917 109.022C37.2401 109.039 37.294 109.023 37.3258 108.983L37.5253 108.707C37.5681 108.656 37.5681 108.582 37.5253 108.53C37.2129 108.219 36.8532 107.96 36.459 107.763L36.132 107.586C35.8899 107.454 35.6244 107.372 35.3503 107.344L35.1082 107.318C35.0543 107.32 35.0013 107.301 34.961 107.265C34.9372 107.231 34.9058 107.203 34.8695 107.183L34.6013 107.039L34.3331 106.891C34.2945 106.872 34.252 106.861 34.2088 106.859C34.1457 106.857 34.0868 106.827 34.0485 106.777L33.9177 106.6C33.7666 106.397 33.5707 106.232 33.3453 106.118L33.0477 105.96C32.6958 105.751 32.3108 105.604 31.9095 105.524C31.8473 105.511 31.7829 105.534 31.7427 105.583V105.583ZM34.4737 107.999C34.5473 107.888 34.6444 107.794 34.7583 107.724C34.9247 107.622 35.1203 107.578 35.3143 107.599C35.5435 107.622 35.7657 107.69 35.9684 107.799H35.988L36.3151 107.973C36.4002 108.022 36.4787 108.071 36.5572 108.124C36.6357 108.176 36.6585 108.199 36.7076 108.239C36.93 108.416 36.8646 108.773 36.6684 109.052C36.5585 109.211 36.4302 109.356 36.2857 109.484C36.0355 109.708 35.6875 109.785 35.3666 109.688C35.2204 109.639 35.0791 109.576 34.9447 109.501C34.8194 109.431 34.702 109.347 34.5947 109.252C34.3187 108.996 34.2323 108.595 34.3788 108.248C34.4001 108.162 34.4318 108.078 34.4737 107.999V107.999ZM31.7721 106.36C31.952 106.092 32.2496 105.885 32.508 105.97C32.5636 105.987 32.6183 106.007 32.6716 106.029C32.7533 106.062 32.8351 106.101 32.9136 106.141L33.2112 106.298H33.2308C33.4166 106.399 33.5782 106.539 33.7051 106.708C33.8085 106.849 33.8506 107.026 33.8228 107.2C33.8042 107.325 33.7548 107.445 33.6789 107.547C33.6188 107.623 33.5494 107.691 33.4729 107.75C33.1936 108.022 32.7919 108.126 32.4164 108.022C32.2856 107.98 32.1594 107.924 32.0403 107.855C31.9226 107.786 31.8127 107.703 31.7133 107.609C31.4993 107.408 31.4306 107.096 31.5399 106.823C31.6017 106.662 31.6796 106.508 31.7721 106.364V106.36Z" fill="#2B303F"/>
<path fill-rule="evenodd" clip-rule="evenodd" d="M33.4467 107.803C33.1683 108.076 32.7657 108.18 32.3902 108.075C32.261 108.036 32.1361 107.985 32.0174 107.921C31.899 107.852 31.7891 107.77 31.6903 107.675C31.4761 107.475 31.4074 107.163 31.517 106.891C31.5814 106.726 31.6635 106.567 31.7622 106.419C31.6717 106.557 31.5961 106.705 31.5366 106.859C31.4273 107.132 31.496 107.444 31.7099 107.645C31.8093 107.739 31.9192 107.822 32.037 107.891C32.156 107.96 32.2823 108.016 32.4131 108.058C32.7886 108.162 33.1902 108.058 33.4696 107.786C33.5454 107.727 33.6144 107.66 33.6756 107.586L33.6527 107.593C33.5932 107.671 33.5239 107.742 33.4467 107.803V107.803Z" fill="#1F232D"/>
<path fill-rule="evenodd" clip-rule="evenodd" d="M36.2432 109.54C35.9924 109.763 35.6444 109.838 35.3241 109.74C35.1776 109.694 35.036 109.632 34.9022 109.556C34.7786 109.484 34.6612 109.401 34.5522 109.307C34.2775 109.05 34.1915 108.649 34.3364 108.301C34.3622 108.211 34.3985 108.124 34.4443 108.042L34.4705 108.006C34.4257 108.087 34.3904 108.172 34.3658 108.262C34.2193 108.608 34.3057 109.01 34.5817 109.265C34.689 109.36 34.8064 109.444 34.9317 109.514C35.0661 109.589 35.2074 109.652 35.3536 109.701C35.6744 109.798 36.0224 109.721 36.2726 109.497C36.4054 109.378 36.5251 109.246 36.6292 109.101C36.5189 109.262 36.3891 109.41 36.2432 109.54V109.54Z" fill="#1F232D"/>
<path fill-rule="evenodd" clip-rule="evenodd" d="M33.7051 106.721C33.5781 106.552 33.4166 106.412 33.2308 106.311H33.2112L32.9136 106.154C32.8351 106.114 32.7533 106.075 32.6715 106.042C32.6182 106.02 32.5636 106 32.508 105.983C32.2496 105.898 31.9519 106.105 31.7721 106.373C31.6739 106.522 31.5919 106.68 31.5267 106.845C31.4175 107.119 31.4862 107.431 31.7001 107.632C31.7996 107.726 31.9094 107.809 32.0272 107.878C32.1462 107.947 32.2725 108.003 32.4033 108.045C32.7788 108.148 33.1804 108.045 33.4598 107.773C33.5363 107.714 33.6056 107.646 33.6658 107.57C33.7417 107.468 33.7911 107.348 33.8097 107.222C33.8441 107.048 33.8064 106.867 33.7051 106.721V106.721Z" fill="black" fill-opacity="0.2941"/>
<path fill-rule="evenodd" clip-rule="evenodd" d="M49.1314 88.1157L41.4604 83.676C41.3252 83.5943 41.1563 83.5943 41.0211 83.676L27.5715 91.4642L35.4588 96.0327L49.1314 88.1157Z" fill="#F4F4F4"/>
<path fill-rule="evenodd" clip-rule="evenodd" d="M33.4313 88.7665L35.4588 89.9458L39.0611 87.8581L37.0336 86.6855L33.4313 88.7665V88.7665Z" fill="black" fill-opacity="0.1451"/>
<path fill-rule="evenodd" clip-rule="evenodd" d="M27.5716 91.4642V91.6473C27.5696 91.9119 27.7088 92.1576 27.9365 92.2912L35.0871 96.4259C35.3142 96.5607 35.5967 96.5607 35.8237 96.4259L48.7596 88.9698C48.9996 88.8311 49.1429 88.5698 49.1314 88.292V88.109L35.4588 96.026L27.5716 91.4642Z" fill="#E5E5E5"/>
<path fill-rule="evenodd" clip-rule="evenodd" d="M35.6615 96.1412C35.9089 96.2391 36.1873 96.219 36.4184 96.087L49.2598 88.6309C49.4868 88.4999 49.643 88.2734 49.6856 88.0141L51.098 79.5819C51.1015 79.5345 51.1015 79.487 51.098 79.4396C51.0987 79.2043 51.0035 78.979 50.8344 78.816L37.4526 86.5635C37.2896 86.6639 37.1768 86.829 37.1417 87.0176L35.6615 96.1412Z" fill="#F4F4F4"/>
<path fill-rule="evenodd" clip-rule="evenodd" d="M35.4589 96.0327L35.5468 96.087L35.6617 96.1412L37.189 87.0176C37.2242 86.829 37.3371 86.6639 37.4999 86.5635L50.8481 78.816C50.7988 78.7599 50.7393 78.714 50.6724 78.6804L37.2634 86.4415C37.0978 86.5406 36.9823 86.7057 36.9457 86.8957L35.4589 96.0327Z" fill="#E5E5E5"/>
</svg>
