<?xml version="1.0" encoding="UTF-8"?>
<svg fill="none" viewBox="0 0 250 251" xmlns="http://www.w3.org/2000/svg">
    <g clip-path="url(#a)">
        <rect y="213.66" width="40" height="36.743" fill="#000"/>
        <rect x="69.667" y="177.54" width="40" height="72.857" fill="#000"/>
        <path d="m139.33 139.52h40v110.89h-40v-110.89z" fill="#000"/>
        <rect x="209" y="82.446" width="40" height="167.96" fill="#000"/>
        <path d="m237.96 11.14 7.91 49.827-9.876 1.5679-5.274-33.219-41.887 56.817-8.05-5.9341 42.005-56.976-30.972 4.0755-1.305-9.9145 47.449-6.2436z" clip-rule="evenodd" fill="#000" fill-rule="evenodd"/>
        <path d="m16.481 204.54-7.071-7.071 46.931-46.931 7.0711 7.071-46.931 46.931z" fill="#000"/>
        <path d="m149.31 111.06-21.716 7.53c0.951 3.193 1.464 6.574 1.469 10.075l25.889-8.977c-2.44-2.427-4.378-5.36-5.642-8.628z" clip-rule="evenodd" fill="#000" fill-rule="evenodd"/>
        <path d="m96.238 78.481h-11.993v9.2434c-1.8457 0.2471-3.6559 0.6067-5.4233 1.0715l-3.5345-8.533-11.08 4.5896 3.5336 8.5308c-1.5982 0.9309-3.1335 1.9579-4.598 3.0731l-6.5297-6.5297-8.4806 8.4806 6.5217 6.5216c-1.1194 1.464-2.1505 2.999-3.0854 4.598l-8.5105-3.525-4.5897 11.08 8.4931 3.518c-0.4696 1.773-0.8333 3.588-1.0837 5.44h-9.1912v11.993h9.175c0.2459 1.856 0.6053 3.675 1.0712 5.452l-8.4643 3.506 4.5896 11.081 8.4538-3.502c0.9353 1.608 1.9679 3.153 3.0898 4.626l-6.4694 6.47 8.4806 8.48 6.4613-6.461c1.4728 1.126 3.0175 2.163 4.6261 3.102l-3.4932 8.434 11.08 4.589 3.4894-8.424c1.7818 0.471 3.607 0.834 5.4684 1.083v9.123h11.993v-9.123c1.8615-0.249 3.6867-0.612 5.4684-1.083l3.49 8.424 11.08-4.589-3.493-8.434c1.608-0.939 3.153-1.976 4.626-3.102l6.461 6.461 8.481-8.48-6.47-6.47c1.122-1.473 2.155-3.018 3.09-4.626l8.454 3.502 4.59-11.081-8.465-3.506c0.466-1.777 0.826-3.596 1.071-5.452h9.175v-11.993h-9.191c-0.25-1.852-0.614-3.667-1.083-5.44l8.493-3.518-4.59-11.08-8.511 3.525c-0.934-1.599-1.965-3.134-3.085-4.598l6.522-6.5215-8.481-8.4806-6.53 6.5297c-1.464-1.1153-2.999-2.1423-4.598-3.0733l3.534-8.5307-11.08-4.5897-3.535 8.5331c-1.7674-0.4649-3.5776-0.8244-5.4234-1.0715v-9.2434zm-5.9967 80.939c15.09 0 27.323-12.233 27.323-27.323s-12.233-27.323-27.323-27.323-27.323 12.233-27.323 27.323 12.233 27.323 27.323 27.323z" clip-rule="evenodd" fill="#47B947" fill-rule="evenodd"/>
        <path d="m170.09 68.086-7.472 1.357 1.046 5.7588c-1.122 0.3628-2.209 0.7916-3.258 1.2812l-3.167-4.9163-6.384 4.1131 3.167 4.915c-0.891 0.7607-1.731 1.5743-2.517 2.4348l-4.807-3.3293-4.324 6.2431 4.801 3.3251c-0.532 1.0389-1.001 2.112-1.402 3.2136l-5.701-1.2333-1.606 7.4225 5.689 1.2308c-0.092 1.1573-0.113 2.3293-0.059 3.5113l-5.726 1.04 1.357 7.472 5.716-1.038c0.363 1.128 0.793 2.221 1.284 3.276l-4.877 3.142 4.113 6.384 4.871-3.139c0.765 0.897 1.583 1.742 2.448 2.533l-3.298 4.763 6.243 4.324 3.294-4.757c1.045 0.535 2.125 1.006 3.233 1.409l-1.222 5.65 7.423 1.605 1.221-5.643c1.163 0.092 2.341 0.112 3.529 0.056l1.032 5.684 7.472-1.357-1.032-5.684c1.132-0.366 2.228-0.799 3.284-1.293l3.128 4.853 6.383-4.113-3.13-4.859c0.896-0.767 1.741-1.588 2.531-2.456l4.757 3.294 4.324-6.243-4.763-3.298c0.532-1.045 1.001-2.124 1.402-3.232l5.663 1.225 1.605-7.422-5.67-1.227c0.089-1.16 0.107-2.334 0.051-3.518l5.716-1.0379-1.357-7.472-5.726 1.0399c-0.366-1.1252-0.798-2.2153-1.291-3.2665l4.893-3.1527-4.113-6.3839-4.903 3.1592c-0.764-0.8901-1.58-1.7298-2.443-2.5153l3.325-4.8009-6.243-4.324-3.329 4.8069c-1.038-0.5291-2.111-0.9953-3.212-1.3944l1.236-5.7146-7.422-1.6057-1.237 5.7162c-1.154-0.0897-2.322-0.1089-3.5-0.054l-1.046-5.7587zm5.422 51.104c9.401-1.708 15.638-10.713 13.931-20.114s-10.713-15.638-20.114-13.931-15.638 10.713-13.931 20.114c1.707 9.401 10.713 15.638 20.114 13.931z" clip-rule="evenodd" fill="#47B947" fill-rule="evenodd"/>
    </g>
    <defs>
        <clipPath id="a">
            <rect transform="translate(0 .40076)" width="250" height="250" fill="#fff"/>
        </clipPath>
    </defs>
</svg>
