<svg width="188" height="175" viewBox="0 0 188 175" fill="none" xmlns="http://www.w3.org/2000/svg">
<path fill-rule="evenodd" clip-rule="evenodd" d="M144.484 112.319L65.8266 66.9061C64.7232 66.2707 63.829 64.5622 63.829 63.1011V2.24397C63.829 0.775223 64.7232 0.0979613 65.8266 0.721985L144.484 46.1499C145.587 46.7853 146.481 48.4938 146.481 49.9549V110.797C146.481 112.281 145.587 112.958 144.484 112.319V112.319Z" fill="#B1B4C4"/>
<path fill-rule="evenodd" clip-rule="evenodd" d="M144.887 112.947L145.762 112.444L145.381 109.861L144.887 112.947V112.947Z" fill="#B1B4C4"/>
<path fill-rule="evenodd" clip-rule="evenodd" d="M63.6881 1.11011L64.5442 0.615433L65.777 1.31935C65.777 1.31935 64.4643 1.51721 64.4339 1.50961C64.4034 1.50198 63.6881 1.11011 63.6881 1.11011Z" fill="#B1B4C4"/>
<path fill-rule="evenodd" clip-rule="evenodd" d="M143.764 112.737L65.1037 67.3247C64.0003 66.6855 63.1061 64.977 63.1061 63.5197V2.66251C63.1061 1.19 64.0003 0.51648 65.1037 1.1405L143.764 46.5646C144.868 47.2001 145.762 48.9123 145.762 50.3696V111.227C145.762 112.696 144.868 113.373 143.764 112.737V112.737Z" fill="#E4E7F2"/>
<path fill-rule="evenodd" clip-rule="evenodd" d="M143.624 112.817L64.9667 67.4008C63.8633 66.7653 62.9691 65.0569 62.9691 63.5958V2.74244C62.9691 1.26989 63.8633 0.592586 64.9667 1.22044L143.624 46.6445C144.727 47.2799 145.621 48.9884 145.621 50.4495V111.307C145.621 112.775 144.727 113.453 143.624 112.817V112.817Z" fill="#D6D8E5"/>
<path fill-rule="evenodd" clip-rule="evenodd" d="M144.541 109.115L63.9659 62.5951L64.0078 2.98592C64.0078 2.37332 64.4377 2.12601 64.9667 2.43041L143.624 47.8469C144.189 48.2141 144.546 48.829 144.582 49.502L144.541 109.115Z" fill="white"/>
<path fill-rule="evenodd" clip-rule="evenodd" d="M144.533 109.069L63.9584 62.5532L64.0002 2.94026C64.0002 2.33146 64.4302 2.08413 64.9591 2.38855L143.616 47.8088C144.182 48.1772 144.538 48.7936 144.575 49.4678L144.533 109.069Z" fill="white"/>
<path fill-rule="evenodd" clip-rule="evenodd" d="M84.2961 148.173L5.63912 102.757C4.53566 102.121 4.67647 101.01 5.95116 100.272L58.6428 69.8512C59.9174 69.1168 61.8428 69.0369 62.9462 69.6724L141.603 115.085C142.707 115.724 142.57 116.835 141.295 117.57L88.6034 148.01C87.3401 148.729 85.4033 148.809 84.2961 148.173V148.173Z" fill="#D6D8E5" fill-opacity="0.4"/>
<path fill-rule="evenodd" clip-rule="evenodd" d="M86.0159 147.142L7.35891 101.726C6.25546 101.09 6.39242 99.9792 7.66711 99.241L60.3626 68.801C61.6334 68.0666 63.5626 67.9867 64.666 68.6222L143.323 114.054C144.426 114.693 144.289 115.804 143.015 116.539L90.3231 146.979C89.0485 147.698 87.1193 147.778 86.0159 147.142V147.142Z" fill="#B1B4C4"/>
<path fill-rule="evenodd" clip-rule="evenodd" d="M6.61316 100.698V99.2182L8.27972 99.9145L6.61316 100.698V100.698Z" fill="#B1B4C4"/>
<path fill-rule="evenodd" clip-rule="evenodd" d="M144.069 115.165V113.715L142.836 114.138L143.654 115.34L144.069 115.165V115.165Z" fill="#B1B4C4"/>
<path fill-rule="evenodd" clip-rule="evenodd" d="M86.0159 145.89L7.35891 100.478C6.25546 99.8423 6.39242 98.7274 7.66711 97.993L60.3626 67.5721C61.6334 66.8339 63.5626 66.754 64.666 67.3932L143.323 112.806C144.426 113.441 144.289 114.556 143.015 115.291L90.3231 145.711C89.0485 146.45 87.1193 146.53 86.0159 145.89V145.89Z" fill="#E4E7F2"/>
<path fill-rule="evenodd" clip-rule="evenodd" d="M86.0159 145.7L7.35891 100.284C6.25546 99.6482 6.39242 98.5371 7.66711 97.799L60.3626 67.378C61.6334 66.6436 63.5626 66.5637 64.666 67.1992L143.323 112.612C144.426 113.251 144.289 114.362 143.015 115.096L90.3231 145.536C89.0485 146.256 87.1193 146.336 86.0159 145.7V145.7Z" fill="#D6D8E5"/>
<path fill-rule="evenodd" clip-rule="evenodd" d="M58.9015 77.64L55.2372 75.5244C54.9405 75.3532 54.9785 75.0527 55.321 74.851L58.8178 72.8343C59.1762 72.6353 59.6081 72.6171 59.9821 72.7848L63.6463 74.9004C63.9431 75.0717 63.9088 75.3761 63.5626 75.5739L60.0658 77.5906C59.7078 77.7915 59.2755 77.8098 58.9015 77.64V77.64Z" fill="#2B303F"/>
<path fill-rule="evenodd" clip-rule="evenodd" d="M64.0877 80.6346L60.4235 78.519C60.1267 78.3478 60.1609 78.0434 60.5072 77.8455L64.004 75.8288C64.362 75.628 64.7943 75.6097 65.1683 75.7794L68.8288 77.895C69.1293 78.0662 69.0913 78.3668 68.745 78.5684L65.252 80.5851C64.8932 80.7841 64.4617 80.8023 64.0877 80.6346V80.6346Z" fill="#2B303F"/>
<path fill-rule="evenodd" clip-rule="evenodd" d="M69.331 83.6596L65.6515 81.5478C65.3548 81.3728 65.3928 81.0722 65.7353 80.8743L69.2321 78.8538C69.5909 78.6541 70.0231 78.6373 70.3964 78.8082L74.0606 80.9199C74.3574 81.095 74.3194 81.3956 73.9769 81.5934L70.4801 83.6139C70.1255 83.8083 69.7001 83.8255 69.331 83.6596V83.6596Z" fill="#2B303F"/>
<path fill-rule="evenodd" clip-rule="evenodd" d="M74.4564 86.6199L70.7922 84.5043C70.4954 84.333 70.5334 84.0324 70.8759 83.8308L74.3727 81.8141C74.7315 81.6151 75.163 81.5969 75.537 81.7647L79.2013 83.8803C79.498 84.0515 79.46 84.3559 79.1175 84.5537L75.6208 86.5704C75.2627 86.7713 74.8304 86.7896 74.4564 86.6199V86.6199Z" fill="#2B303F"/>
<path fill-rule="evenodd" clip-rule="evenodd" d="M79.6388 89.6144L75.9784 87.4988C75.6778 87.3276 75.7158 87.0232 76.0621 86.8253L79.5551 84.8086C79.9146 84.6077 80.348 84.5895 80.7232 84.7592L84.3836 86.8748C84.6842 87.046 84.6462 87.3466 84.2999 87.5482L80.8069 89.5649C80.447 89.7639 80.0143 89.7821 79.6388 89.6144V89.6144Z" fill="#2B303F"/>
<path fill-rule="evenodd" clip-rule="evenodd" d="M84.8249 92.6051L81.1607 90.4933C80.8639 90.3183 80.902 90.0177 81.2444 89.8199L84.7413 87.7994C85.1001 87.5997 85.5323 87.5829 85.9056 87.7537L89.5698 89.8655C89.8666 90.0405 89.8285 90.3411 89.4861 90.539L85.9893 92.5594C85.6305 92.7592 85.1982 92.7759 84.8249 92.6051V92.6051Z" fill="#2B303F"/>
<path fill-rule="evenodd" clip-rule="evenodd" d="M90.0036 95.5996L86.347 93.4688C86.0464 93.2976 86.0845 92.997 86.4308 92.7954L89.9237 90.7787C90.2837 90.5797 90.7163 90.5611 91.0919 90.7292L94.7523 92.8448C95.0529 93.0161 95.0148 93.3204 94.6686 93.5183L91.1756 95.535C90.8179 95.7435 90.3818 95.7674 90.0036 95.5996V95.5996Z" fill="#2B303F"/>
<path fill-rule="evenodd" clip-rule="evenodd" d="M95.1935 98.5942L91.5255 96.4786C91.2249 96.3074 91.263 96.003 91.6092 95.8051L95.1022 93.7884C95.4602 93.5875 95.8925 93.5693 96.2665 93.739L99.9307 95.8546C100.231 96.0258 100.193 96.3264 99.847 96.528L96.3502 98.5447C95.9937 98.7414 95.5657 98.7597 95.1935 98.5942V98.5942Z" fill="#2B303F"/>
<path fill-rule="evenodd" clip-rule="evenodd" d="M100.38 101.585L96.7155 99.4731C96.4188 99.2981 96.4568 98.9975 96.7992 98.7996L100.296 96.783C100.654 96.5802 101.087 96.5619 101.46 96.7335L105.125 98.8491C105.421 99.0204 105.383 99.3209 105.041 99.5188L101.544 101.539C101.185 101.739 100.753 101.756 100.38 101.585V101.585Z" fill="#2B303F"/>
<path fill-rule="evenodd" clip-rule="evenodd" d="M105.562 104.579L101.902 102.464C101.601 102.293 101.639 101.992 101.986 101.79L105.479 99.7737C105.838 99.574 106.272 99.5572 106.647 99.7281L110.307 101.84C110.608 102.015 110.57 102.315 110.223 102.513L106.73 104.53C106.371 104.731 105.937 104.749 105.562 104.579V104.579Z" fill="#2B303F"/>
<path fill-rule="evenodd" clip-rule="evenodd" d="M110.748 107.574L107.084 105.458C106.787 105.287 106.825 104.987 107.168 104.785L110.665 102.768C111.023 102.569 111.455 102.551 111.829 102.719L115.493 104.834C115.79 105.006 115.752 105.306 115.41 105.508L111.913 107.525C111.554 107.724 111.122 107.742 110.748 107.574V107.574Z" fill="#2B303F"/>
<path fill-rule="evenodd" clip-rule="evenodd" d="M115.931 110.565L112.27 108.453C111.97 108.278 112.008 107.977 112.354 107.779L115.847 105.763C116.207 105.562 116.64 105.544 117.015 105.713L120.676 107.829C120.976 108 120.938 108.301 120.592 108.499L117.099 110.519C116.739 110.719 116.305 110.736 115.931 110.565V110.565Z" fill="#2B303F"/>
<path fill-rule="evenodd" clip-rule="evenodd" d="M121.117 113.559L117.457 111.444C117.156 111.272 117.194 110.972 117.54 110.774L121.033 108.754C121.392 108.554 121.824 108.537 122.198 108.708L125.862 110.82C126.159 110.995 126.124 111.295 125.778 111.493L122.281 113.51C121.924 113.713 121.491 113.731 121.117 113.559V113.559Z" fill="#2B303F"/>
<path fill-rule="evenodd" clip-rule="evenodd" d="M128.815 117.996L122.654 114.438C122.358 114.267 122.392 113.966 122.738 113.765L126.235 111.748C126.594 111.549 127.025 111.531 127.399 111.699L133.559 115.256C133.856 115.427 133.818 115.728 133.476 115.93L129.979 117.946C129.62 118.145 129.189 118.164 128.815 117.996V117.996Z" fill="#2B303F"/>
<path fill-rule="evenodd" clip-rule="evenodd" d="M61.5689 84.9799L57.9046 82.8681C57.604 82.6931 57.6421 82.3925 57.9884 82.1946L61.4814 80.1742C61.8413 79.9744 62.2751 79.9577 62.6495 80.1285L66.3099 82.2403C66.6105 82.4153 66.5724 82.7159 66.2262 82.9138L62.7332 84.9342C62.3744 85.134 61.9421 85.1508 61.5689 84.9799V84.9799Z" fill="#2B303F"/>
<path fill-rule="evenodd" clip-rule="evenodd" d="M66.7589 87.9782L63.0985 85.8588C62.7979 85.6838 62.836 85.3832 63.1822 85.1853L66.6752 83.1649C67.0352 82.9651 67.4689 82.9484 67.8433 83.1192L71.5037 85.231C71.8043 85.406 71.7663 85.7066 71.42 85.9045L67.9347 87.9326C67.5724 88.135 67.1356 88.1517 66.7589 87.9782V87.9782Z" fill="#2B303F"/>
<path fill-rule="evenodd" clip-rule="evenodd" d="M71.9526 90.9766L68.2922 88.8648C67.9916 88.6898 68.0297 88.3892 68.3759 88.1913L71.8689 86.1747C72.2277 85.9719 72.6623 85.9536 73.037 86.1252L76.6974 88.2408C76.998 88.412 76.96 88.7126 76.6138 88.9104L73.1208 90.9309C72.7608 91.1307 72.327 91.1474 71.9526 90.9766V90.9766Z" fill="#2B303F"/>
<path fill-rule="evenodd" clip-rule="evenodd" d="M77.1465 93.9749L73.4861 91.8631C73.1855 91.6881 73.2235 91.3875 73.5698 91.1897L77.0628 89.173C77.4223 88.9721 77.8557 88.9538 78.2309 89.1235L81.8913 91.2391C82.1919 91.4103 82.1539 91.7109 81.8076 91.9088L78.3146 93.9293C77.9547 94.129 77.5209 94.1457 77.1465 93.9749V93.9749Z" fill="#2B303F"/>
<path fill-rule="evenodd" clip-rule="evenodd" d="M82.2985 96.9504L78.638 94.8348C78.3374 94.6636 78.3755 94.363 78.7218 94.1651L82.2147 92.1447C82.5747 91.9449 83.0085 91.9282 83.3829 92.099L87.0433 94.2108C87.3439 94.3858 87.3059 94.6864 86.9596 94.8843L83.4666 96.901C83.1078 97.1038 82.6733 97.122 82.2985 96.9504V96.9504Z" fill="#2B303F"/>
<path fill-rule="evenodd" clip-rule="evenodd" d="M87.4923 99.9374L83.8319 97.8256C83.5313 97.6506 83.5693 97.35 83.9156 97.1521L87.4086 95.1316C87.7685 94.9319 88.2023 94.9151 88.5767 95.086L92.2371 97.1978C92.5377 97.3728 92.4997 97.6734 92.1534 97.8712L88.6604 99.8917C88.3005 100.091 87.8667 100.108 87.4923 99.9374V99.9374Z" fill="#2B303F"/>
<path fill-rule="evenodd" clip-rule="evenodd" d="M92.6862 102.947L89.0257 100.835C88.7251 100.66 88.7632 100.36 89.1095 100.162L92.6024 98.1414C92.9624 97.9416 93.3962 97.9249 93.7706 98.0957L97.431 100.207C97.7316 100.383 97.6936 100.683 97.3473 100.881L93.8543 102.901C93.4943 103.101 93.0606 103.118 92.6862 102.947V102.947Z" fill="#2B303F"/>
<path fill-rule="evenodd" clip-rule="evenodd" d="M97.8799 105.945L94.2195 103.834C93.9189 103.659 93.9569 103.358 94.3032 103.16L97.7961 101.14C98.155 100.94 98.5873 100.923 98.9605 101.094L102.625 103.206C102.925 103.381 102.887 103.681 102.541 103.879L99.048 105.9C98.6881 106.1 98.2543 106.116 97.8799 105.945V105.945Z" fill="#2B303F"/>
<path fill-rule="evenodd" clip-rule="evenodd" d="M103.074 108.944L99.4133 106.832C99.1127 106.657 99.1508 106.356 99.497 106.159L102.99 104.138C103.349 103.938 103.781 103.922 104.154 104.092L107.819 106.208C108.115 106.379 108.081 106.68 107.735 106.878L104.238 108.898C103.879 109.098 103.447 109.115 103.074 108.944V108.944Z" fill="#2B303F"/>
<path fill-rule="evenodd" clip-rule="evenodd" d="M108.268 111.942L104.603 109.83C104.307 109.655 104.345 109.355 104.687 109.157L108.184 107.14C108.542 106.939 108.974 106.921 109.348 107.091L113.012 109.206C113.309 109.378 113.275 109.678 112.929 109.876L109.432 111.896C109.073 112.096 108.641 112.113 108.268 111.942V111.942Z" fill="#2B303F"/>
<path fill-rule="evenodd" clip-rule="evenodd" d="M113.461 114.94L109.789 112.829C109.493 112.654 109.531 112.353 109.873 112.155L113.37 110.139C113.728 109.938 114.16 109.919 114.534 110.089L118.199 112.205C118.495 112.376 118.457 112.676 118.115 112.874L114.618 114.895C114.262 115.092 113.832 115.109 113.461 114.94V114.94Z" fill="#2B303F"/>
<path fill-rule="evenodd" clip-rule="evenodd" d="M118.655 117.943L114.991 115.827C114.694 115.652 114.732 115.351 115.075 115.154L118.572 113.137C118.93 112.936 119.362 112.918 119.736 113.087L123.4 115.203C123.697 115.374 123.659 115.675 123.316 115.876L119.82 117.893C119.461 118.092 119.029 118.11 118.655 117.943V117.943Z" fill="#2B303F"/>
<path fill-rule="evenodd" clip-rule="evenodd" d="M56.375 81.9816L50.2147 78.4277C49.9141 78.2527 49.9522 77.9521 50.2984 77.7542L53.7914 75.7376C54.1502 75.5347 54.5848 75.5165 54.9595 75.6881L61.116 79.242C61.4166 79.417 61.3786 79.7176 61.0323 79.9154L57.5393 81.9359C57.1805 82.1356 56.7483 82.1524 56.375 81.9816V81.9816Z" fill="#2B303F"/>
<path fill-rule="evenodd" clip-rule="evenodd" d="M128.548 118.201L124.888 116.09C124.546 115.917 124.142 115.917 123.8 116.09L120.105 118.201C119.931 118.26 119.838 118.447 119.896 118.62C119.929 118.719 120.006 118.796 120.105 118.829L120.398 118.997C120.558 119.049 120.644 119.221 120.592 119.381C120.562 119.473 120.49 119.545 120.398 119.575L116.494 121.828C116.19 122.003 116.19 122.284 116.494 122.455L118.826 123.802C119.168 123.975 119.573 123.975 119.915 123.802L123.564 121.694L124.325 121.257L124.869 120.945L125.417 120.629L128.563 118.81C128.845 118.639 128.849 118.361 128.548 118.201V118.201Z" fill="#2B303F"/>
<path fill-rule="evenodd" clip-rule="evenodd" d="M38.8225 89.2567L35.1583 87.1411C34.8615 86.9699 34.8995 86.6693 35.242 86.4676L38.7388 84.451C39.0976 84.252 39.5291 84.2337 39.9031 84.4015L43.5673 86.5171C43.8641 86.6921 43.8261 86.9927 43.4836 87.1906L39.9868 89.2072C39.6288 89.4081 39.1965 89.4264 38.8225 89.2567V89.2567Z" fill="#2B303F"/>
<path fill-rule="evenodd" clip-rule="evenodd" d="M43.9898 92.2436L40.3293 90.1281C40.0287 89.953 40.0668 89.6524 40.413 89.4546L43.906 87.4379C44.2656 87.237 44.699 87.2188 45.0742 87.3885L48.7345 89.504C49.0352 89.6752 48.9971 89.9759 48.6509 90.1775L45.1579 92.1942C44.7979 92.3932 44.3653 92.4114 43.9898 92.2436V92.2436Z" fill="#2B303F"/>
<path fill-rule="evenodd" clip-rule="evenodd" d="M49.1607 95.2267L45.4851 93.1112C45.1845 92.9399 45.2226 92.6394 45.5688 92.4377L49.0618 90.4211C49.4206 90.222 49.8521 90.2038 50.2261 90.3716L53.8903 92.4872C54.1909 92.6584 54.1529 92.9628 53.8066 93.1607L50.3136 95.1773C49.9582 95.3733 49.5317 95.3915 49.1607 95.2267V95.2267Z" fill="#2B303F"/>
<path fill-rule="evenodd" clip-rule="evenodd" d="M93.1884 120.644L89.5241 118.532C89.2274 118.357 89.2654 118.057 89.6078 117.859L93.1046 115.842C93.4623 115.639 93.8953 115.621 94.2689 115.793L97.9332 117.908C98.2299 118.08 98.1957 118.38 97.8495 118.578L94.3527 120.598C93.9938 120.798 93.5616 120.815 93.1884 120.644V120.644Z" fill="#2B303F"/>
<path fill-rule="evenodd" clip-rule="evenodd" d="M98.3746 123.631L94.7104 121.515C94.4136 121.344 94.4517 121.044 94.7941 120.842L98.2909 118.825C98.6497 118.626 99.0812 118.608 99.4552 118.776L103.119 120.892C103.416 121.063 103.378 121.367 103.036 121.565L99.539 123.582C99.1809 123.783 98.7487 123.801 98.3746 123.631V123.631Z" fill="#2B303F"/>
<path fill-rule="evenodd" clip-rule="evenodd" d="M103.526 126.614L99.8661 124.502C99.5655 124.327 99.6035 124.027 99.9498 123.829L103.443 121.808C103.803 121.609 104.236 121.592 104.611 121.763L108.271 123.875C108.572 124.05 108.534 124.35 108.188 124.548L104.695 126.572C104.334 126.771 103.901 126.786 103.526 126.614V126.614Z" fill="#2B303F"/>
<path fill-rule="evenodd" clip-rule="evenodd" d="M108.698 129.616L105.037 127.501C104.736 127.33 104.775 127.029 105.121 126.827L108.614 124.811C108.973 124.612 109.404 124.593 109.778 124.761L113.442 126.877C113.743 127.048 113.705 127.349 113.359 127.55L109.866 129.567C109.506 129.766 109.073 129.784 108.698 129.616V129.616Z" fill="#2B303F"/>
<path fill-rule="evenodd" clip-rule="evenodd" d="M55.6634 98.9785L50.6674 96.0981C50.3707 95.9231 50.4087 95.6225 50.7512 95.4246L54.248 93.408C54.6056 93.2052 55.0386 93.1869 55.4123 93.3585L60.4082 96.2427C60.705 96.4139 60.667 96.7145 60.3245 96.9124L56.8277 98.9328C56.4689 99.1326 56.0367 99.1493 55.6634 98.9785V98.9785Z" fill="#2B303F"/>
<path fill-rule="evenodd" clip-rule="evenodd" d="M88.0174 117.661L83.0253 114.777C82.7246 114.606 82.7627 114.305 83.109 114.103L86.602 112.087C86.9619 111.888 87.3946 111.869 87.7701 112.037L92.7623 114.921C93.0629 115.093 93.0248 115.397 92.6785 115.595L89.1856 117.612C88.826 117.812 88.3926 117.831 88.0174 117.661V117.661Z" fill="#2B303F"/>
<path fill-rule="evenodd" clip-rule="evenodd" d="M81.5184 113.905L57.1664 99.8498C56.8696 99.6786 56.9039 99.378 57.2501 99.1763L60.7469 97.1597C61.1057 96.9607 61.5372 96.9424 61.9112 97.1102L86.2632 111.17C86.5638 111.341 86.5258 111.642 86.1796 111.839L82.6865 113.86C82.327 114.061 81.8928 114.078 81.5184 113.905V113.905Z" fill="#2B303F"/>
<path fill-rule="evenodd" clip-rule="evenodd" d="M57.954 88.6974L54.2898 86.5818C53.993 86.4106 54.0273 86.11 54.3735 85.9083L57.8703 83.8917C58.2291 83.6927 58.6606 83.6744 59.0347 83.8422L62.6951 85.9578C62.9957 86.129 62.9576 86.4334 62.6113 86.6313L59.1184 88.6479C58.7603 88.8488 58.328 88.8671 57.954 88.6974V88.6974Z" fill="#2B303F"/>
<path fill-rule="evenodd" clip-rule="evenodd" d="M63.1326 91.6881L59.4684 89.5725C59.1716 89.4013 59.2059 89.0969 59.5521 88.8991L63.0489 86.8824C63.407 86.6815 63.8392 86.6632 64.2132 86.8329L67.8737 88.9485C68.1743 89.1197 68.1362 89.4203 67.7899 89.622L64.297 91.6387C63.9382 91.8376 63.5066 91.8559 63.1326 91.6881V91.6881Z" fill="#2B303F"/>
<path fill-rule="evenodd" clip-rule="evenodd" d="M68.3151 94.675L64.6509 92.5633C64.3541 92.3882 64.3884 92.0876 64.7346 91.8898L68.2314 89.8731C68.5895 89.6722 69.0217 89.654 69.3957 89.8237L73.06 91.9392C73.3568 92.1105 73.3187 92.411 72.9762 92.6127L69.4795 94.6294C69.1207 94.8291 68.6884 94.8459 68.3151 94.675V94.675Z" fill="#2B303F"/>
<path fill-rule="evenodd" clip-rule="evenodd" d="M73.4899 97.6543L69.8371 95.554C69.5403 95.379 69.5784 95.0783 69.9209 94.8805L73.4177 92.86C73.7764 92.6603 74.2087 92.6435 74.582 92.8144L78.2462 94.9262C78.543 95.1012 78.5049 95.4018 78.1625 95.5996L74.6657 97.6201C74.3019 97.8199 73.8647 97.8328 73.4899 97.6543V97.6543Z" fill="#2B303F"/>
<path fill-rule="evenodd" clip-rule="evenodd" d="M78.6686 100.657L75.0043 98.5409C74.7076 98.3697 74.7456 98.0691 75.0881 97.8712L78.5849 95.8508C78.9437 95.651 79.3759 95.6343 79.7492 95.8051L83.4134 97.9169C83.7102 98.0919 83.6722 98.3925 83.3297 98.5904L79.8329 100.607C79.4749 100.808 79.0426 100.826 78.6686 100.657V100.657Z" fill="#2B303F"/>
<path fill-rule="evenodd" clip-rule="evenodd" d="M83.847 103.647L80.1828 101.532C79.886 101.36 79.9241 101.06 80.2666 100.858L83.7634 98.8415C84.1222 98.6425 84.5536 98.6243 84.9277 98.792L88.5919 100.908C88.8887 101.079 88.8506 101.383 88.5082 101.581L85.0114 103.598C84.6533 103.799 84.2211 103.817 83.847 103.647V103.647Z" fill="#2B303F"/>
<path fill-rule="evenodd" clip-rule="evenodd" d="M89.0258 106.638L85.3615 104.522C85.0648 104.351 85.1028 104.047 85.4452 103.849L88.942 101.832C89.3001 101.631 89.7323 101.613 90.1064 101.783L93.7706 103.898C94.0673 104.07 94.0293 104.37 93.6869 104.572L90.1901 106.589C89.8316 106.787 89.3998 106.806 89.0258 106.638Z" fill="#2B303F"/>
<path fill-rule="evenodd" clip-rule="evenodd" d="M94.1891 109.629L90.5249 107.513C90.2281 107.338 90.2661 107.037 90.6086 106.84L94.1054 104.823C94.4634 104.622 94.8957 104.604 95.2697 104.773L98.9339 106.889C99.2307 107.06 99.1965 107.361 98.8502 107.563L95.3534 109.579C94.9946 109.778 94.5631 109.796 94.1891 109.629V109.629Z" fill="#2B303F"/>
<path fill-rule="evenodd" clip-rule="evenodd" d="M99.3828 112.616L95.711 110.504C95.4104 110.329 95.4485 110.028 95.7948 109.83L99.2877 107.81C99.6466 107.61 100.079 107.593 100.452 107.764L104.116 109.876C104.413 110.051 104.379 110.352 104.033 110.549L100.536 112.57C100.18 112.766 99.7531 112.783 99.3828 112.616V112.616Z" fill="#2B303F"/>
<path fill-rule="evenodd" clip-rule="evenodd" d="M104.562 115.606L100.901 113.491C100.6 113.32 100.639 113.019 100.985 112.821L104.478 110.801C104.837 110.601 105.269 110.584 105.642 110.755L109.306 112.867C109.607 113.042 109.569 113.342 109.223 113.54L105.73 115.557C105.371 115.76 104.936 115.778 104.562 115.606V115.606Z" fill="#2B303F"/>
<path fill-rule="evenodd" clip-rule="evenodd" d="M109.74 118.582L106.08 116.466C105.779 116.295 105.817 115.994 106.163 115.793L109.656 113.776C110.016 113.577 110.449 113.558 110.825 113.727L114.485 115.842C114.786 116.013 114.748 116.318 114.401 116.516L110.908 118.532C110.549 118.733 110.115 118.752 109.74 118.582V118.582Z" fill="#2B303F"/>
<path fill-rule="evenodd" clip-rule="evenodd" d="M114.919 121.588L111.258 119.472C110.958 119.301 110.996 119 111.342 118.799L114.835 116.782C115.195 116.583 115.628 116.564 116.003 116.733L119.683 118.848C119.983 119.019 119.945 119.32 119.599 119.522L116.106 121.538C115.741 121.744 115.3 121.762 114.919 121.588V121.588Z" fill="#2B303F"/>
<path fill-rule="evenodd" clip-rule="evenodd" d="M52.7755 85.7066L45.1997 81.3347C44.8991 81.1596 44.9371 80.8591 45.2834 80.6612L48.7764 78.6445C49.136 78.4437 49.5693 78.4254 49.9445 78.5951L57.5165 82.967C57.8171 83.1421 57.779 83.4426 57.4328 83.6405L53.9398 85.6572C53.5817 85.8581 53.1495 85.8763 52.7755 85.7066V85.7066Z" fill="#2B303F"/>
<path fill-rule="evenodd" clip-rule="evenodd" d="M50.3555 90.1128L46.695 88.001C46.3944 87.826 46.4325 87.5254 46.7788 87.3276L50.2717 85.3071C50.6317 85.1073 51.0655 85.0906 51.4399 85.2614L55.1003 87.3732C55.4009 87.5482 55.3629 87.8488 55.0166 88.0467L51.5236 90.0672C51.1636 90.2669 50.7299 90.2837 50.3555 90.1128V90.1128Z" fill="#2B303F"/>
<path fill-rule="evenodd" clip-rule="evenodd" d="M55.5341 93.0884L51.8736 90.9728C51.573 90.8015 51.6111 90.501 51.9574 90.2993L55.4504 88.2826C55.8091 88.0836 56.2407 88.0654 56.6147 88.2331L60.2789 90.3487C60.5757 90.52 60.5414 90.8244 60.1952 91.0222L56.6984 93.0389C56.3403 93.2398 55.9081 93.2581 55.5341 93.0884V93.0884Z" fill="#2B303F"/>
<path fill-rule="evenodd" clip-rule="evenodd" d="M60.7051 96.0943L57.0408 93.9787C56.7441 93.8075 56.7821 93.5031 57.1246 93.3052L60.6214 91.2886C60.9794 91.0877 61.4117 91.0694 61.7857 91.2391L65.4499 93.3547C65.7467 93.5259 65.7087 93.8265 65.3662 94.0282L61.8694 96.0449C61.5106 96.2438 61.0791 96.2621 60.7051 96.0943V96.0943Z" fill="#2B303F"/>
<path fill-rule="evenodd" clip-rule="evenodd" d="M65.8912 99.0812L62.227 96.9694C61.9302 96.7944 61.9683 96.4938 62.3107 96.296L65.8075 94.2755C66.1663 94.0757 66.5986 94.059 66.9718 94.2298L70.6361 96.3416C70.9328 96.5167 70.8948 96.8172 70.5523 97.0151L67.0556 99.0356C66.6967 99.2353 66.2645 99.2521 65.8912 99.0812Z" fill="#2B303F"/>
<path fill-rule="evenodd" clip-rule="evenodd" d="M71.0699 102.072L67.4056 99.9564C67.1089 99.7852 67.1431 99.4845 67.4894 99.2829L70.9785 97.2738C71.3374 97.0748 71.7689 97.0566 72.1429 97.2244L75.8033 99.34C76.1039 99.5112 76.0658 99.8156 75.7196 100.013L72.2266 102.03C71.8693 102.226 71.4405 102.242 71.0699 102.072V102.072Z" fill="#2B303F"/>
<path fill-rule="evenodd" clip-rule="evenodd" d="M76.2448 105.063L72.5843 102.947C72.2837 102.776 72.3218 102.471 72.6681 102.274L76.161 100.257C76.5206 100.056 76.954 100.038 77.3292 100.207L80.9896 102.323C81.2902 102.494 81.2521 102.795 80.9059 102.997L77.4129 105.013C77.0529 105.212 76.6203 105.23 76.2448 105.063V105.063Z" fill="#2B303F"/>
<path fill-rule="evenodd" clip-rule="evenodd" d="M81.4233 108.05L77.7629 105.938C77.4623 105.763 77.5004 105.462 77.8467 105.264L81.3396 103.244C81.6996 103.044 82.1333 103.027 82.5078 103.198L86.1682 105.31C86.4688 105.485 86.4307 105.786 86.0844 105.983L82.5914 108.004C82.2315 108.204 81.7977 108.22 81.4233 108.05V108.05Z" fill="#2B303F"/>
<path fill-rule="evenodd" clip-rule="evenodd" d="M86.6019 111.04L82.9415 108.925C82.6409 108.754 82.679 108.453 83.0252 108.251L86.5182 106.235C86.877 106.036 87.3085 106.017 87.6826 106.185L91.3467 108.301C91.6436 108.476 91.6093 108.776 91.2631 108.974L87.7662 110.991C87.4082 111.192 86.976 111.21 86.6019 111.04V111.04Z" fill="#2B303F"/>
<path fill-rule="evenodd" clip-rule="evenodd" d="M91.7805 114.016L88.101 111.915C87.8043 111.744 87.8423 111.44 88.1847 111.242L91.6816 109.225C92.0396 109.024 92.4719 109.006 92.8459 109.176L96.5101 111.291C96.8069 111.463 96.7688 111.763 96.4264 111.965L92.9296 113.982C92.5727 114.171 92.148 114.183 91.7805 114.016V114.016Z" fill="#2B303F"/>
<path fill-rule="evenodd" clip-rule="evenodd" d="M96.9591 117.018L93.2949 114.906C92.9981 114.731 93.0361 114.431 93.3786 114.233L96.8754 112.216C97.233 112.013 97.6661 111.995 98.0397 112.167L101.704 114.282C102.001 114.453 101.963 114.754 101.62 114.952L98.1235 116.972C97.7646 117.172 97.3324 117.189 96.9591 117.018V117.018Z" fill="#2B303F"/>
<path fill-rule="evenodd" clip-rule="evenodd" d="M102.138 120.009L98.4735 117.893C98.1767 117.722 98.211 117.421 98.5573 117.22L102.054 115.203C102.413 115.004 102.844 114.986 103.218 115.154L106.879 117.269C107.179 117.444 107.141 117.745 106.795 117.943L103.302 119.959C102.944 120.16 102.512 120.178 102.138 120.009V120.009Z" fill="#2B303F"/>
<path fill-rule="evenodd" clip-rule="evenodd" d="M113.724 126.698L103.652 120.884C103.351 120.713 103.39 120.412 103.736 120.21L107.229 118.194C107.589 117.995 108.021 117.976 108.397 118.144L118.469 123.958C118.766 124.133 118.727 124.434 118.385 124.632L114.888 126.652C114.529 126.852 114.097 126.869 113.724 126.698V126.698Z" fill="#2B303F"/>
<path fill-rule="evenodd" clip-rule="evenodd" d="M45.1768 87.1259L40.1847 84.2417C39.8841 84.0705 39.9221 83.7661 40.2684 83.5682L43.7614 81.5516C44.1209 81.3507 44.5543 81.3324 44.9295 81.5021L49.9217 84.3863C50.2223 84.5575 50.1842 84.8581 49.838 85.0598L46.345 87.0764C45.985 87.2754 45.5524 87.2941 45.1768 87.1259V87.1259Z" fill="#2B303F"/>
<path fill-rule="evenodd" clip-rule="evenodd" d="M134.001 114.99L60.4616 72.5413C60.1648 72.3701 60.199 72.0657 60.5453 71.8679L62.2918 70.8595C62.6517 70.6605 63.0843 70.6419 63.4599 70.81L136.999 113.255C137.296 113.426 137.258 113.727 136.915 113.928L135.165 114.937C134.807 115.139 134.375 115.158 134.001 114.99V114.99Z" fill="#2B303F"/>
<path fill-rule="evenodd" clip-rule="evenodd" d="M88.4434 119.818C88.3396 120.047 88.1611 120.234 87.9374 120.347L67.6986 132.029C67.0091 132.415 66.1774 132.45 65.4575 132.124L30.8738 112.155C30.7163 112.073 30.5925 111.938 30.5237 111.775C30.3982 111.47 30.5732 111.113 31.0336 110.846L51.2724 99.1763C51.963 98.7936 52.794 98.7597 53.5135 99.085L88.101 119.054C88.4031 119.174 88.555 119.513 88.4434 119.818V119.818Z" fill="#B1B4C4"/>
<path fill-rule="evenodd" clip-rule="evenodd" d="M88.4435 119.818C88.3396 120.047 88.1612 120.234 87.9374 120.347L67.6987 132.029C67.0092 132.415 66.1774 132.45 65.4575 132.124L30.8739 112.155C30.7163 112.073 30.5925 111.938 30.5238 111.775C30.6304 111.554 30.807 111.375 31.0261 111.265L51.2649 99.5835C51.9543 99.1977 52.7861 99.1626 53.506 99.4883L88.1011 119.457C88.2517 119.537 88.372 119.664 88.4435 119.818V119.818Z" fill="#C3C6D1"/>
<path fill-rule="evenodd" clip-rule="evenodd" d="M139.598 111.771L66.0588 69.3147C65.7258 69.0738 65.5257 68.6907 65.5184 68.2797V67.416C65.5184 67.0165 65.762 66.8339 66.0588 67.0051L139.598 109.45C139.933 109.689 140.134 110.073 140.138 110.485V111.352C140.138 111.759 139.899 111.942 139.598 111.771V111.771Z" fill="#2B303F"/>
<path fill-rule="evenodd" clip-rule="evenodd" d="M95.5513 28.6925L70.0578 13.9824C69.8215 13.8103 69.6803 13.5366 69.6772 13.2442V11.4673C69.6772 11.1819 69.8523 11.0487 70.0578 11.1743L95.5513 25.8844C95.7875 26.0565 95.9287 26.3302 95.9318 26.6226V28.4033C95.9394 28.6849 95.7643 28.8181 95.5513 28.6925V28.6925Z" fill="#E9EAF2"/>
<path fill-rule="evenodd" clip-rule="evenodd" d="M89.0067 29.1187L70.191 18.2554C69.9486 18.0782 69.8067 17.7947 69.8105 17.4944V16.6307C69.8105 16.3453 69.9817 16.2121 70.191 16.3377L89.0067 27.2009C89.2491 27.3783 89.391 27.6617 89.3872 27.9619V28.8447C89.3948 29.1111 89.2426 29.2404 89.0067 29.1187V29.1187Z" fill="#E9EAF2"/>
<path fill-rule="evenodd" clip-rule="evenodd" d="M89.0067 32.4709L70.191 21.6076C69.9486 21.4304 69.8067 21.1469 69.8105 20.8466V19.9829C69.8105 19.6975 69.9817 19.5681 70.191 19.6899L89.0067 30.557C89.2445 30.7278 89.3861 31.0021 89.3872 31.2951V32.1779C89.3948 32.4633 89.2426 32.5888 89.0067 32.4709V32.4709Z" fill="#E9EAF2"/>
<path fill-rule="evenodd" clip-rule="evenodd" d="M85.4604 33.776L70.1909 24.9788C69.9531 24.808 69.8116 24.5335 69.8104 24.2407V23.3351C69.8104 23.0497 69.9816 22.9203 70.1909 23.0421L85.4604 31.8583C85.7024 32.036 85.8439 32.3191 85.8409 32.6193V33.502C85.8447 33.7684 85.6734 33.8978 85.4604 33.776V33.776Z" fill="#1D1F28"/>
<path fill-rule="evenodd" clip-rule="evenodd" d="M95.5513 63.8964L70.0578 49.1862C69.8161 49.0082 69.675 48.725 69.6773 48.4252V46.6673C69.6773 46.3819 69.8523 46.2526 70.0578 46.3743L95.5513 61.0845C95.7929 61.2625 95.934 61.5456 95.9318 61.8455V63.6224C95.9394 63.8888 95.7643 64.0181 95.5513 63.8964V63.8964Z" fill="#E9EAF2"/>
<path fill-rule="evenodd" clip-rule="evenodd" d="M89.0066 64.3225L70.1909 53.4554C69.9531 53.2846 69.8116 53.0103 69.8104 52.7173V51.8345C69.8104 51.5491 69.9816 51.416 70.1909 51.5415L89.0066 62.4048C89.2437 62.5764 89.3849 62.8504 89.3871 63.143V64.0295C89.3947 64.3149 89.2426 64.4443 89.0066 64.3225V64.3225Z" fill="#E9EAF2"/>
<path fill-rule="evenodd" clip-rule="evenodd" d="M89.0066 67.6748L70.1909 56.8115C69.9539 56.6384 69.8127 56.3633 69.8104 56.0695V55.1868C69.8104 54.9014 69.9816 54.7682 70.1909 54.8938L89.0066 65.757C89.249 65.9344 89.391 66.2178 89.3871 66.518V67.4008C89.3947 67.6672 89.2426 67.7965 89.0066 67.6748V67.6748Z" fill="#E9EAF2"/>
<path fill-rule="evenodd" clip-rule="evenodd" d="M85.4604 68.9798L70.1909 60.1637C69.9539 59.9905 69.8127 59.7155 69.8104 59.4217V58.5389C69.8104 58.2535 69.9816 58.1242 70.1909 58.2459L85.4604 67.0621C85.6974 67.2337 85.8386 67.5077 85.8409 67.8003V68.6869C85.8447 68.9722 85.6734 69.1168 85.4604 68.9798Z" fill="#1D1F28"/>
<path fill-rule="evenodd" clip-rule="evenodd" d="M102.37 68.2645C102.37 68.2645 105.182 70.6236 109.238 67.4008C112.137 65.0226 114.728 66.3811 116.171 67.2029C117.613 68.0248 119.713 68.5157 123.67 75.6843C124.526 77.0937 125.699 78.2846 127.095 79.162C129.229 80.391 130.253 79.7937 131.931 77.2595C133.609 74.7254 134.705 71.9325 137.787 73.7589V99.1763L102.096 78.5723V68.0971L102.37 68.2645Z" fill="#F5F6FF"/>
<path fill-rule="evenodd" clip-rule="evenodd" d="M94.6152 57.4887L70.1909 43.3874C69.9539 43.2143 69.8127 42.9392 69.8104 42.6454V28.5669C69.8104 28.2816 69.9816 28.1522 70.1909 28.274L94.6152 42.3753C94.8519 42.5488 94.9927 42.8239 94.9957 43.1173V57.1958C94.9995 57.4811 94.8283 57.6105 94.6152 57.4887Z" fill="#E9EAF2"/>
<path d="M102.092 67.6709V78.5837L137.783 99.1877V73.7665" stroke="#E9EAF2" stroke-miterlimit="8"/>
<path d="M116.121 67.3247V86.6541" stroke="#E9EAF2" stroke-miterlimit="8"/>
<path d="M127.038 79.5502V92.959" stroke="#E9EAF2" stroke-miterlimit="8"/>
<path d="M102.092 68.0971C108.424 72.0238 109.322 63.1506 116.22 67.1306C123.118 71.1106 122.167 76.3045 127.254 79.2457C132.342 82.187 132.467 70.6997 137.779 73.7665" stroke="#E9EAF2" stroke-width="1.08924" stroke-miterlimit="8"/>
<path fill-rule="evenodd" clip-rule="evenodd" d="M116.718 66.9815C117.047 67.5505 117.047 68.1658 116.718 68.356C116.389 68.5462 115.855 68.2392 115.526 67.6702C115.198 67.1012 115.198 66.4858 115.527 66.2957C115.856 66.1055 116.389 66.4125 116.718 66.9815V66.9815Z" fill="#1D1F28"/>
<path fill-rule="evenodd" clip-rule="evenodd" d="M138.925 73.7649C139.253 74.3375 139.251 74.9556 138.92 75.1455C138.588 75.3353 138.054 75.0251 137.726 74.4525C137.397 73.88 137.399 73.2619 137.73 73.072C138.062 72.8821 138.596 73.1924 138.925 73.7649V73.7649Z" fill="#1D1F28"/>
<path fill-rule="evenodd" clip-rule="evenodd" d="M128.14 79.3301C128.468 79.9027 128.466 80.5208 128.135 80.7106C127.804 80.9005 127.269 80.5903 126.941 80.0177C126.612 79.4451 126.615 78.8271 126.946 78.6372C127.277 78.4473 127.811 78.7575 128.14 79.3301V79.3301Z" fill="#1D1F28"/>
<path fill-rule="evenodd" clip-rule="evenodd" d="M103.094 68.0715C103.423 68.6441 103.421 69.2622 103.089 69.4521C102.758 69.642 102.224 69.3317 101.895 68.7592C101.567 68.1866 101.569 67.5685 101.9 67.3786C102.231 67.1887 102.766 67.499 103.094 68.0715V68.0715Z" fill="#1D1F28"/>
<path fill-rule="evenodd" clip-rule="evenodd" d="M103.1 49.3498L101.639 48.5051C101.403 48.3332 101.262 48.0592 101.259 47.7669V40.7011C101.259 40.4157 101.434 40.2863 101.639 40.4081L103.1 41.2528C103.336 41.4252 103.478 41.6988 103.481 41.991V49.0606C103.489 49.3308 103.321 49.4754 103.1 49.3498V49.3498Z" fill="#E9EAF2"/>
<path fill-rule="evenodd" clip-rule="evenodd" d="M106.472 51.298L105.007 50.4724C104.771 50.2985 104.63 50.0238 104.626 49.7304V35.336C104.626 35.0507 104.801 34.9213 105.007 35.0431L106.472 35.8878C106.714 36.0655 106.855 36.3486 106.852 36.6488V51.0051C106.856 51.2904 106.685 51.4198 106.472 51.298V51.298Z" fill="#1D1F28"/>
<path fill-rule="evenodd" clip-rule="evenodd" d="M113.214 55.1867L111.753 54.342C111.516 54.1689 111.375 53.8938 111.372 53.6V40.6212C111.372 40.3358 111.544 40.2064 111.753 40.3282L113.214 41.1729C113.45 41.3468 113.591 41.6215 113.595 41.9149V54.8937C113.595 55.1791 113.42 55.3085 113.214 55.1867Z" fill="#E9EAF2"/>
<path fill-rule="evenodd" clip-rule="evenodd" d="M116.574 57.1311L115.117 56.2864C114.881 56.114 114.74 55.8404 114.736 55.5482V44.7915C114.736 44.5061 114.911 44.3767 115.117 44.4985L116.578 45.3432C116.815 45.5163 116.956 45.7914 116.958 46.0852V56.8381C116.962 57.1235 116.791 57.2528 116.574 57.1311V57.1311Z" fill="#1D1F28"/>
<path fill-rule="evenodd" clip-rule="evenodd" d="M123.282 61.0046L121.821 60.1599C121.579 59.9818 121.438 59.6987 121.441 59.3989V54.0719C121.441 53.7865 121.616 53.6571 121.821 53.7789L123.282 54.6236C123.519 54.7967 123.66 55.0718 123.663 55.3656V60.6926C123.67 60.997 123.488 61.1264 123.282 61.0046V61.0046Z" fill="#E9EAF2"/>
<path fill-rule="evenodd" clip-rule="evenodd" d="M126.653 62.9489L125.188 62.1042C124.953 61.9303 124.811 61.6556 124.808 61.3623V43.2885C124.808 43.0031 124.983 42.8699 125.188 42.9955L126.653 43.8402C126.89 44.0119 127.032 44.2858 127.034 44.5784V62.6484C127.038 62.9413 126.866 63.0707 126.653 62.9489V62.9489Z" fill="#1D1F28"/>
<path fill-rule="evenodd" clip-rule="evenodd" d="M134.872 67.6938L133.407 66.8338C133.171 66.6599 133.03 66.3852 133.027 66.0919V60.7649C133.027 60.4795 133.202 60.3463 133.407 60.4719L134.872 61.3166C135.109 61.4882 135.25 61.7622 135.253 62.0547V67.3817C135.256 67.6861 135.085 67.8155 134.872 67.6938V67.6938Z" fill="#E9EAF2"/>
<path fill-rule="evenodd" clip-rule="evenodd" d="M138.24 69.6381L136.775 68.7934C136.538 68.6218 136.396 68.3479 136.394 68.0552V60.9894C136.394 60.704 136.565 60.5708 136.775 60.6964L138.24 61.5411C138.476 61.7131 138.617 61.987 138.62 62.2792V69.3451C138.628 69.6305 138.453 69.7599 138.24 69.6381V69.6381Z" fill="#1D1F28"/>
<path fill-rule="evenodd" clip-rule="evenodd" d="M134.625 174.477L96.9629 152.732L148.7 122.862L186.361 144.604L134.625 174.477V174.477Z" fill="#D6D8E5" fill-opacity="0.4"/>
<path fill-rule="evenodd" clip-rule="evenodd" d="M186.495 143.124L150.077 122.094L99.577 151.252L98.3365 150.536V151.967L135.998 173.709L187.735 143.839V142.409L186.495 143.124V143.124Z" fill="#B1B4C4"/>
<path fill-rule="evenodd" clip-rule="evenodd" d="M135.998 172.278L98.3365 150.536L150.077 120.663L187.735 142.409L135.998 172.278V172.278Z" fill="#FAFBFF"/>
<path fill-rule="evenodd" clip-rule="evenodd" d="M176.617 144.715L146.42 127.28L149.411 125.553L179.611 142.987L176.617 144.715V144.715Z" fill="#E9EAF2"/>
<path fill-rule="evenodd" clip-rule="evenodd" d="M173.432 146.556L143.235 129.122L144.731 128.258L174.927 145.692L173.432 146.556V146.556Z" fill="#E9EAF2"/>
<path fill-rule="evenodd" clip-rule="evenodd" d="M170.963 147.979L140.766 130.545L142.261 129.681L172.458 147.116L170.963 147.979V147.979Z" fill="#E9EAF2"/>
<path fill-rule="evenodd" clip-rule="evenodd" d="M168.497 149.406L138.3 131.972L139.796 131.108L169.992 148.542L168.497 149.406V149.406Z" fill="#E9EAF2"/>
<path fill-rule="evenodd" clip-rule="evenodd" d="M150.4 159.855L120.2 142.42L123.195 140.693L153.387 158.127L150.4 159.855V159.855Z" fill="#E9EAF2"/>
<path fill-rule="evenodd" clip-rule="evenodd" d="M145.146 160.502L117.015 144.258L118.511 143.394L146.641 159.638L145.146 160.502Z" fill="#E9EAF2"/>
<path fill-rule="evenodd" clip-rule="evenodd" d="M142.117 161.601L114.546 145.685L116.041 144.821L143.612 160.737L142.117 161.601V161.601Z" fill="#E9EAF2"/>
<path fill-rule="evenodd" clip-rule="evenodd" d="M135.386 160.566L112.08 147.108L113.576 146.244L136.881 159.702L135.386 160.566Z" fill="#E9EAF2"/>
<path fill-rule="evenodd" clip-rule="evenodd" d="M135.15 143.516L126.726 138.653L135.15 133.79L143.574 138.653L135.15 143.516Z" fill="#E9EAF2"/>
<path fill-rule="evenodd" clip-rule="evenodd" d="M146.036 149.802L137.612 144.939L146.036 140.073L154.46 144.939L146.036 149.802Z" fill="#E9EAF2"/>
<path fill-rule="evenodd" clip-rule="evenodd" d="M156.922 156.088L148.498 151.221L156.922 146.358L165.346 151.225L156.922 156.088Z" fill="#E9EAF2"/>
<path fill-rule="evenodd" clip-rule="evenodd" d="M16.959 82.4382L9.8208 78.3173L16.959 74.1927L24.101 78.3173L16.959 82.4382Z" fill="#D6D8E5" fill-opacity="0.2941"/>
<path fill-rule="evenodd" clip-rule="evenodd" d="M28.2788 75.8327L21.1368 71.7119L28.2788 67.5872L35.417 71.7119L28.2788 75.8327Z" fill="#D6D8E5" fill-opacity="0.2941"/>
<path fill-rule="evenodd" clip-rule="evenodd" d="M32.5176 36.3292L25.3756 32.2084L32.5176 28.0875L39.6558 32.2084L32.5176 36.3292Z" fill="#1D1F28"/>
<path fill-rule="evenodd" clip-rule="evenodd" d="M32.5176 73.447L25.3756 69.3223V32.2084L32.5176 36.333V73.447V73.447Z" fill="#1D1F28"/>
<path fill-rule="evenodd" clip-rule="evenodd" d="M32.5176 73.447L25.3756 69.3223V32.2084L32.5176 36.333V73.447V73.447Z" fill="black" fill-opacity="0.0941"/>
<path fill-rule="evenodd" clip-rule="evenodd" d="M39.6558 69.3223L32.5176 73.447V36.333L39.6558 32.2084V69.3223V69.3223Z" fill="#00B050"/>
<path fill-rule="evenodd" clip-rule="evenodd" d="M21.8065 54.8823L14.6646 50.7577L21.8065 46.6331L28.9447 50.7577L21.8065 54.8823Z" fill="#1D1F28"/>
<path fill-rule="evenodd" clip-rule="evenodd" d="M21.8065 79.5958L14.6646 75.475V50.7577L21.8065 54.8823V79.5958V79.5958Z" fill="#1D1F28"/>
<path fill-rule="evenodd" clip-rule="evenodd" d="M21.8065 79.5958L14.6646 75.475V50.7577L21.8065 54.8823V79.5958V79.5958Z" fill="black" fill-opacity="0.0941"/>
<path fill-rule="evenodd" clip-rule="evenodd" d="M28.9447 75.475L21.8065 79.5958V54.8823L28.9447 50.7577V75.475V75.475Z" fill="#00B050"/>
<path fill-rule="evenodd" clip-rule="evenodd" d="M7.81555 87.8412L0.673584 83.7204L7.81555 79.5958L14.9537 83.7204L7.81555 87.8412Z" fill="#D6D8E5" fill-opacity="0.2941"/>
<path fill-rule="evenodd" clip-rule="evenodd" d="M10.403 74.4705L3.26099 70.3458L10.3992 66.225L17.5411 70.3458L10.403 74.4705Z" fill="#1D1F28"/>
<path fill-rule="evenodd" clip-rule="evenodd" d="M10.403 86.2888L3.26099 82.1642V70.3458L10.403 74.4705V86.2888V86.2888Z" fill="#1D1F28"/>
<path fill-rule="evenodd" clip-rule="evenodd" d="M10.403 86.2888L3.26099 82.1642V70.3458L10.403 74.4705V86.2888V86.2888Z" fill="black" fill-opacity="0.0941"/>
<path fill-rule="evenodd" clip-rule="evenodd" d="M17.5411 82.1642L10.403 86.2888V74.4705L17.5411 70.3458V82.1642V82.1642Z" fill="#00B050"/>
<path fill-rule="evenodd" clip-rule="evenodd" d="M162.321 136.964C161.729 136.423 161.078 135.949 160.381 135.552C155.111 132.508 146.542 132.508 141.276 135.552C140.462 136.012 139.715 136.581 139.054 137.242C136.158 140.213 136.9 144.056 141.276 146.583C146.542 149.627 155.115 149.627 160.381 146.583C164.894 143.976 165.54 139.97 162.321 136.964V136.964ZM158.703 145.597C154.361 148.105 147.288 148.105 142.958 145.597C139.914 143.839 139.001 141.305 140.23 139.083C140.891 137.995 141.834 137.105 142.958 136.507C147.299 134.004 154.373 134.004 158.703 136.507C159.826 137.104 160.766 137.995 161.423 139.083C162.656 141.321 161.747 143.851 158.703 145.597Z" fill="#B1B4C4"/>
<path fill-rule="evenodd" clip-rule="evenodd" d="M161.423 139.098C160.766 138.01 159.826 137.119 158.703 136.522C154.361 134.019 147.288 134.019 142.958 136.522C141.834 137.121 140.891 138.011 140.229 139.098L139.054 137.226L138.841 136.888L140.363 133.254L145.648 130.316L155.488 130.488L162.173 134.452C162.173 134.452 162.295 135.708 162.31 136.949C162.337 138.501 162.184 140.012 161.423 139.098V139.098Z" fill="#A1A5B5"/>
<path fill-rule="evenodd" clip-rule="evenodd" d="M137.326 141.031L137.33 136.903L139.377 140.369L137.326 141.031V141.031Z" fill="#B1B4C4"/>
<path fill-rule="evenodd" clip-rule="evenodd" d="M164.331 141.031V136.926L162.527 138.969L164.331 141.031V141.031Z" fill="#B1B4C4"/>
<path fill-rule="evenodd" clip-rule="evenodd" d="M162.192 138.969C162.192 142.552 157.16 145.457 150.952 145.457C144.744 145.457 139.712 142.552 139.712 138.969C139.712 135.386 144.744 132.482 150.952 132.482C157.16 132.482 162.192 135.386 162.192 138.969Z" fill="#3E7EFF" fill-opacity="0.0941"/>
<path fill-rule="evenodd" clip-rule="evenodd" d="M138.354 141.728C138.354 141.728 140.085 148.546 152.995 148.196C161.956 148.196 163.101 140.495 162.888 139.399C161.028 141.963 158.13 143.576 154.97 143.805C149.518 144.281 145.492 144.22 143.338 143.177C141.185 142.135 138.357 139.399 138.357 139.399L138.354 141.728Z" fill="#B1B4C4"/>
<path fill-rule="evenodd" clip-rule="evenodd" d="M141.276 142.648C136.01 139.604 136.01 134.658 141.276 131.614C146.542 128.57 155.115 128.57 160.381 131.614C165.647 134.658 165.647 139.604 160.381 142.648C155.115 145.692 146.542 145.689 141.276 142.648ZM158.699 132.588C154.357 130.084 147.284 130.081 142.958 132.588C138.631 135.096 138.616 139.171 142.958 141.678C147.299 144.186 154.373 144.186 158.699 141.678C163.025 139.171 163.06 135.096 158.699 132.588Z" fill="#D6D8E5"/>
<path fill-rule="evenodd" clip-rule="evenodd" d="M123.463 155.467C124.172 156.694 124.172 158.021 123.463 158.431C122.755 158.841 121.605 158.178 120.896 156.951C120.186 155.724 120.186 154.397 120.895 153.987C121.604 153.578 122.754 154.24 123.463 155.467V155.467Z" fill="black" fill-opacity="0.0941"/>
<path fill-rule="evenodd" clip-rule="evenodd" d="M142.661 144.372L136.976 147.656L135.222 146.64L140.907 143.36L142.661 144.372V144.372Z" fill="#B1B4C4"/>
<path fill-rule="evenodd" clip-rule="evenodd" d="M142.661 146.396L136.976 149.676V147.652L142.661 144.368V146.396V146.396Z" fill="#A1A5B5"/>
<path fill-rule="evenodd" clip-rule="evenodd" d="M138.137 149.09C138.068 147.812 137.393 146.644 136.322 145.944C135.954 145.677 135.472 145.625 135.055 145.807L120.908 153.968L123.488 158.397L137.46 150.331C137.874 150.182 138.137 149.749 138.137 149.09V149.09Z" fill="#1D1F28"/>
<path fill-rule="evenodd" clip-rule="evenodd" d="M123.463 155.467C124.172 156.694 124.172 158.021 123.463 158.431C122.755 158.841 121.605 158.178 120.896 156.951C120.186 155.724 120.186 154.397 120.895 153.987C121.604 153.578 122.754 154.24 123.463 155.467V155.467Z" fill="#00B050"/>
</svg>
