<svg width="3484" height="910" viewBox="0 0 3484 910" fill="none" xmlns="http://www.w3.org/2000/svg">
    <path fill-rule="evenodd" clip-rule="evenodd"
          d="M159.732 588.36C179.126 588.36 196.298 582.906 211.247 571.997C226.197 561.087 237.106 546.946 243.975 529.572H293.065C283.772 559.471 266.803 583.512 242.156 601.693C216.298 620.279 185.591 629.572 150.035 629.572C105.591 629.572 69.4293 614.421 41.5504 584.118C14.4796 554.623 0.944336 517.653 0.944336 473.209C0.944336 428.764 14.4796 391.795 41.5504 362.3C69.4293 331.996 105.591 316.845 150.035 316.845C185.591 316.845 216.298 326.138 242.156 344.724C266.803 362.906 283.772 386.946 293.065 416.845H243.975C237.106 399.471 226.197 385.33 211.247 374.421C196.298 363.512 179.126 358.057 159.732 358.057C140.338 358.057 123.874 361.087 110.338 367.148C96.8028 373.209 85.3888 381.491 76.0958 391.997C56.2978 413.815 46.3989 440.885 46.3989 473.209C46.3989 505.532 56.2978 532.602 76.0958 554.421C96.2979 577.047 124.176 588.36 159.732 588.36ZM480.944 316.845C526.197 316.845 562.964 331.996 591.247 362.3C617.914 391.391 631.247 428.36 631.247 473.209C631.247 518.057 617.914 555.027 591.247 584.118C562.964 614.421 526.197 629.572 480.944 629.572C435.691 629.572 398.924 614.421 370.641 584.118C343.974 555.027 330.641 518.057 330.641 473.209C330.641 428.36 343.974 391.391 370.641 362.3C398.924 331.996 435.691 316.845 480.944 316.845ZM480.944 588.36C513.672 588.36 539.53 577.047 558.52 554.421C576.702 533.007 585.793 505.936 585.793 473.209C585.793 440.481 576.702 413.411 558.52 391.997C539.53 369.37 513.672 358.057 480.944 358.057C448.217 358.057 422.358 369.37 403.368 391.997C385.187 413.411 376.096 440.481 376.096 473.209C376.096 505.936 385.187 533.007 403.368 554.421C422.358 577.047 448.217 588.36 480.944 588.36ZM736.702 367.754C756.904 333.815 787.611 316.845 828.823 316.845C849.025 316.845 867.712 322.199 884.884 332.906C902.055 343.613 915.49 358.663 925.187 378.057C938.924 352.603 960.338 334.421 989.429 323.512C1001.15 319.067 1014.38 316.845 1029.13 316.845C1043.87 316.845 1058.01 319.774 1071.55 325.633C1085.09 331.492 1097.11 339.875 1107.61 350.784C1130.24 375.027 1141.55 405.33 1141.55 441.694V624.724H1096.1V442.906C1096.1 417.855 1089.03 397.249 1074.88 381.088C1060.74 365.734 1042.76 358.057 1020.94 358.057C997.914 358.057 978.722 365.532 963.368 380.481C947.207 395.835 939.126 416.845 939.126 443.512V624.724H893.671V442.906C893.671 417.855 886.601 397.249 872.459 381.088C858.318 365.734 840.338 358.057 818.52 358.057C795.49 358.057 776.298 365.532 760.944 380.481C744.782 395.835 736.702 416.845 736.702 443.512V624.724H691.247V321.694H736.702V367.754ZM1262.76 370.178C1287 334.623 1323.17 316.845 1371.25 316.845C1414.88 316.845 1450.24 331.996 1477.31 362.3C1504.38 392.199 1517.91 429.168 1517.91 473.209C1517.91 517.249 1504.38 554.219 1477.31 584.118C1450.24 614.421 1413.87 629.572 1368.22 629.572C1322.56 629.572 1287.41 611.593 1262.76 575.633V744.724H1217.31V321.694H1262.76V370.178ZM1365.19 358.057C1332.46 358.057 1306.6 369.37 1287.61 391.997C1269.43 413.411 1260.34 440.481 1260.34 473.209C1260.34 505.936 1269.43 533.007 1287.61 554.421C1306.6 577.047 1332.46 588.36 1365.19 588.36C1397.51 588.36 1423.77 577.047 1443.97 554.421C1462.96 533.007 1472.46 505.936 1472.46 473.209C1472.46 440.481 1462.96 413.411 1443.97 391.997C1423.77 369.37 1397.51 358.057 1365.19 358.057ZM1708.82 316.845C1754.08 316.845 1790.84 331.996 1819.13 362.3C1845.79 391.391 1859.13 428.36 1859.13 473.209C1859.13 518.057 1845.79 555.027 1819.13 584.118C1790.84 614.421 1754.08 629.572 1708.82 629.572C1663.57 629.572 1626.8 614.421 1598.52 584.118C1571.85 555.027 1558.52 518.057 1558.52 473.209C1558.52 428.36 1571.85 391.391 1598.52 362.3C1626.8 331.996 1663.57 316.845 1708.82 316.845ZM1708.82 588.36C1741.55 588.36 1767.41 577.047 1786.4 554.421C1804.58 533.007 1813.67 505.936 1813.67 473.209C1813.67 440.481 1804.58 413.411 1786.4 391.997C1767.41 369.37 1741.55 358.057 1708.82 358.057C1676.1 358.057 1650.24 369.37 1631.25 391.997C1613.07 413.411 1603.97 440.481 1603.97 473.209C1603.97 505.936 1613.07 533.007 1631.25 554.421C1650.24 577.047 1676.1 588.36 1708.82 588.36ZM2097.31 402.906C2093.27 371.39 2067.91 355.633 2021.25 355.633C1974.58 355.633 1951.25 370.178 1951.25 399.269C1951.25 411.391 1956.2 420.582 1966.1 426.845C1975.99 433.108 1988.42 438.259 2003.37 442.3C2018.32 446.34 2034.58 450.077 2052.16 453.512C2069.73 456.946 2085.99 461.794 2100.94 468.057C2115.89 474.32 2128.32 482.906 2138.22 493.815C2148.12 504.724 2153.06 519.673 2153.06 538.663C2153.06 568.158 2141.95 590.683 2119.73 606.239C2097.51 621.794 2067.41 629.572 2029.43 629.572C1989.02 629.572 1956.9 619.471 1933.07 599.269C1911.25 581.491 1899.53 558.259 1897.91 529.572H1945.19C1948.01 557.451 1963.77 576.239 1992.46 585.936C2002.96 589.168 2013.37 590.784 2023.67 590.784C2033.97 590.784 2043.57 590.178 2052.46 588.966C2061.35 587.754 2070.03 585.532 2078.52 582.299C2097.91 574.623 2107.61 561.492 2107.61 542.906C2107.61 530.38 2102.66 520.784 2092.76 514.118C2082.86 507.451 2070.44 501.997 2055.49 497.754C2040.54 493.512 2024.28 489.673 2006.7 486.239C1989.13 482.805 1972.86 478.057 1957.91 471.997C1942.96 465.936 1930.54 457.653 1920.64 447.148C1910.74 436.643 1905.79 422.098 1905.79 403.512C1905.79 376.037 1915.79 354.724 1935.79 339.572C1955.79 324.421 1985.39 316.845 2024.58 316.845C2061.75 316.845 2091.04 325.734 2112.46 343.512C2130.24 358.461 2140.54 378.259 2143.37 402.906H2097.31ZM2346.4 588.36C2387.21 588.36 2416.5 571.391 2434.28 537.451H2483.97C2473.47 564.926 2456.8 587.148 2433.97 604.118C2411.15 621.087 2381.75 629.572 2345.79 629.572C2300.14 629.572 2262.96 614.421 2234.28 584.118C2206.4 554.623 2192.46 517.653 2192.46 473.209C2192.46 428.36 2205.79 391.391 2232.46 362.3C2260.74 331.996 2297.51 316.845 2342.76 316.845C2388.01 316.845 2424.78 331.996 2453.06 362.3C2479.73 391.391 2493.06 428.36 2493.06 473.209V491.39H2239.13C2242.36 519.269 2253.47 542.299 2272.46 560.481C2291.85 579.067 2316.5 588.36 2346.4 588.36ZM2342.76 358.057C2314.88 358.057 2291.45 366.744 2272.46 384.118C2254.68 400.684 2243.77 422.299 2239.73 448.966H2445.79C2441.75 422.299 2430.84 400.684 2413.06 384.118C2394.07 366.744 2370.64 358.057 2342.76 358.057Z"
          fill="black"/>
    <g style="mix-blend-mode:multiply">
        <g style="mix-blend-mode:color-burn">
            <path d="M3059.13 879.226C3293.43 879.226 3483.37 689.286 3483.37 454.983C3483.37 220.681 3293.43 30.741 3059.13 30.741C2824.82 30.741 2634.88 220.681 2634.88 454.983C2634.88 689.286 2824.82 879.226 3059.13 879.226Z"
                  fill="#2A21D3"/>
        </g>
        <g style="mix-blend-mode:color-burn">
            <path d="M3007.61 909.529C3241.91 909.529 3431.85 719.589 3431.85 485.286C3431.85 250.984 3241.91 61.0438 3007.61 61.0438C2773.31 61.0438 2583.37 250.984 2583.37 485.286C2583.37 719.589 2773.31 909.529 3007.61 909.529Z"
                  fill="#D0021B"/>
        </g>
        <g style="mix-blend-mode:multiply">
            <path d="M3007.61 848.923C3241.92 848.923 3431.86 658.983 3431.86 424.68C3431.86 190.378 3241.92 0.437988 3007.61 0.437988C2773.31 0.437988 2583.37 190.378 2583.37 424.68C2583.37 658.983 2773.31 848.923 3007.61 848.923Z"
                  fill="#3AB53A"/>
        </g>
    </g>
    <g style="mix-blend-mode:multiply">
        <g style="mix-blend-mode:color-burn">
            <path fill-rule="evenodd" clip-rule="evenodd"
                  d="M3241.57 74.8188C3381.29 144.231 3477.31 288.394 3477.31 454.983C3477.31 621.573 3381.29 765.736 3241.57 835.148C3173.32 882.068 3090.64 909.529 3001.55 909.529C2767.25 909.529 2577.31 719.589 2577.31 485.286C2577.31 475.098 2577.67 464.993 2578.37 454.983C2577.67 444.974 2577.31 434.869 2577.31 424.68C2577.31 190.378 2767.25 0.437988 3001.55 0.437988C3090.64 0.437988 3173.32 27.8992 3241.57 74.8188Z"
                  fill="white"/>
        </g>
    </g>
    <path fill-rule="evenodd" clip-rule="evenodd"
          d="M2947.61 639.832V592.559C2936.7 607.105 2923.37 619.428 2907.61 629.529C2891.85 639.63 2873.87 644.68 2853.67 644.68C2833.47 644.68 2816.09 641.852 2801.55 636.196C2787 630.539 2774.28 622.054 2763.37 610.741C2738.32 586.094 2725.79 553.57 2725.79 513.165V336.802H2771.25V511.953C2771.25 539.832 2779.12 562.054 2794.88 578.62C2810.64 595.186 2831.04 603.468 2856.09 603.468C2881.55 603.468 2903.17 594.984 2920.94 578.014C2938.72 560.64 2947.61 538.418 2947.61 511.347V336.802H2993.06V639.832H2947.61ZM3250.03 418.014C3245.99 386.499 3220.64 370.741 3173.97 370.741C3127.31 370.741 3103.97 385.286 3103.97 414.377C3103.97 426.499 3108.92 435.691 3118.82 441.953C3128.72 448.216 3141.14 453.367 3156.09 457.408C3171.04 461.448 3187.31 465.186 3204.88 468.62C3222.46 472.054 3238.72 476.903 3253.67 483.165C3268.62 489.428 3281.04 498.014 3290.94 508.923C3300.84 519.832 3305.79 534.781 3305.79 553.771C3305.79 583.266 3294.68 605.791 3272.46 621.347C3250.24 636.903 3220.14 644.68 3182.16 644.68C3141.75 644.68 3109.63 634.579 3085.79 614.377C3063.97 596.6 3052.26 573.367 3050.64 544.68H3097.91C3100.74 572.559 3116.5 591.347 3145.19 601.044C3155.69 604.276 3166.09 605.893 3176.4 605.893C3186.7 605.893 3196.3 605.286 3205.19 604.074C3214.07 602.862 3222.76 600.64 3231.25 597.408C3250.64 589.731 3260.34 576.6 3260.34 558.014C3260.34 545.488 3255.39 535.893 3245.49 529.226C3235.59 522.559 3223.17 517.105 3208.22 512.862C3193.27 508.62 3177 504.781 3159.43 501.347C3141.85 497.913 3125.59 493.165 3110.64 487.105C3095.69 481.044 3083.27 472.761 3073.37 462.256C3063.47 451.751 3058.52 437.206 3058.52 418.62C3058.52 391.145 3068.52 369.832 3088.52 354.681C3108.52 339.529 3138.11 331.953 3177.31 331.953C3214.48 331.953 3243.77 340.842 3265.19 358.62C3282.96 373.569 3293.27 393.367 3296.09 418.014H3250.03Z"
          fill="white"/>
    <path d="M32.957 850.085V769.528H55.6967C62.7048 769.528 68.9015 771.077 74.2868 774.176C79.672 777.274 83.8216 781.682 86.7355 787.399C89.6863 793.116 91.1801 799.682 91.217 807.096V812.241C91.217 819.84 89.7416 826.497 86.7908 832.214C83.8769 837.932 79.6904 842.321 74.2314 845.382C68.8093 848.444 62.4835 850.011 55.2541 850.085H32.957ZM43.5799 778.27V841.399H54.7561C62.9446 841.399 69.3073 838.854 73.8441 833.764C78.4179 828.673 80.7048 821.426 80.7048 812.02V807.317C80.7048 798.17 78.547 791.069 74.2314 786.016C69.9528 780.926 63.8667 778.344 55.9733 778.27H43.5799Z"
          fill="black"/>
    <path d="M116.834 850.085H106.598V790.221H116.834V850.085ZM105.768 774.342C105.768 772.682 106.266 771.28 107.262 770.137C108.295 768.993 109.807 768.422 111.799 768.422C113.791 768.422 115.303 768.993 116.336 770.137C117.369 771.28 117.885 772.682 117.885 774.342C117.885 776.002 117.369 777.385 116.336 778.491C115.303 779.598 113.791 780.151 111.799 780.151C109.807 780.151 108.295 779.598 107.262 778.491C106.266 777.385 105.768 776.002 105.768 774.342Z"
          fill="black"/>
    <path d="M130.832 819.655C130.832 810.323 132.989 802.909 137.305 797.413C141.62 791.881 147.338 789.114 154.456 789.114C161.76 789.114 167.458 791.696 171.553 796.86L172.051 790.221H181.401V848.647C181.401 856.393 179.096 862.497 174.485 866.96C169.911 871.423 163.752 873.655 156.006 873.655C151.69 873.655 147.467 872.733 143.336 870.888C139.204 869.044 136.051 866.518 133.875 863.309L139.186 857.167C143.575 862.589 148.942 865.3 155.286 865.3C160.266 865.3 164.139 863.899 166.905 861.095C169.708 858.292 171.11 854.345 171.11 849.255V844.11C167.016 848.831 161.428 851.192 154.346 851.192C147.338 851.192 141.657 848.37 137.305 842.727C132.989 837.083 130.832 829.393 130.832 819.655ZM141.123 820.817C141.123 827.567 142.506 832.878 145.272 836.751C148.038 840.587 151.911 842.505 156.891 842.505C163.346 842.505 168.086 839.573 171.11 833.708V806.376C167.975 800.659 163.272 797.801 157.002 797.801C152.022 797.801 148.131 799.737 145.327 803.61C142.524 807.483 141.123 813.219 141.123 820.817Z"
          fill="black"/>
    <path d="M208.014 850.085H197.778V790.221H208.014V850.085ZM196.948 774.342C196.948 772.682 197.446 771.28 198.442 770.137C199.475 768.993 200.987 768.422 202.979 768.422C204.971 768.422 206.483 768.993 207.516 770.137C208.548 771.28 209.065 772.682 209.065 774.342C209.065 776.002 208.548 777.385 207.516 778.491C206.483 779.598 204.971 780.151 202.979 780.151C200.987 780.151 199.475 779.598 198.442 778.491C197.446 777.385 196.948 776.002 196.948 774.342Z"
          fill="black"/>
    <path d="M238.333 775.725V790.221H249.509V798.133H238.333V835.257C238.333 837.655 238.831 839.462 239.827 840.68C240.823 841.86 242.52 842.45 244.917 842.45C246.097 842.45 247.72 842.229 249.786 841.786V850.085C247.093 850.823 244.475 851.192 241.929 851.192C237.356 851.192 233.907 849.809 231.583 847.042C229.259 844.276 228.098 840.348 228.098 835.257V798.133H217.198V790.221H228.098V775.725H238.333Z"
          fill="black"/>
    <path d="M298.474 850.085C297.884 848.905 297.405 846.802 297.036 843.778C292.278 848.721 286.597 851.192 279.995 851.192C274.093 851.192 269.243 849.532 265.444 846.212C261.681 842.856 259.8 838.614 259.8 833.487C259.8 827.253 262.161 822.421 266.882 818.991C271.64 815.524 278.317 813.79 286.911 813.79H296.87V809.088C296.87 805.51 295.8 802.67 293.661 800.567C291.521 798.428 288.368 797.358 284.2 797.358C280.548 797.358 277.487 798.28 275.015 800.124C272.544 801.969 271.308 804.2 271.308 806.819H261.017C261.017 803.831 262.069 800.954 264.171 798.188C266.31 795.385 269.188 793.172 272.802 791.549C276.454 789.926 280.456 789.114 284.808 789.114C291.706 789.114 297.109 790.848 301.019 794.315C304.929 797.745 306.958 802.485 307.105 808.534V836.087C307.105 841.583 307.806 845.954 309.208 849.2V850.085H298.474ZM281.489 842.284C284.698 842.284 287.741 841.454 290.618 839.794C293.495 838.135 295.579 835.977 296.87 833.321V821.038H288.847C276.306 821.038 270.036 824.708 270.036 832.048C270.036 835.257 271.106 837.766 273.245 839.573C275.384 841.38 278.132 842.284 281.489 842.284Z"
          fill="black"/>
    <path d="M334.271 850.085H324.036V765.102H334.271V850.085Z" fill="black"/>
    <path d="M361.824 850.085H351.589V790.221H361.824V850.085ZM350.759 774.342C350.759 772.682 351.257 771.28 352.253 770.137C353.285 768.993 354.798 768.422 356.79 768.422C358.781 768.422 360.294 768.993 361.326 770.137C362.359 771.28 362.876 772.682 362.876 774.342C362.876 776.002 362.359 777.385 361.326 778.491C360.294 779.598 358.781 780.151 356.79 780.151C354.798 780.151 353.285 779.598 352.253 778.491C351.257 777.385 350.759 776.002 350.759 774.342Z"
          fill="black"/>
    <path d="M413.113 834.206C413.113 831.44 412.062 829.301 409.959 827.788C407.894 826.239 404.261 824.911 399.06 823.805C393.896 822.698 389.783 821.37 386.722 819.821C383.697 818.272 381.447 816.428 379.972 814.288C378.533 812.149 377.814 809.604 377.814 806.653C377.814 801.747 379.88 797.598 384.011 794.204C388.179 790.811 393.49 789.114 399.945 789.114C406.732 789.114 412.228 790.866 416.433 794.37C420.675 797.874 422.795 802.356 422.795 807.815H412.504C412.504 805.012 411.306 802.596 408.908 800.567C406.548 798.538 403.56 797.524 399.945 797.524C396.22 797.524 393.306 798.336 391.203 799.958C389.101 801.581 388.05 803.702 388.05 806.321C388.05 808.792 389.027 810.655 390.982 811.909C392.937 813.163 396.459 814.362 401.55 815.506C406.677 816.649 410.826 818.014 413.998 819.6C417.17 821.186 419.513 823.104 421.025 825.354C422.574 827.567 423.349 830.278 423.349 833.487C423.349 838.835 421.209 843.132 416.931 846.378C412.652 849.587 407.101 851.192 400.277 851.192C395.482 851.192 391.24 850.343 387.552 848.647C383.863 846.95 380.968 844.589 378.865 841.565C376.8 838.503 375.767 835.202 375.767 831.661H386.003C386.187 835.091 387.552 837.821 390.097 839.85C392.679 841.841 396.072 842.837 400.277 842.837C404.15 842.837 407.248 842.063 409.572 840.514C411.933 838.928 413.113 836.825 413.113 834.206Z"
          fill="black"/>
    <path d="M447.803 850.085H437.568V790.221H447.803V850.085ZM436.738 774.342C436.738 772.682 437.236 771.28 438.232 770.137C439.265 768.993 440.777 768.422 442.769 768.422C444.76 768.422 446.273 768.993 447.306 770.137C448.338 771.28 448.855 772.682 448.855 774.342C448.855 776.002 448.338 777.385 447.306 778.491C446.273 779.598 444.76 780.151 442.769 780.151C440.777 780.151 439.265 779.598 438.232 778.491C437.236 777.385 436.738 776.002 436.738 774.342Z"
          fill="black"/>
    <path d="M489.078 851.192C480.963 851.192 474.361 848.536 469.271 843.225C464.18 837.876 461.635 830.739 461.635 821.813V819.932C461.635 813.993 462.76 808.7 465.01 804.053C467.297 799.368 470.469 795.717 474.527 793.098C478.621 790.442 483.047 789.114 487.805 789.114C495.588 789.114 501.637 791.678 505.953 796.805C510.268 801.932 512.426 809.272 512.426 818.825V823.085H471.871C472.019 828.987 473.734 833.764 477.016 837.415C480.336 841.03 484.541 842.837 489.631 842.837C493.246 842.837 496.307 842.1 498.816 840.624C501.324 839.149 503.518 837.194 505.4 834.76L511.652 839.628C506.635 847.337 499.111 851.192 489.078 851.192ZM487.805 797.524C483.674 797.524 480.207 799.036 477.404 802.061C474.6 805.049 472.867 809.253 472.203 814.676H502.191V813.901C501.895 808.7 500.494 804.68 497.986 801.84C495.477 798.963 492.084 797.524 487.805 797.524Z"
          fill="black"/>
    <path d="M553.258 799.405C551.709 799.147 550.03 799.018 548.223 799.018C541.51 799.018 536.955 801.876 534.557 807.594V850.085H524.322V790.221H534.281L534.447 797.137C537.803 791.788 542.561 789.114 548.721 789.114C550.713 789.114 552.225 789.372 553.258 789.889V799.405Z"
          fill="black"/>
    <path d="M599.678 844.165C595.694 848.85 589.848 851.192 582.139 851.192C575.758 851.192 570.889 849.348 567.532 845.659C564.213 841.934 562.535 836.438 562.498 829.171V790.221H572.733V828.895C572.733 837.969 576.422 842.505 583.799 842.505C591.618 842.505 596.819 839.591 599.401 833.764V790.221H609.637V850.085H599.899L599.678 844.165Z"
          fill="black"/>
    <path d="M634.922 790.221L635.253 797.745C639.827 791.991 645.803 789.114 653.18 789.114C665.831 789.114 672.212 796.251 672.323 810.526V850.085H662.087V810.471C662.05 806.155 661.055 802.965 659.1 800.899C657.182 798.833 654.175 797.801 650.081 797.801C646.762 797.801 643.848 798.686 641.339 800.456C638.831 802.227 636.876 804.551 635.475 807.428V850.085H625.239V790.221H634.922Z"
          fill="black"/>
    <path d="M685.325 819.655C685.325 810.323 687.483 802.909 691.798 797.413C696.114 791.881 701.831 789.114 708.95 789.114C716.253 789.114 721.952 791.696 726.046 796.86L726.544 790.221H735.894V848.647C735.894 856.393 733.589 862.497 728.978 866.96C724.405 871.423 718.245 873.655 710.499 873.655C706.183 873.655 701.96 872.733 697.829 870.888C693.698 869.044 690.544 866.518 688.368 863.309L693.679 857.167C698.069 862.589 703.436 865.3 709.78 865.3C714.759 865.3 718.632 863.899 721.399 861.095C724.202 858.292 725.603 854.345 725.603 849.255V844.11C721.509 848.831 715.921 851.192 708.839 851.192C701.831 851.192 696.151 848.37 691.798 842.727C687.483 837.083 685.325 829.393 685.325 819.655ZM695.616 820.817C695.616 827.567 696.999 832.878 699.765 836.751C702.532 840.587 706.405 842.505 711.384 842.505C717.839 842.505 722.579 839.573 725.603 833.708V806.376C722.468 800.659 717.765 797.801 711.495 797.801C706.515 797.801 702.624 799.737 699.821 803.61C697.018 807.483 695.616 813.219 695.616 820.817Z"
          fill="black"/>
    <path d="M816.451 844.165C812.468 848.85 806.622 851.192 798.913 851.192C792.531 851.192 787.663 849.348 784.306 845.659C780.986 841.934 779.308 836.438 779.271 829.171V790.221H789.507V828.895C789.507 837.969 793.195 842.505 800.572 842.505C808.392 842.505 813.593 839.591 816.175 833.764V790.221H826.41V850.085H816.673L816.451 844.165Z"
          fill="black"/>
    <path d="M851.64 790.221L851.916 796.86C856.306 791.696 862.226 789.114 869.677 789.114C878.049 789.114 883.748 792.323 886.773 798.741C888.765 795.864 891.347 793.54 894.519 791.77C897.728 789.999 901.508 789.114 905.861 789.114C918.992 789.114 925.668 796.067 925.889 809.973V850.085H915.654V810.581C915.654 806.303 914.676 803.112 912.721 801.01C910.767 798.87 907.484 797.801 902.873 797.801C899.074 797.801 895.92 798.944 893.412 801.231C890.904 803.481 889.447 806.524 889.041 810.36V850.085H878.75V810.858C878.75 802.153 874.49 797.801 865.97 797.801C859.257 797.801 854.664 800.659 852.193 806.376V850.085H841.957V790.221H851.64Z"
          fill="black"/>
    <path d="M976.238 834.206C976.238 831.44 975.186 829.301 973.084 827.788C971.018 826.239 967.385 824.911 962.184 823.805C957.02 822.698 952.908 821.37 949.846 819.821C946.822 818.272 944.572 816.428 943.096 814.288C941.658 812.149 940.939 809.604 940.939 806.653C940.939 801.747 943.004 797.598 947.135 794.204C951.303 790.811 956.615 789.114 963.07 789.114C969.856 789.114 975.352 790.866 979.557 794.37C983.799 797.874 985.92 802.356 985.92 807.815H975.629C975.629 805.012 974.43 802.596 972.033 800.567C969.672 798.538 966.684 797.524 963.07 797.524C959.344 797.524 956.43 798.336 954.328 799.958C952.225 801.581 951.174 803.702 951.174 806.321C951.174 808.792 952.152 810.655 954.107 811.909C956.061 813.163 959.584 814.362 964.674 815.506C969.801 816.649 973.951 818.014 977.123 819.6C980.295 821.186 982.637 823.104 984.149 825.354C985.699 827.567 986.473 830.278 986.473 833.487C986.473 838.835 984.334 843.132 980.055 846.378C975.776 849.587 970.225 851.192 963.402 851.192C958.607 851.192 954.365 850.343 950.676 848.647C946.988 846.95 944.092 844.589 941.99 841.565C939.924 838.503 938.891 835.202 938.891 831.661H949.127C949.311 835.091 950.676 837.821 953.221 839.85C955.803 841.841 959.197 842.837 963.402 842.837C967.274 842.837 970.373 842.063 972.697 840.514C975.057 838.928 976.238 836.825 976.238 834.206Z"
          fill="black"/>
    <path d="M1024.65 851.192C1016.53 851.192 1009.93 848.536 1004.84 843.225C999.752 837.876 997.207 830.739 997.207 821.813V819.932C997.207 813.993 998.332 808.7 1000.58 804.053C1002.87 799.368 1006.04 795.717 1010.1 793.098C1014.19 790.442 1018.62 789.114 1023.38 789.114C1031.16 789.114 1037.21 791.678 1041.52 796.805C1045.84 801.932 1048 809.272 1048 818.825V823.085H1007.44C1007.59 828.987 1009.3 833.764 1012.59 837.415C1015.91 841.03 1020.11 842.837 1025.2 842.837C1028.82 842.837 1031.88 842.1 1034.39 840.624C1036.9 839.149 1039.09 837.194 1040.97 834.76L1047.22 839.628C1042.21 847.337 1034.68 851.192 1024.65 851.192ZM1023.38 797.524C1019.25 797.524 1015.78 799.036 1012.98 802.061C1010.17 805.049 1008.44 809.253 1007.77 814.676H1037.76V813.901C1037.47 808.7 1036.07 804.68 1033.56 801.84C1031.05 798.963 1027.66 797.524 1023.38 797.524Z"
          fill="black"/>
    <path d="M1073.78 775.725V790.221H1084.96V798.133H1073.78V835.257C1073.78 837.655 1074.28 839.462 1075.27 840.68C1076.27 841.86 1077.97 842.45 1080.36 842.45C1081.54 842.45 1083.17 842.229 1085.23 841.786V850.085C1082.54 850.823 1079.92 851.192 1077.38 851.192C1072.8 851.192 1069.35 849.809 1067.03 847.042C1064.71 844.276 1063.54 840.348 1063.54 835.257V798.133H1052.64V790.221H1063.54V775.725H1073.78Z"
          fill="black"/>
    <path d="M1106.59 841.731H1141.61V850.085H1094.09V842.561L1127.12 798.686H1094.58V790.221H1139.95V797.469L1106.59 841.731Z"
          fill="black"/>
    <path d="M1177.13 851.192C1169.02 851.192 1162.42 848.536 1157.32 843.225C1152.23 837.876 1149.69 830.739 1149.69 821.813V819.932C1149.69 813.993 1150.81 808.7 1153.06 804.053C1155.35 799.368 1158.52 795.717 1162.58 793.098C1166.68 790.442 1171.1 789.114 1175.86 789.114C1183.64 789.114 1189.69 791.678 1194.01 796.805C1198.32 801.932 1200.48 809.272 1200.48 818.825V823.085H1159.93C1160.07 828.987 1161.79 833.764 1165.07 837.415C1168.39 841.03 1172.6 842.837 1177.69 842.837C1181.3 842.837 1184.36 842.1 1186.87 840.624C1189.38 839.149 1191.57 837.194 1193.45 834.76L1199.71 839.628C1194.69 847.337 1187.16 851.192 1177.13 851.192ZM1175.86 797.524C1171.73 797.524 1168.26 799.036 1165.46 802.061C1162.65 805.049 1160.92 809.253 1160.26 814.676H1190.24V813.901C1189.95 808.7 1188.55 804.68 1186.04 801.84C1183.53 798.963 1180.14 797.524 1175.86 797.524Z"
          fill="black"/>
    <path d="M1222.06 790.221L1222.39 797.745C1226.96 791.991 1232.94 789.114 1240.32 789.114C1252.97 789.114 1259.35 796.251 1259.46 810.526V850.085H1249.22V810.471C1249.19 806.155 1248.19 802.965 1246.24 800.899C1244.32 798.833 1241.31 797.801 1237.22 797.801C1233.9 797.801 1230.98 798.686 1228.48 800.456C1225.97 802.227 1224.01 804.551 1222.61 807.428V850.085H1212.38V790.221H1222.06Z"
          fill="black"/>
    <path d="M1275.12 844.718C1275.12 842.948 1275.63 841.473 1276.67 840.292C1277.74 839.112 1279.32 838.522 1281.42 838.522C1283.53 838.522 1285.11 839.112 1286.18 840.292C1287.29 841.473 1287.84 842.948 1287.84 844.718C1287.84 846.415 1287.29 847.835 1286.18 848.979C1285.11 850.122 1283.53 850.694 1281.42 850.694C1279.32 850.694 1277.74 850.122 1276.67 848.979C1275.63 847.835 1275.12 846.415 1275.12 844.718Z"
          fill="black"/>
</svg>
