<svg width="923" height="241" viewBox="0 0 923 241" fill="none" xmlns="http://www.w3.org/2000/svg">
<path fill-rule="evenodd" clip-rule="evenodd" d="M42.6727 155.83C47.8074 155.83 52.3537 154.386 56.3117 151.498C60.2698 148.609 63.158 144.865 64.9766 140.265H77.9738C75.5134 148.181 71.0206 154.546 64.4952 159.36C57.6489 164.281 49.519 166.741 40.1053 166.741C28.3383 166.741 18.7643 162.73 11.3831 154.707C4.21588 146.898 0.632324 137.11 0.632324 125.343C0.632324 113.576 4.21588 103.788 11.3831 95.9786C18.7643 87.9556 28.3383 83.9442 40.1053 83.9442C49.519 83.9442 57.6489 86.4045 64.4952 91.3253C71.0206 96.1391 75.5134 102.504 77.9738 110.42H64.9766C63.158 105.82 60.2698 102.076 56.3117 99.1878C52.3537 96.2995 47.8074 94.8554 42.6727 94.8554C37.538 94.8554 33.1789 95.6577 29.5953 97.2623C26.0116 98.8669 22.9897 101.06 20.5293 103.841C15.2876 109.618 12.6668 116.785 12.6668 125.343C12.6668 133.901 15.2876 141.068 20.5293 146.844C25.878 152.835 33.259 155.83 42.6727 155.83ZM127.716 83.9442C139.697 83.9442 149.432 87.9556 156.92 95.9786C163.98 103.681 167.51 113.469 167.51 125.343C167.51 137.217 163.98 147.005 156.92 154.707C149.432 162.73 139.697 166.741 127.716 166.741C115.735 166.741 106.001 162.73 98.5126 154.707C91.4523 147.005 87.9223 137.217 87.9223 125.343C87.9223 113.469 91.4523 103.681 98.5126 95.9786C106.001 87.9556 115.735 83.9442 127.716 83.9442ZM127.716 155.83C136.381 155.83 143.227 152.835 148.255 146.844C153.069 141.175 155.476 134.008 155.476 125.343C155.476 116.678 153.069 109.511 148.255 103.841C143.227 97.8506 136.381 94.8554 127.716 94.8554C119.051 94.8554 112.205 97.8506 107.177 103.841C102.364 109.511 99.9567 116.678 99.9567 125.343C99.9567 134.008 102.364 141.175 107.177 146.844C112.205 152.835 119.051 155.83 127.716 155.83ZM195.43 97.4228C200.779 88.437 208.909 83.9442 219.82 83.9442C225.169 83.9442 230.116 85.3616 234.662 88.1964C239.209 91.0312 242.766 95.0159 245.333 100.151C248.97 93.4113 254.64 88.5975 262.342 85.7092C265.444 84.5325 268.947 83.9442 272.852 83.9442C276.756 83.9442 280.5 84.7197 284.084 86.2708C287.668 87.822 290.85 90.0416 293.631 92.9299C299.622 99.3483 302.617 107.371 302.617 116.999V165.458H290.583V117.32C290.583 110.687 288.711 105.232 284.966 100.953C281.222 96.8879 276.462 94.8554 270.686 94.8554C264.588 94.8554 259.507 96.8344 255.442 100.792C251.163 104.857 249.024 110.42 249.024 117.48V165.458H236.989V117.32C236.989 110.687 235.117 105.232 231.373 100.953C227.629 96.8879 222.869 94.8554 217.092 94.8554C210.995 94.8554 205.913 96.8344 201.848 100.792C197.57 104.857 195.43 110.42 195.43 117.48V165.458H183.396V85.2279H195.43V97.4228ZM334.709 98.0646C341.127 88.6509 350.701 83.9442 363.431 83.9442C374.984 83.9442 384.344 87.9556 391.512 95.9786C398.679 103.895 402.262 113.683 402.262 125.343C402.262 137.003 398.679 146.791 391.512 154.707C384.344 162.73 374.717 166.741 362.629 166.741C350.541 166.741 341.234 161.981 334.709 152.46V197.229H322.674V85.2279H334.709V98.0646ZM361.827 94.8554C353.162 94.8554 346.315 97.8506 341.288 103.841C336.474 109.511 334.067 116.678 334.067 125.343C334.067 134.008 336.474 141.175 341.288 146.844C346.315 152.835 353.162 155.83 361.827 155.83C370.384 155.83 377.338 152.835 382.686 146.844C387.714 141.175 390.228 134.008 390.228 125.343C390.228 116.678 387.714 109.511 382.686 103.841C377.338 97.8506 370.384 94.8554 361.827 94.8554ZM452.807 83.9442C464.788 83.9442 474.523 87.9556 482.011 95.9786C489.071 103.681 492.601 113.469 492.601 125.343C492.601 137.217 489.071 147.005 482.011 154.707C474.523 162.73 464.788 166.741 452.807 166.741C440.826 166.741 431.092 162.73 423.603 154.707C416.543 147.005 413.013 137.217 413.013 125.343C413.013 113.469 416.543 103.681 423.603 95.9786C431.092 87.9556 440.826 83.9442 452.807 83.9442ZM452.807 155.83C461.472 155.83 468.318 152.835 473.346 146.844C478.16 141.175 480.567 134.008 480.567 125.343C480.567 116.678 478.16 109.511 473.346 103.841C468.318 97.8506 461.472 94.8554 452.807 94.8554C444.142 94.8554 437.296 97.8506 432.268 103.841C427.454 109.511 425.048 116.678 425.048 125.343C425.048 134.008 427.454 141.175 432.268 146.844C437.296 152.835 444.142 155.83 452.807 155.83ZM555.662 106.729C554.592 98.3855 547.879 94.2136 535.524 94.2136C523.168 94.2136 516.991 98.0646 516.991 105.767C516.991 108.976 518.301 111.409 520.922 113.068C523.543 114.726 526.832 116.09 530.79 117.159C534.748 118.229 539.054 119.219 543.707 120.128C548.361 121.037 552.666 122.321 556.624 123.979C560.582 125.637 563.872 127.91 566.493 130.798C569.113 133.687 570.424 137.645 570.424 142.672C570.424 150.481 567.482 156.445 561.599 160.564C555.715 164.682 547.746 166.741 537.69 166.741C526.993 166.741 518.489 164.067 512.177 158.718C506.401 154.011 503.298 147.861 502.87 140.265H515.386C516.135 147.647 520.307 152.621 527.902 155.188C530.683 156.044 533.438 156.472 536.166 156.472C538.894 156.472 541.434 156.311 543.788 155.99C546.141 155.67 548.441 155.081 550.687 154.225C555.822 152.193 558.389 148.716 558.389 143.796C558.389 140.479 557.079 137.939 554.458 136.174C551.837 134.409 548.548 132.965 544.59 131.841C540.632 130.718 536.326 129.702 531.673 128.793C527.02 127.883 522.714 126.626 518.756 125.022C514.798 123.417 511.508 121.224 508.888 118.443C506.267 115.662 504.956 111.811 504.956 106.89C504.956 99.6157 507.604 93.9729 512.899 89.9614C518.194 85.9499 526.03 83.9442 536.406 83.9442C546.248 83.9442 554.003 86.2976 559.673 91.0044C564.38 94.9624 567.108 100.204 567.856 106.729H555.662ZM621.61 155.83C632.415 155.83 640.17 151.337 644.877 142.351H658.035C655.253 149.626 650.841 155.509 644.797 160.002C638.753 164.495 630.971 166.741 621.45 166.741C609.362 166.741 599.521 162.73 591.925 154.707C584.544 146.898 580.854 137.11 580.854 125.343C580.854 113.469 584.384 103.681 591.444 95.9786C598.932 87.9556 608.667 83.9442 620.648 83.9442C632.629 83.9442 642.363 87.9556 649.851 95.9786C656.912 103.681 660.442 113.469 660.442 125.343V130.156H593.209C594.065 137.538 597.007 143.635 602.034 148.449C607.169 153.37 613.694 155.83 621.61 155.83ZM620.648 94.8554C613.266 94.8554 607.062 97.1553 602.034 101.755C597.328 106.141 594.439 111.864 593.37 118.924H647.926C646.856 111.864 643.968 106.141 639.261 101.755C634.233 97.1553 628.029 94.8554 620.648 94.8554Z" fill="black"/>
<g style="mix-blend-mode:multiply">
<g style="mix-blend-mode:color-burn">
<path d="M810.311 232.839C872.344 232.839 922.632 182.551 922.632 120.517C922.632 58.4838 872.344 8.19574 810.311 8.19574C748.277 8.19574 697.989 58.4838 697.989 120.517C697.989 182.551 748.277 232.839 810.311 232.839Z" fill="#2A21D3"/>
</g>
<g style="mix-blend-mode:color-burn">
<path d="M796.672 240.862C858.705 240.862 908.993 190.574 908.993 128.54C908.993 66.5069 858.705 16.2188 796.672 16.2188C734.638 16.2188 684.35 66.5069 684.35 128.54C684.35 190.574 734.638 240.862 796.672 240.862Z" fill="#D0021B"/>
</g>
<g style="mix-blend-mode:multiply">
<path d="M796.673 224.816C858.706 224.816 908.994 174.528 908.994 112.494C908.994 50.4609 858.706 0.172821 796.673 0.172821C734.639 0.172821 684.351 50.4609 684.351 112.494C684.351 174.528 734.639 224.816 796.673 224.816Z" fill="#3AB53A"/>
</g>
</g>
<g style="mix-blend-mode:multiply">
<g style="mix-blend-mode:color-burn">
<path fill-rule="evenodd" clip-rule="evenodd" d="M858.616 19.8658C895.606 38.2432 921.028 76.4115 921.028 120.517C921.028 164.623 895.606 202.792 858.616 221.169C840.543 233.591 818.654 240.862 795.067 240.862C733.033 240.862 682.745 190.574 682.745 128.54C682.745 125.843 682.84 123.167 683.027 120.517C682.84 117.867 682.745 115.192 682.745 112.494C682.745 50.4609 733.033 0.172821 795.067 0.172821C818.654 0.172821 840.543 7.44341 858.616 19.8658Z" fill="white"/>
</g>
</g>
<path fill-rule="evenodd" clip-rule="evenodd" d="M780.786 169.458V156.942C777.898 160.793 774.368 164.055 770.196 166.73C766.024 169.404 761.263 170.741 755.915 170.741C750.566 170.741 745.966 169.992 742.115 168.495C738.264 166.997 734.895 164.751 732.006 161.756C725.374 155.23 722.058 146.619 722.058 135.922V89.2279H734.092V135.601C734.092 142.982 736.178 148.865 740.35 153.251C744.522 157.637 749.924 159.83 756.557 159.83C763.296 159.83 769.019 157.584 773.726 153.091C778.433 148.491 780.786 142.607 780.786 135.44V89.2279H792.82V169.458H780.786ZM860.855 110.729C859.786 102.385 853.073 98.2136 840.718 98.2136C828.362 98.2136 822.185 102.065 822.185 109.767C822.185 112.976 823.495 115.409 826.116 117.068C828.737 118.726 832.026 120.09 835.984 121.159C839.942 122.229 844.248 123.219 848.901 124.128C853.554 125.037 857.86 126.321 861.818 127.979C865.776 129.637 869.065 131.91 871.686 134.798C874.307 137.687 875.618 141.645 875.618 146.672C875.618 154.481 872.676 160.445 866.792 164.564C860.909 168.682 852.939 170.741 842.884 170.741C832.186 170.741 823.682 168.067 817.371 162.718C811.594 158.011 808.492 151.861 808.064 144.265H820.58C821.329 151.647 825.501 156.621 833.096 159.188C835.877 160.044 838.632 160.472 841.359 160.472C844.087 160.472 846.628 160.311 848.981 159.99C851.335 159.67 853.635 159.081 855.881 158.225C861.016 156.193 863.583 152.716 863.583 147.796C863.583 144.479 862.273 141.939 859.652 140.174C857.031 138.409 853.742 136.965 849.784 135.841C845.826 134.718 841.52 133.702 836.867 132.793C832.213 131.883 827.908 130.626 823.95 129.022C819.992 127.417 816.702 125.224 814.081 122.443C811.461 119.662 810.15 115.811 810.15 110.89C810.15 103.616 812.798 97.9729 818.093 93.9614C823.388 89.9499 831.224 87.9442 841.6 87.9442C851.442 87.9442 859.197 90.2976 864.867 95.0044C869.574 98.9624 872.301 104.204 873.05 110.729H860.855Z" fill="white"/>
<path d="M15.0405 223.205C16.0073 223.205 16.8521 222.912 17.5747 222.326C18.2974 221.74 18.6978 221.008 18.7759 220.129H21.3394C21.2905 221.037 20.978 221.901 20.4019 222.722C19.8257 223.542 19.0542 224.196 18.0874 224.684C17.1304 225.173 16.1147 225.417 15.0405 225.417C12.8823 225.417 11.1636 224.699 9.88428 223.264C8.61475 221.818 7.97998 219.846 7.97998 217.346V216.891C7.97998 215.348 8.26318 213.976 8.82959 212.775C9.396 211.574 10.2065 210.641 11.2612 209.977C12.3257 209.313 13.5806 208.981 15.0259 208.981C16.8032 208.981 18.2778 209.514 19.4497 210.578C20.6313 211.642 21.2612 213.024 21.3394 214.723H18.7759C18.6978 213.698 18.3071 212.858 17.604 212.204C16.9106 211.54 16.0513 211.208 15.0259 211.208C13.6489 211.208 12.5796 211.706 11.8179 212.702C11.0659 213.688 10.6899 215.119 10.6899 216.994V217.507C10.6899 219.333 11.0659 220.739 11.8179 221.725C12.5698 222.712 13.644 223.205 15.0405 223.205ZM23.6685 217.053C23.6685 215.5 23.9712 214.103 24.5767 212.863C25.1919 211.623 26.0415 210.666 27.1255 209.992C28.2192 209.318 29.4644 208.981 30.8608 208.981C33.019 208.981 34.7622 209.728 36.0903 211.223C37.4282 212.717 38.0972 214.704 38.0972 217.184V217.375C38.0972 218.918 37.7993 220.305 37.2036 221.535C36.6177 222.756 35.7729 223.708 34.6694 224.391C33.5757 225.075 32.3159 225.417 30.8901 225.417C28.7417 225.417 26.9985 224.67 25.6606 223.176C24.3325 221.681 23.6685 219.704 23.6685 217.243V217.053ZM26.3931 217.375C26.3931 219.133 26.7983 220.544 27.6089 221.608C28.4292 222.673 29.5229 223.205 30.8901 223.205C32.2671 223.205 33.3608 222.668 34.1714 221.594C34.9819 220.51 35.3872 218.996 35.3872 217.053C35.3872 215.314 34.9722 213.908 34.1421 212.834C33.3218 211.75 32.228 211.208 30.8608 211.208C29.5229 211.208 28.4438 211.74 27.6235 212.805C26.8032 213.869 26.3931 215.392 26.3931 217.375ZM44.0444 209.274L44.1177 211.032C45.2798 209.665 46.8472 208.981 48.8198 208.981C51.0366 208.981 52.5454 209.831 53.3462 211.53C53.8735 210.768 54.5571 210.153 55.397 209.684C56.2466 209.216 57.2476 208.981 58.3999 208.981C61.8765 208.981 63.644 210.822 63.7026 214.504V225.124H60.9927V214.665C60.9927 213.532 60.7339 212.687 60.2163 212.131C59.6987 211.564 58.8296 211.281 57.6089 211.281C56.603 211.281 55.7681 211.584 55.104 212.189C54.4399 212.785 54.0542 213.591 53.9468 214.606V225.124H51.2222V214.738C51.2222 212.433 50.0942 211.281 47.8384 211.281C46.061 211.281 44.8452 212.038 44.1909 213.552V225.124H41.481V209.274H44.0444ZM81.1929 217.375C81.1929 219.787 80.6411 221.73 79.5376 223.205C78.4341 224.68 76.9399 225.417 75.0552 225.417C73.1313 225.417 71.6177 224.806 70.5142 223.586V231.218H67.8042V209.274H70.2798L70.4116 211.032C71.5151 209.665 73.0483 208.981 75.0112 208.981C76.9155 208.981 78.4194 209.699 79.5229 211.135C80.6362 212.57 81.1929 214.567 81.1929 217.126V217.375ZM78.4829 217.067C78.4829 215.28 78.1021 213.869 77.3403 212.834C76.5786 211.799 75.5337 211.281 74.2056 211.281C72.5649 211.281 71.3345 212.009 70.5142 213.464V221.037C71.3247 222.482 72.5649 223.205 74.2349 223.205C75.5337 223.205 76.564 222.692 77.3257 221.667C78.0972 220.632 78.4829 219.098 78.4829 217.067ZM83.9321 217.053C83.9321 215.5 84.2349 214.103 84.8403 212.863C85.4556 211.623 86.3052 210.666 87.3892 209.992C88.4829 209.318 89.728 208.981 91.1245 208.981C93.2827 208.981 95.0259 209.728 96.354 211.223C97.6919 212.717 98.3608 214.704 98.3608 217.184V217.375C98.3608 218.918 98.063 220.305 97.4673 221.535C96.8813 222.756 96.0366 223.708 94.9331 224.391C93.8394 225.075 92.5796 225.417 91.1538 225.417C89.0054 225.417 87.2622 224.67 85.9243 223.176C84.5962 221.681 83.9321 219.704 83.9321 217.243V217.053ZM86.6567 217.375C86.6567 219.133 87.062 220.544 87.8726 221.608C88.6929 222.673 89.7866 223.205 91.1538 223.205C92.5308 223.205 93.6245 222.668 94.4351 221.594C95.2456 220.51 95.6509 218.996 95.6509 217.053C95.6509 215.314 95.2358 213.908 94.4058 212.834C93.5854 211.75 92.4917 211.208 91.1245 211.208C89.7866 211.208 88.7075 211.74 87.8872 212.805C87.0669 213.869 86.6567 215.392 86.6567 217.375ZM110.988 220.92C110.988 220.187 110.709 219.621 110.153 219.221C109.606 218.81 108.644 218.459 107.267 218.166C105.9 217.873 104.811 217.521 104 217.111C103.2 216.701 102.604 216.213 102.213 215.646C101.833 215.08 101.642 214.406 101.642 213.625C101.642 212.326 102.189 211.227 103.283 210.329C104.386 209.431 105.792 208.981 107.501 208.981C109.298 208.981 110.753 209.445 111.867 210.373C112.99 211.301 113.551 212.487 113.551 213.932H110.827C110.827 213.19 110.509 212.551 109.875 212.014C109.25 211.476 108.458 211.208 107.501 211.208C106.515 211.208 105.744 211.423 105.187 211.852C104.63 212.282 104.352 212.844 104.352 213.537C104.352 214.191 104.611 214.684 105.128 215.016C105.646 215.348 106.579 215.666 107.926 215.969C109.284 216.271 110.382 216.633 111.222 217.053C112.062 217.473 112.682 217.98 113.083 218.576C113.493 219.162 113.698 219.88 113.698 220.729C113.698 222.145 113.131 223.283 111.999 224.142C110.866 224.992 109.396 225.417 107.589 225.417C106.32 225.417 105.197 225.192 104.22 224.743C103.244 224.294 102.477 223.669 101.92 222.868C101.374 222.057 101.1 221.183 101.1 220.246H103.81C103.859 221.154 104.22 221.877 104.894 222.414C105.578 222.941 106.476 223.205 107.589 223.205C108.615 223.205 109.435 223 110.05 222.59C110.675 222.17 110.988 221.613 110.988 220.92ZM120.172 225.124H117.462V209.274H120.172V225.124ZM117.243 205.07C117.243 204.631 117.375 204.26 117.638 203.957C117.912 203.654 118.312 203.503 118.839 203.503C119.367 203.503 119.767 203.654 120.041 203.957C120.314 204.26 120.451 204.631 120.451 205.07C120.451 205.51 120.314 205.876 120.041 206.169C119.767 206.462 119.367 206.608 118.839 206.608C118.312 206.608 117.912 206.462 117.638 206.169C117.375 205.876 117.243 205.51 117.243 205.07ZM127.086 209.274L127.174 211.266C128.385 209.743 129.967 208.981 131.92 208.981C135.27 208.981 136.959 210.871 136.989 214.65V225.124H134.279V214.636C134.269 213.493 134.005 212.648 133.488 212.101C132.98 211.555 132.184 211.281 131.1 211.281C130.221 211.281 129.45 211.515 128.786 211.984C128.122 212.453 127.604 213.068 127.233 213.83V225.124H124.523V209.274H127.086ZM140.431 217.067C140.431 214.597 141.002 212.634 142.145 211.179C143.288 209.714 144.801 208.981 146.686 208.981C148.62 208.981 150.128 209.665 151.212 211.032L151.344 209.274H153.82V224.743C153.82 226.794 153.209 228.41 151.989 229.592C150.778 230.773 149.147 231.364 147.096 231.364C145.954 231.364 144.835 231.12 143.742 230.632C142.648 230.143 141.813 229.474 141.237 228.625L142.643 226.999C143.805 228.434 145.226 229.152 146.906 229.152C148.224 229.152 149.25 228.781 149.982 228.039C150.724 227.297 151.095 226.252 151.095 224.904V223.542C150.011 224.792 148.532 225.417 146.657 225.417C144.801 225.417 143.297 224.67 142.145 223.176C141.002 221.681 140.431 219.645 140.431 217.067ZM143.156 217.375C143.156 219.162 143.522 220.568 144.254 221.594C144.987 222.609 146.012 223.117 147.331 223.117C149.04 223.117 150.294 222.341 151.095 220.788V213.552C150.265 212.038 149.02 211.281 147.36 211.281C146.042 211.281 145.011 211.794 144.269 212.819C143.527 213.845 143.156 215.363 143.156 217.375ZM164.704 217.067C164.704 214.636 165.28 212.682 166.432 211.208C167.584 209.723 169.093 208.981 170.958 208.981C172.814 208.981 174.284 209.616 175.368 210.886V202.624H178.078V225.124H175.587L175.456 223.425C174.372 224.753 172.863 225.417 170.929 225.417C169.093 225.417 167.594 224.665 166.432 223.161C165.28 221.657 164.704 219.694 164.704 217.272V217.067ZM167.414 217.375C167.414 219.172 167.785 220.578 168.527 221.594C169.269 222.609 170.294 223.117 171.603 223.117C173.322 223.117 174.577 222.346 175.368 220.803V213.522C174.557 212.028 173.312 211.281 171.632 211.281C170.304 211.281 169.269 211.794 168.527 212.819C167.785 213.845 167.414 215.363 167.414 217.375ZM185.241 225.124H182.531V209.274H185.241V225.124ZM182.311 205.07C182.311 204.631 182.443 204.26 182.707 203.957C182.98 203.654 183.38 203.503 183.908 203.503C184.435 203.503 184.835 203.654 185.109 203.957C185.382 204.26 185.519 204.631 185.519 205.07C185.519 205.51 185.382 205.876 185.109 206.169C184.835 206.462 184.435 206.608 183.908 206.608C183.38 206.608 182.98 206.462 182.707 206.169C182.443 205.876 182.311 205.51 182.311 205.07ZM188.947 217.067C188.947 214.597 189.518 212.634 190.661 211.179C191.803 209.714 193.317 208.981 195.202 208.981C197.135 208.981 198.644 209.665 199.728 211.032L199.86 209.274H202.335V224.743C202.335 226.794 201.725 228.41 200.504 229.592C199.293 230.773 197.663 231.364 195.612 231.364C194.469 231.364 193.351 231.12 192.257 230.632C191.164 230.143 190.329 229.474 189.752 228.625L191.159 226.999C192.321 228.434 193.742 229.152 195.421 229.152C196.74 229.152 197.765 228.781 198.498 228.039C199.24 227.297 199.611 226.252 199.611 224.904V223.542C198.527 224.792 197.047 225.417 195.172 225.417C193.317 225.417 191.813 224.67 190.661 223.176C189.518 221.681 188.947 219.645 188.947 217.067ZM191.671 217.375C191.671 219.162 192.038 220.568 192.77 221.594C193.502 222.609 194.528 223.117 195.846 223.117C197.555 223.117 198.81 222.341 199.611 220.788V213.552C198.781 212.038 197.536 211.281 195.875 211.281C194.557 211.281 193.527 211.794 192.785 212.819C192.042 213.845 191.671 215.363 191.671 217.375ZM209.381 225.124H206.671V209.274H209.381V225.124ZM206.452 205.07C206.452 204.631 206.583 204.26 206.847 203.957C207.121 203.654 207.521 203.503 208.048 203.503C208.576 203.503 208.976 203.654 209.25 203.957C209.523 204.26 209.66 204.631 209.66 205.07C209.66 205.51 209.523 205.876 209.25 206.169C208.976 206.462 208.576 206.608 208.048 206.608C207.521 206.608 207.121 206.462 206.847 206.169C206.583 205.876 206.452 205.51 206.452 205.07ZM217.409 205.436V209.274H220.368V211.369H217.409V221.198C217.409 221.833 217.541 222.311 217.804 222.634C218.068 222.946 218.517 223.102 219.152 223.102C219.464 223.102 219.894 223.044 220.441 222.927V225.124C219.728 225.319 219.035 225.417 218.361 225.417C217.15 225.417 216.237 225.051 215.622 224.318C215.006 223.586 214.699 222.546 214.699 221.198V211.369H211.813V209.274H214.699V205.436H217.409ZM233.332 225.124C233.175 224.811 233.048 224.255 232.951 223.454C231.691 224.763 230.187 225.417 228.439 225.417C226.876 225.417 225.592 224.977 224.586 224.098C223.59 223.21 223.092 222.087 223.092 220.729C223.092 219.079 223.717 217.8 224.967 216.891C226.227 215.973 227.995 215.514 230.27 215.514H232.907V214.269C232.907 213.322 232.624 212.57 232.057 212.014C231.491 211.447 230.656 211.164 229.552 211.164C228.585 211.164 227.775 211.408 227.121 211.896C226.466 212.385 226.139 212.975 226.139 213.669H223.415C223.415 212.878 223.693 212.116 224.25 211.384C224.816 210.641 225.578 210.056 226.535 209.626C227.501 209.196 228.561 208.981 229.713 208.981C231.54 208.981 232.97 209.44 234.005 210.358C235.041 211.266 235.578 212.521 235.617 214.123V221.418C235.617 222.873 235.802 224.03 236.173 224.889V225.124H233.332ZM228.834 223.058C229.684 223.058 230.49 222.839 231.251 222.399C232.013 221.96 232.565 221.389 232.907 220.685V217.433H230.783C227.462 217.433 225.802 218.405 225.802 220.348C225.802 221.198 226.085 221.862 226.652 222.341C227.218 222.819 227.946 223.058 228.834 223.058ZM242.809 225.124H240.099V202.624H242.809V225.124ZM268.634 221.389L271.681 209.274H274.391L269.777 225.124H267.58L263.727 213.112L259.977 225.124H257.78L253.18 209.274H255.875L258.996 221.139L262.687 209.274H264.87L268.634 221.389ZM276.442 217.053C276.442 215.5 276.745 214.103 277.35 212.863C277.965 211.623 278.815 210.666 279.899 209.992C280.993 209.318 282.238 208.981 283.634 208.981C285.792 208.981 287.536 209.728 288.864 211.223C290.202 212.717 290.871 214.704 290.871 217.184V217.375C290.871 218.918 290.573 220.305 289.977 221.535C289.391 222.756 288.546 223.708 287.443 224.391C286.349 225.075 285.089 225.417 283.664 225.417C281.515 225.417 279.772 224.67 278.434 223.176C277.106 221.681 276.442 219.704 276.442 217.243V217.053ZM279.167 217.375C279.167 219.133 279.572 220.544 280.382 221.608C281.203 222.673 282.296 223.205 283.664 223.205C285.041 223.205 286.134 222.668 286.945 221.594C287.755 220.51 288.161 218.996 288.161 217.053C288.161 215.314 287.746 213.908 286.916 212.834C286.095 211.75 285.001 211.208 283.634 211.208C282.296 211.208 281.217 211.74 280.397 212.805C279.577 213.869 279.167 215.392 279.167 217.375ZM301.93 211.706C301.52 211.638 301.076 211.603 300.597 211.603C298.82 211.603 297.614 212.36 296.979 213.874V225.124H294.269V209.274H296.906L296.95 211.105C297.838 209.689 299.098 208.981 300.729 208.981C301.256 208.981 301.657 209.05 301.93 209.186V211.706ZM308.859 217.785L307.16 219.557V225.124H304.45V202.624H307.16V216.232L308.61 214.489L313.546 209.274H316.842L310.675 215.895L317.56 225.124H314.381L308.859 217.785ZM329.542 204.924C328.332 204.728 327.355 204.631 326.613 204.631C324.66 204.631 323.683 205.656 323.683 207.707V209.274H327.067V211.369H323.683V225.124H320.973V211.369H318.468V209.274H320.973V207.546C320.983 205.856 321.457 204.562 322.394 203.664C323.332 202.765 324.665 202.316 326.393 202.316C327.379 202.316 329.333 202.614 332.252 203.21V225.124H329.542V204.924ZM335.973 217.053C335.973 215.5 336.276 214.103 336.881 212.863C337.497 211.623 338.346 210.666 339.43 209.992C340.524 209.318 341.769 208.981 343.166 208.981C345.324 208.981 347.067 209.728 348.395 211.223C349.733 212.717 350.402 214.704 350.402 217.184V217.375C350.402 218.918 350.104 220.305 349.508 221.535C348.922 222.756 348.078 223.708 346.974 224.391C345.88 225.075 344.621 225.417 343.195 225.417C341.046 225.417 339.303 224.67 337.965 223.176C336.637 221.681 335.973 219.704 335.973 217.243V217.053ZM338.698 217.375C338.698 219.133 339.103 220.544 339.914 221.608C340.734 222.673 341.828 223.205 343.195 223.205C344.572 223.205 345.666 222.668 346.476 221.594C347.287 220.51 347.692 218.996 347.692 217.053C347.692 215.314 347.277 213.908 346.447 212.834C345.626 211.75 344.533 211.208 343.166 211.208C341.828 211.208 340.749 211.74 339.928 212.805C339.108 213.869 338.698 215.392 338.698 217.375ZM367.833 221.389L370.88 209.274H373.59L368.976 225.124H366.779L362.926 213.112L359.176 225.124H356.979L352.379 209.274H355.075L358.195 221.139L361.886 209.274H364.069L367.833 221.389ZM385.587 220.92C385.587 220.187 385.309 219.621 384.752 219.221C384.206 218.81 383.244 218.459 381.867 218.166C380.5 217.873 379.411 217.521 378.6 217.111C377.799 216.701 377.204 216.213 376.813 215.646C376.432 215.08 376.242 214.406 376.242 213.625C376.242 212.326 376.789 211.227 377.882 210.329C378.986 209.431 380.392 208.981 382.101 208.981C383.898 208.981 385.353 209.445 386.466 210.373C387.589 211.301 388.151 212.487 388.151 213.932H385.426C385.426 213.19 385.109 212.551 384.474 212.014C383.849 211.476 383.058 211.208 382.101 211.208C381.115 211.208 380.343 211.423 379.787 211.852C379.23 212.282 378.952 212.844 378.952 213.537C378.952 214.191 379.21 214.684 379.728 215.016C380.246 215.348 381.178 215.666 382.526 215.969C383.883 216.271 384.982 216.633 385.822 217.053C386.662 217.473 387.282 217.98 387.682 218.576C388.092 219.162 388.297 219.88 388.297 220.729C388.297 222.145 387.731 223.283 386.598 224.142C385.465 224.992 383.996 225.417 382.189 225.417C380.919 225.417 379.796 225.192 378.82 224.743C377.843 224.294 377.077 223.669 376.52 222.868C375.973 222.057 375.7 221.183 375.7 220.246H378.41C378.458 221.154 378.82 221.877 379.494 222.414C380.177 222.941 381.076 223.205 382.189 223.205C383.214 223.205 384.035 223 384.65 222.59C385.275 222.17 385.587 221.613 385.587 220.92ZM391.886 223.703C391.886 223.234 392.023 222.844 392.296 222.531C392.58 222.219 393 222.062 393.556 222.062C394.113 222.062 394.533 222.219 394.816 222.531C395.109 222.844 395.255 223.234 395.255 223.703C395.255 224.152 395.109 224.528 394.816 224.831C394.533 225.134 394.113 225.285 393.556 225.285C393 225.285 392.58 225.134 392.296 224.831C392.023 224.528 391.886 224.152 391.886 223.703Z" fill="black"/>
</svg>
